<svg id="SvgjsSvg1011" xmlns="http://www.w3.org/2000/svg" version="1.1" xmlns:xlink="http://www.w3.org/1999/xlink" xmlns:svgjs="http://svgjs.com/svgjs" width="45" height="61" viewBox="0 0 45 61"><title>Adobe-logo-vector</title><desc>Created with Avocode.</desc><defs id="SvgjsDefs1012"></defs><path id="SvgjsPath1013" d="M623.89 3693C623.9399999999999 3693.05 634.29 3716.66 634.28 3716.64C632.02 3716.64 629.76 3716.64 627.5 3716.64C627.5 3716.56 624.28 3708.95 624.32 3708.9C621.88 3708.9 619.45 3708.9 617 3708.9C617.06 3708.92 624 3692.92 623.89 3693Z " fill="#030e1a" fill-opacity="1" transform="matrix(1,0,0,1,-602,-3677)"></path><path id="SvgjsPath1014" d="M602 3678C602.05 3678 617.9 3678 617.9 3678C617.9499999999999 3677.98 602.11 3716.15 602.05 3716.1C602.05 3716.0499999999997 602.02 3677.98 602 3678Z " fill="#030e1a" fill-opacity="1" transform="matrix(1,0,0,1,-602,-3677)"></path><path id="SvgjsPath1015" d="M630 3678L646.44 3678C646.44 3678.09 646.4300000000001 3716.16 646.4300000000001 3716.12C646.44 3716.24 630.0000000000001 3678 630.0000000000001 3678Z " fill="#030e1a" fill-opacity="1" transform="matrix(1,0,0,1,-602,-3677)"></path><path id="SvgjsPath1016" d="M607.99 3722L611.52 3737.13L608.9499999999999 3737.13L608.3499999999999 3734.29L605.1599999999999 3734.29L604.5699999999998 3737.13L601.9999999999998 3737.13L605.5299999999997 3722ZM607.85 3731.72L606.74 3726.06L605.62 3731.72Z " fill="#030e1a" fill-opacity="1" transform="matrix(1,0,0,1,-602,-3677)"></path><path id="SvgjsPath1017" d="M617.45 3737.13L617.3900000000001 3735.81L617.3100000000001 3735.81C616.95 3736.85 616.2 3737.54 615.24 3737.54C612.96 3737.54 612 3734.88 612 3731.6C612 3728.7999999999997 612.71 3725.75 615.27 3725.75C616.16 3725.75 616.5799999999999 3726.07 617.22 3726.91L617.22 3722L619.49 3722L619.49 3737.13ZM614.35 3731.63C614.35 3733.05 614.5400000000001 3735.34 615.84 3735.34C617.08 3735.34 617.33 3733.29 617.33 3731.63C617.33 3728.56 616.44 3727.96 615.84 3727.96C615.22 3727.96 614.35 3728.56 614.35 3731.63Z " fill="#030e1a" fill-opacity="1" transform="matrix(1,0,0,1,-602,-3677)"></path><path id="SvgjsPath1018" d="M624.85 3726C627.52 3726 628.71 3728.48 628.71 3731.87C628.71 3735.2999999999997 627.5 3737.7799999999997 624.85 3737.7799999999997C622.19 3737.7799999999997 621 3735.2999999999997 621 3731.87C621 3728.48 622.18 3726 624.85 3726ZM624.85 3728.2C624.16 3728.2 623.35 3728.71 623.35 3731.87C623.35 3735.0899999999997 624.16 3735.58 624.85 3735.58C625.83 3735.58 626.36 3734.67 626.36 3731.87C626.36 3728.88 625.74 3728.2 624.85 3728.2Z " fill="#030e1a" fill-opacity="1" transform="matrix(1,0,0,1,-602,-3677)"></path><path id="SvgjsPath1019" d="M632.04 3737.13L630 3737.13L630 3722L632.29 3722L632.29 3727.03C632.76 3725.9500000000003 633.65 3725.73 634.23 3725.73C636.63 3725.73 637.51 3728.25 637.51 3731.58C637.51 3734.88 636.66 3737.5299999999997 634.24 3737.5299999999997C633.25 3737.5299999999997 632.66 3737.0299999999997 632.17 3735.79L632.11 3735.79L632.04 3737.11ZM635.16 3731.61C635.16 3728.55 634.27 3727.94 633.67 3727.94C633.05 3727.94 632.18 3728.55 632.18 3731.61C632.18 3733.04 632.37 3735.33 633.67 3735.33C634.91 3735.33 635.16 3733.27 635.16 3731.61Z " fill="#030e1a" fill-opacity="1" transform="matrix(1,0,0,1,-602,-3677)"></path><path id="SvgjsPath1020" d="M646.45655 3734.21C645.88262 3737.52104 644.04747 3737.78 642.79 3737.78C641.4 3737.78 639 3737.27 639 3731.8700000000003C639 3728.11 640.55 3726.0000000000005 642.95 3726.0000000000005C644.46 3726.0000000000005 646.6 3726.8400000000006 646.6 3732.0800000000004L646.6 3732.6900000000005L641.35 3732.6900000000005C641.35 3735.2700000000004 642.25 3735.5800000000004 642.89 3735.5800000000004C643.41 3735.5800000000004 643.9399999999999 3735.4300000000003 644.17 3734.2100000000005ZM646.46 3734.21L646.45655 3734.21C646.4577 3734.2033500000002 646.45885 3734.19668 646.46 3734.19ZM642.9 3728.18C641.6 3728.18 641.38 3730.0299999999997 641.37 3730.85L644.26 3730.85C644.2 3728.62 643.66 3728.18 642.9 3728.18Z " fill="#030e1a" fill-opacity="1" transform="matrix(1,0,0,1,-602,-3677)"></path></svg>