<?xml version="1.0" encoding="UTF-8" standalone="no"?>
<svg width="32px" height="32px" viewBox="0 0 32 32" version="1.1" xmlns="http://www.w3.org/2000/svg"
     xmlns:xlink="http://www.w3.org/1999/xlink">
  <!-- Generator: Sketch 41.1 (35376) - http://www.bohemiancoding.com/sketch -->
  <title>Combined Shape</title>
  <desc>Created with Sketch.</desc>
  <defs></defs>
  <g id="Desktop-Full-HD-1920" stroke="none" stroke-width="1" fill="none" fill-rule="evenodd">
    <g id="001-Frontend-Desktop-Full-HD-1920-Services-Software-Development"
       transform="translate(-1192.000000, -5101.000000)" fill="#020E19">
      <g id="Main" transform="translate(0.000000, 906.000000)">
        <g id="Contacts" transform="translate(416.000000, 3635.000000)">
          <g id="List" transform="translate(184.000000, 258.000000)">
            <g id="FORM">
              <g id="SOCIAL" transform="translate(592.000000, 302.000000)">
                <path
                  d="M16,32 C24.836556,32 32,24.836556 32,16 C32,7.163444 24.836556,0 16,0 C7.163444,0 0,7.163444 0,16 C0,24.836556 7.163444,32 16,32 Z M8.8830472,8 C8.39524306,8 8,8.39524306 8,8.8830472 L8,23.1169528 C8,23.604637 8.39524306,24 8.8830472,24 L16.5460745,24 L16.5460745,17.8039821 L14.460992,17.8039821 L14.460992,15.3892407 L16.5460745,15.3892407 L16.5460745,13.6084588 C16.5460745,11.5418406 17.8082984,10.4165399 19.6518468,10.4165399 C20.534894,10.4165399 21.2939069,10.4823038 21.5150584,10.5116788 L21.5150584,12.6713976 L20.2364684,12.6719971 C19.2338232,12.6719971 19.0397086,13.148411 19.0397086,13.847535 L19.0397086,15.3892407 L21.4308902,15.3892407 L21.1195156,17.8039821 L19.0397086,17.8039821 L19.0397086,24 L23.1169528,24 C23.604637,24 24,23.604637 24,23.1169528 L24,8.8830472 C24,8.39524306 23.604637,8 23.1169528,8 L8.8830472,8 Z"
                  id="Combined-Shape"></path>
              </g>
            </g>
          </g>
        </g>
      </g>
    </g>
  </g>
</svg>
