<svg xmlns="http://www.w3.org/2000/svg" width="91" height="30">
  <path
    d="M22.38 10.54H11.76v3.15h7.53c-.37 4.42-4.05 6.3-7.52 6.3-4.44 0-8.32-3.49-8.32-8.39 0-4.77 3.7-8.44 8.33-8.44 3.57 0 5.68 2.28 5.68 2.28l2.2-2.29S16.83 0 11.67 0C5.09 0 0 5.55 0 11.55c0 5.87 4.79 11.6 11.83 11.6 6.2 0 10.74-4.24 10.74-10.52 0-1.33-.19-2.09-.19-2.09zM24 15.38c0 4.03 3.03 7.5 7.53 7.5 4.08 0 7.42-3.11 7.42-7.41 0-4.93-3.89-7.47-7.47-7.47C27.12 8 24 11.41 24 15.38zm11.7.07c0 2.73-2.02 4.51-4.19 4.51-2.37 0-4.24-1.9-4.24-4.53 0-2.58 1.85-4.51 4.25-4.51 2.15 0 4.18 1.74 4.18 4.53zM40 15.38c0 4.03 3.03 7.5 7.53 7.5 4.08 0 7.42-3.11 7.42-7.41 0-4.93-3.89-7.47-7.47-7.47C43.12 8 40 11.41 40 15.38zm11.7.07c0 2.73-2.02 4.51-4.19 4.51-2.37 0-4.24-1.9-4.24-4.53 0-2.58 1.85-4.51 4.25-4.51 2.15 0 4.18 1.74 4.18 4.53zM56 15.44c0 4.47 3.65 7.44 7.08 7.44 2.12 0 3.24-.84 4.08-1.8v1.46c0 2.57-1.56 4.11-3.92 4.11-2.27 0-3.41-1.69-3.8-2.65l-2.86 1.2c1.01 2.14 3.05 4.38 6.69 4.38 3.98 0 7.01-2.51 7.01-7.76V8.45h-3.12v1.26C66.2 8.67 64.89 8 63.14 8c-4 0-7.14 3.5-7.14 7.44zm11.41.01c0 2.91-2.01 4.51-4.02 4.51-2.13 0-4.12-1.73-4.12-4.48 0-2.86 2.06-4.56 4.16-4.56 1.96 0 3.98 1.67 3.98 4.53zM77 15.43c0 4.69 3.53 7.47 7.3 7.47 3.15 0 5.08-1.72 6.24-3.27l-2.57-1.71c-.67 1.04-1.79 2.05-3.65 2.05-2.09 0-3.05-1.15-3.65-2.26l9.98-4.14-.52-1.21C89.17 9.98 86.92 8 83.94 8 80.17 8 77 11 77 15.43zm9.82-2.98l-6.66 2.79c-.29-2.16 1.76-4.38 3.91-4.38 1.36 0 2.34.72 2.75 1.59zM73 22.93h3.28V1H73z"
    fill="#030e1a"/>
  <path
    d="M22.38 10.54H11.76v3.15h7.53c-.37 4.42-4.05 6.3-7.52 6.3-4.44 0-8.32-3.49-8.32-8.39 0-4.77 3.7-8.44 8.33-8.44 3.57 0 5.68 2.28 5.68 2.28l2.2-2.29S16.83 0 11.67 0C5.09 0 0 5.55 0 11.55c0 5.87 4.79 11.6 11.83 11.6 6.2 0 10.74-4.24 10.74-10.52 0-1.33-.19-2.09-.19-2.09zM24 15.38c0 4.03 3.03 7.5 7.53 7.5 4.08 0 7.42-3.11 7.42-7.41 0-4.93-3.89-7.47-7.47-7.47C27.12 8 24 11.41 24 15.38zm11.7.07c0 2.73-2.02 4.51-4.19 4.51-2.37 0-4.24-1.9-4.24-4.53 0-2.58 1.85-4.51 4.25-4.51 2.15 0 4.18 1.74 4.18 4.53zM40 15.38c0 4.03 3.03 7.5 7.53 7.5 4.08 0 7.42-3.11 7.42-7.41 0-4.93-3.89-7.47-7.47-7.47C43.12 8 40 11.41 40 15.38zm11.7.07c0 2.73-2.02 4.51-4.19 4.51-2.37 0-4.24-1.9-4.24-4.53 0-2.58 1.85-4.51 4.25-4.51 2.15 0 4.18 1.74 4.18 4.53zM56 15.44c0 4.47 3.65 7.44 7.08 7.44 2.12 0 3.24-.84 4.08-1.8v1.46c0 2.57-1.56 4.11-3.92 4.11-2.27 0-3.41-1.69-3.8-2.65l-2.86 1.2c1.01 2.14 3.05 4.38 6.69 4.38 3.98 0 7.01-2.51 7.01-7.76V8.45h-3.12v1.26C66.2 8.67 64.89 8 63.14 8c-4 0-7.14 3.5-7.14 7.44zm11.41.01c0 2.91-2.01 4.51-4.02 4.51-2.13 0-4.12-1.73-4.12-4.48 0-2.86 2.06-4.56 4.16-4.56 1.96 0 3.98 1.67 3.98 4.53zM77 15.43c0 4.69 3.53 7.47 7.3 7.47 3.15 0 5.08-1.72 6.24-3.27l-2.57-1.71c-.67 1.04-1.79 2.05-3.65 2.05-2.09 0-3.05-1.15-3.65-2.26l9.98-4.14-.52-1.21C89.17 9.98 86.92 8 83.94 8 80.17 8 77 11 77 15.43zm9.82-2.98l-6.66 2.79c-.29-2.16 1.76-4.38 3.91-4.38 1.36 0 2.34.72 2.75 1.59zM73 22.93h3.28V1H73z"
    fill="#030e1a"/>
  <path
    d="M22.38 10.54H11.76v3.15h7.53c-.37 4.42-4.05 6.3-7.52 6.3-4.44 0-8.32-3.49-8.32-8.39 0-4.77 3.7-8.44 8.33-8.44 3.57 0 5.68 2.28 5.68 2.28l2.2-2.29S16.83 0 11.67 0C5.09 0 0 5.55 0 11.55c0 5.87 4.79 11.6 11.83 11.6 6.2 0 10.74-4.24 10.74-10.52 0-1.33-.19-2.09-.19-2.09zM24 15.38c0 4.03 3.03 7.5 7.53 7.5 4.08 0 7.42-3.11 7.42-7.41 0-4.93-3.89-7.47-7.47-7.47C27.12 8 24 11.41 24 15.38zm11.7.07c0 2.73-2.02 4.51-4.19 4.51-2.37 0-4.24-1.9-4.24-4.53 0-2.58 1.85-4.51 4.25-4.51 2.15 0 4.18 1.74 4.18 4.53zM40 15.38c0 4.03 3.03 7.5 7.53 7.5 4.08 0 7.42-3.11 7.42-7.41 0-4.93-3.89-7.47-7.47-7.47C43.12 8 40 11.41 40 15.38zm11.7.07c0 2.73-2.02 4.51-4.19 4.51-2.37 0-4.24-1.9-4.24-4.53 0-2.58 1.85-4.51 4.25-4.51 2.15 0 4.18 1.74 4.18 4.53zM56 15.44c0 4.47 3.65 7.44 7.08 7.44 2.12 0 3.24-.84 4.08-1.8v1.46c0 2.57-1.56 4.11-3.92 4.11-2.27 0-3.41-1.69-3.8-2.65l-2.86 1.2c1.01 2.14 3.05 4.38 6.69 4.38 3.98 0 7.01-2.51 7.01-7.76V8.45h-3.12v1.26C66.2 8.67 64.89 8 63.14 8c-4 0-7.14 3.5-7.14 7.44zm11.41.01c0 2.91-2.01 4.51-4.02 4.51-2.13 0-4.12-1.73-4.12-4.48 0-2.86 2.06-4.56 4.16-4.56 1.96 0 3.98 1.67 3.98 4.53zM77 15.43c0 4.69 3.53 7.47 7.3 7.47 3.15 0 5.08-1.72 6.24-3.27l-2.57-1.71c-.67 1.04-1.79 2.05-3.65 2.05-2.09 0-3.05-1.15-3.65-2.26l9.98-4.14-.52-1.21C89.17 9.98 86.92 8 83.94 8 80.17 8 77 11 77 15.43zm9.82-2.98l-6.66 2.79c-.29-2.16 1.76-4.38 3.91-4.38 1.36 0 2.34.72 2.75 1.59zM73 22.93h3.28V1H73z"
    fill="#030e1a"/>
</svg>
