<svg id="SvgjsSvg1010" xmlns="http://www.w3.org/2000/svg" version="1.1" xmlns:xlink="http://www.w3.org/1999/xlink"
     xmlns:svgjs="http://svgjs.com/svgjs" width="50" height="71">
  <defs id="SvgjsDefs1011"></defs>
  <path id="SvgjsPath1012"
        d="M828 3517L831.16 3517L831.16 3520.12L834.04 3520.12L834.04 3517L837.1999999999999 3517L837.1999999999999 3526.44L834.04 3526.44L834.04 3523.28L831.16 3523.28L831.16 3526.44L828 3526.44L828 3517 "
        fill="#030e1a" fill-opacity="1" transform="matrix(1,0,0,1,-823,-3517)"></path>
  <path id="SvgjsPath1013"
        d="M840.78 3520.13L838 3520.13L838 3517L846.71 3517L846.71 3520.13L843.9300000000001 3520.13L843.9300000000001 3526.44L840.7800000000001 3526.44L840.7800000000001 3520.13Z "
        fill="#030e1a" fill-opacity="1" transform="matrix(1,0,0,1,-823,-3517)"></path>
  <path id="SvgjsPath1014"
        d="M848 3517L851.29 3517L853.3199999999999 3520.32L855.3399999999999 3517L858.6299999999999 3517L858.6299999999999 3526.44L855.4899999999999 3526.44L855.4899999999999 3521.76L853.3199999999999 3525.1200000000003L853.26 3525.1200000000003L851.09 3521.76L851.09 3526.44L848 3526.44Z "
        fill="#030e1a" fill-opacity="1" transform="matrix(1,0,0,1,-823,-3517)"></path>
  <path id="SvgjsPath1015" d="M860 3517L863.16 3517L863.16 3523.32L867.6 3523.32L867.6 3526.44L860 3526.44Z "
        fill="#030e1a" fill-opacity="1" transform="matrix(1,0,0,1,-823,-3517)"></path>
  <path id="SvgjsPath1016"
        d="M835.06 3572.99L834.17 3563.02L840.4 3563.02L840.87 3568.19L847.78 3570.06L847.79 3570.06L854.7199999999999 3568.19L855.4399999999999 3560.13L833.91 3560.13L832.24 3541.35L863.35 3541.35L862.7900000000001 3547.56L839.0200000000001 3547.56L839.5900000000001 3553.92L862.2300000000001 3553.92L860.5200000000001 3572.9900000000002L847.7900000000001 3576.5200000000004L847.7800000000001 3576.5200000000004ZM823 3531L827.51 3581.64L847.78 3587.2599999999998L868.06 3581.64L872.5799999999999 3531Z "
        fill="#030e1a" fill-opacity="1" transform="matrix(1,0,0,1,-823,-3517)"></path>
</svg>
