<?xml version="1.0" encoding="UTF-8" standalone="no"?>
<svg width="48px" height="48px" viewBox="0 0 48 48" version="1.1" xmlns="http://www.w3.org/2000/svg" xmlns:xlink="http://www.w3.org/1999/xlink">
    <!-- Generator: Sketch 41.1 (35376) - http://www.bohemiancoding.com/sketch -->
    <title>ic-013</title>
    <desc>Created with Sketch.</desc>
    <defs>
        <path d="M21.8860664,25.2127848 L47.799128,25.2127848 L47.799128,46.9237991 L47.799128,47.9743393 C39.2198673,46.573581 30.4654408,45.5230408 21.8860664,44.2974483 L21.8860664,25.2127848 Z" id="path-1"></path>
        <mask id="mask-2" maskContentUnits="userSpaceOnUse" maskUnits="objectBoundingBox" x="0" y="0" width="25.9130616" height="22.7615545" fill="white">
            <use xlink:href="#path-1"></use>
        </mask>
        <path d="M21.8860664,3.85197725 C30.4654408,2.45121896 39.2198673,1.22562654 47.799128,3.41232226e-05 L47.799128,0.350252133 L47.799128,22.7615886 C39.2198673,22.7615886 30.4654408,22.9366408 21.8860664,22.9366408 L21.8860664,3.85197725 Z" id="path-3"></path>
        <mask id="mask-4" maskContentUnits="userSpaceOnUse" maskUnits="objectBoundingBox" x="0" y="0" width="25.9130616" height="22.9366066" fill="white">
            <use xlink:href="#path-3"></use>
        </mask>
        <path d="M0,6.8284891 C6.47829384,5.77794882 12.9565877,4.90246066 19.6099336,4.20213839 L19.6099336,22.9365839 C12.9565877,22.9365839 6.47829384,23.1117498 0,23.1117498 L0,6.8284891 Z" id="path-5"></path>
        <mask id="mask-6" maskContentUnits="userSpaceOnUse" maskUnits="objectBoundingBox" x="0" y="0" width="19.6099336" height="18.9096114" fill="white">
            <use xlink:href="#path-5"></use>
        </mask>
        <path d="M0,25.0376986 C6.47829384,25.0376986 12.9565877,25.2127507 19.6099336,25.0376986 L19.6099336,43.94731 C12.9565877,43.0718218 6.47829384,42.1963336 0,41.3209592 L0,25.0376986 Z" id="path-7"></path>
        <mask id="mask-8" maskContentUnits="userSpaceOnUse" maskUnits="objectBoundingBox" x="0" y="0" width="19.6099336" height="18.9096114" fill="white">
            <use xlink:href="#path-7"></use>
        </mask>
    </defs>
    <g id="Desktop-Full-HD-1920" stroke="none" stroke-width="1" fill="none" fill-rule="evenodd">
        <g id="002-Frontend-Desktop-Full-HD-1920-Mobile-Application-Development" transform="translate(-520.000000, -1486.000000)" stroke-width="2" stroke="#3D454C">
            <g id="Main" transform="translate(0.000000, 906.000000)">
                <g id="Services" transform="translate(416.000000, 0.000000)">
                    <g id="List" transform="translate(0.000000, 282.000000)">
                        <g id="03" transform="translate(104.000000, 298.000000)">
                            <g id="ic-013">
                                <use id="Fill-7" mask="url(#mask-2)" fill="#FFFFFF" xlink:href="#path-1"></use>
                                <use id="Fill-1" mask="url(#mask-4)" fill="#4CBF86" xlink:href="#path-3"></use>
                                <use id="Fill-3" mask="url(#mask-6)" fill="#FF6E26" xlink:href="#path-5"></use>
                                <use id="Fill-5" mask="url(#mask-8)" fill="#4CBF86" xlink:href="#path-7"></use>
                            </g>
                        </g>
                    </g>
                </g>
            </g>
        </g>
    </g>
</svg>