<svg id="SvgjsSvg1482" xmlns="http://www.w3.org/2000/svg" version="1.1" xmlns:xlink="http://www.w3.org/1999/xlink" xmlns:svgjs="http://svgjs.com/svgjs" width="14" height="14" viewBox="0 0 14 14"><title>Shape</title><desc>Created with Avocode.</desc><defs id="SvgjsDefs1483"></defs><path id="SvgjsPath1484" d="M619.72 606.84C620.7900000000001 608.97 622.5400000000001 610.7 624.6600000000001 611.7900000000001L626.3100000000001 610.1400000000001C626.5100000000001 609.9300000000001 626.8100000000001 609.8700000000001 627.07 609.9600000000002C627.9100000000001 610.2300000000001 628.82 610.3800000000001 629.75 610.3800000000001C630.16 610.3800000000001 630.5 610.7200000000001 630.5 611.1300000000001L630.5 613.7500000000001C630.5 614.1600000000001 630.16 614.5000000000001 629.75 614.5000000000001C622.71 614.5000000000001 617 608.7900000000001 617 601.7500000000001C617 601.3400000000001 617.34 601.0000000000001 617.75 601.0000000000001L620.38 601.0000000000001C620.79 601.0000000000001 621.13 601.3400000000001 621.13 601.7500000000001C621.13 602.6900000000002 621.28 603.5900000000001 621.55 604.4300000000001C621.64 604.69 621.5799999999999 604.98 621.37 605.19Z " fill="#00a653" fill-opacity="1" transform="matrix(1,0,0,1,-617,-601)"></path></svg>