<svg id="SvgjsSvg1113" xmlns="http://www.w3.org/2000/svg" version="1.1" xmlns:xlink="http://www.w3.org/1999/xlink" xmlns:svgjs="http://svgjs.com/svgjs" width="48" height="48" viewBox="0 0 48 48"><title>Rectangle 4</title><desc>Created with Avocode.</desc><defs id="SvgjsDefs1114"><clipPath id="SvgjsClipPath1118"><path id="SvgjsPath1117" d="M1008 1534L1008 1486L1056 1486L1056 1534Z " fill="#ffffff"></path></clipPath><clipPath id="SvgjsClipPath1122"><path id="SvgjsPath1121" d="M1008 1522L1008 1486L1044 1486L1044 1522Z " fill="#ffffff"></path></clipPath><clipPath id="SvgjsClipPath1126"><path id="SvgjsPath1125" d="M1008 1510L1008 1486L1032 1486L1032 1510Z " fill="#ffffff"></path></clipPath></defs><path id="SvgjsPath1115" d="M1008 1534L1008 1486L1056 1486L1056 1534Z " fill="#ffffff" fill-opacity="1" transform="matrix(1,0,0,1,-1008,-1486)"></path><path id="SvgjsPath1116" d="M1008 1534L1008 1486L1056 1486L1056 1534Z " fill-opacity="0" fill="#ffffff" stroke-dasharray="0" stroke-linejoin="miter" stroke-linecap="butt" stroke-opacity="1" stroke="#3d454d" stroke-miterlimit="50" stroke-width="2" clip-path="url(&quot;#SvgjsClipPath1118&quot;)" transform="matrix(1,0,0,1,-1008,-1486)"></path><path id="SvgjsPath1119" d="M1008 1522L1008 1486L1044 1486L1044 1522Z " fill="#4dbf86" fill-opacity="1" transform="matrix(1,0,0,1,-1008,-1486)"></path><path id="SvgjsPath1120" d="M1008 1522L1008 1486L1044 1486L1044 1522Z " fill-opacity="0" fill="#ffffff" stroke-dasharray="0" stroke-linejoin="miter" stroke-linecap="butt" stroke-opacity="1" stroke="#3d454d" stroke-miterlimit="50" stroke-width="2" clip-path="url(&quot;#SvgjsClipPath1122&quot;)" transform="matrix(1,0,0,1,-1008,-1486)"></path><path id="SvgjsPath1123" d="M1008 1510L1008 1486L1032 1486L1032 1510Z " fill="#ff6f26" fill-opacity="1" transform="matrix(1,0,0,1,-1008,-1486)"></path><path id="SvgjsPath1124" d="M1008 1510L1008 1486L1032 1486L1032 1510Z " fill-opacity="0" fill="#ffffff" stroke-dasharray="0" stroke-linejoin="miter" stroke-linecap="butt" stroke-opacity="1" stroke="#3d454d" stroke-miterlimit="50" stroke-width="2" clip-path="url(&quot;#SvgjsClipPath1126&quot;)" transform="matrix(1,0,0,1,-1008,-1486)"></path></svg>