<svg id="SvgjsSvg1000" xmlns="http://www.w3.org/2000/svg" version="1.1" xmlns:xlink="http://www.w3.org/1999/xlink"
     xmlns:svgjs="http://svgjs.com/svgjs" width="48" height="48" viewBox="0 0 48 48">
  <title>ic</title>
  <desc>Created with Avocode.</desc>
  <defs id="SvgjsDefs1001">
    <clipPath id="SvgjsClipPath1010">
      <path id="SvgjsPath1009" d="M520 1534L520 1486L556 1486L556 1534Z " fill="#ffffff"></path>
    </clipPath>
    <clipPath id="SvgjsClipPath1014">
      <path id="SvgjsPath1013" d="M526 1497L526 1492L550 1492L550 1497Z " fill="#ffffff"></path>
    </clipPath>
    <clipPath id="SvgjsClipPath1018">
      <path id="SvgjsPath1017" d="M526 1504L526 1499L550 1499L550 1504Z " fill="#ffffff"></path>
    </clipPath>
    <clipPath id="SvgjsClipPath1022">
      <path id="SvgjsPath1021" d="M526 1511L526 1506L550 1506L550 1511Z " fill="#ffffff"></path>
    </clipPath>
    <clipPath id="SvgjsClipPath1026">
      <path id="SvgjsPath1025" d="M544 1534L544 1502L568 1502L568 1534Z " fill="#ffffff"></path>
    </clipPath>
    <clipPath id="SvgjsClipPath1030">
      <path id="SvgjsPath1029" d="M548 1510L548 1506L564 1506L564 1510Z " fill="#ffffff"></path>
    </clipPath>
    <clipPath id="SvgjsClipPath1034">
      <path id="SvgjsPath1033" d="M548 1515L548 1511L564 1511L564 1515Z " fill="#ffffff"></path>
    </clipPath>
    <clipPath id="SvgjsClipPath1038">
      <path id="SvgjsPath1037" d="M548 1520L548 1516L564 1516L564 1520Z " fill="#ffffff"></path>
    </clipPath>
  </defs>
  <path id="SvgjsPath1007" d="M520 1534L520 1486L556 1486L556 1534Z " fill="#ffffff" fill-opacity="1"
        transform="matrix(1,0,0,1,-520,-1486)"></path>
  <path id="SvgjsPath1008" d="M520 1534L520 1486L556 1486L556 1534Z " fill-opacity="0" fill="#ffffff"
        stroke-dasharray="0" stroke-linejoin="miter" stroke-linecap="butt" stroke-opacity="1" stroke="#3d454d"
        stroke-miterlimit="50" stroke-width="2" clip-path="url(&quot;#SvgjsClipPath1010&quot;)"
        transform="matrix(1,0,0,1,-520,-1486)"></path>
  <path id="SvgjsPath1011" d="M526 1497L526 1492L550 1492L550 1497Z " fill="#4dbf86" fill-opacity="1"
        transform="matrix(1,0,0,1,-520,-1486)"></path>
  <path id="SvgjsPath1012" d="M526 1497L526 1492L550 1492L550 1497Z " fill-opacity="0" fill="#ffffff"
        stroke-dasharray="0" stroke-linejoin="miter" stroke-linecap="butt" stroke-opacity="1" stroke="#3d454d"
        stroke-miterlimit="50" stroke-width="2" clip-path="url(&quot;#SvgjsClipPath1014&quot;)"
        transform="matrix(1,0,0,1,-520,-1486)"></path>
  <path id="SvgjsPath1015" d="M526 1504L526 1499L550 1499L550 1504Z " fill="#4dbf86" fill-opacity="1"
        transform="matrix(1,0,0,1,-520,-1486)"></path>
  <path id="SvgjsPath1016" d="M526 1504L526 1499L550 1499L550 1504Z " fill-opacity="0" fill="#ffffff"
        stroke-dasharray="0" stroke-linejoin="miter" stroke-linecap="butt" stroke-opacity="1" stroke="#3d454d"
        stroke-miterlimit="50" stroke-width="2" clip-path="url(&quot;#SvgjsClipPath1018&quot;)"
        transform="matrix(1,0,0,1,-520,-1486)"></path>
  <path id="SvgjsPath1019" d="M526 1511L526 1506L550 1506L550 1511Z " fill="#4dbf86" fill-opacity="1"
        transform="matrix(1,0,0,1,-520,-1486)"></path>
  <path id="SvgjsPath1020" d="M526 1511L526 1506L550 1506L550 1511Z " fill-opacity="0" fill="#ffffff"
        stroke-dasharray="0" stroke-linejoin="miter" stroke-linecap="butt" stroke-opacity="1" stroke="#3d454d"
        stroke-miterlimit="50" stroke-width="2" clip-path="url(&quot;#SvgjsClipPath1022&quot;)"
        transform="matrix(1,0,0,1,-520,-1486)"></path>
  <path id="SvgjsPath1023" d="M544 1534L544 1502L568 1502L568 1534Z " fill="#ffffff" fill-opacity="1"
        transform="matrix(1,0,0,1,-520,-1486)"></path>
  <path id="SvgjsPath1024" d="M544 1534L544 1502L568 1502L568 1534Z " fill-opacity="0" fill="#ffffff"
        stroke-dasharray="0" stroke-linejoin="miter" stroke-linecap="butt" stroke-opacity="1" stroke="#3d454d"
        stroke-miterlimit="50" stroke-width="2" clip-path="url(&quot;#SvgjsClipPath1026&quot;)"
        transform="matrix(1,0,0,1,-520,-1486)"></path>
  <path id="SvgjsPath1027" d="M548 1510L548 1506L564 1506L564 1510Z " fill="#ff6f26" fill-opacity="1"
        transform="matrix(1,0,0,1,-520,-1486)"></path>
  <path id="SvgjsPath1028" d="M548 1510L548 1506L564 1506L564 1510Z " fill-opacity="0" fill="#ffffff"
        stroke-dasharray="0" stroke-linejoin="miter" stroke-linecap="butt" stroke-opacity="1" stroke="#3d454d"
        stroke-miterlimit="50" stroke-width="2" clip-path="url(&quot;#SvgjsClipPath1030&quot;)"
        transform="matrix(1,0,0,1,-520,-1486)"></path>
  <path id="SvgjsPath1031" d="M548 1515L548 1511L564 1511L564 1515Z " fill="#ff6f26" fill-opacity="1"
        transform="matrix(1,0,0,1,-520,-1486)"></path>
  <path id="SvgjsPath1032" d="M548 1515L548 1511L564 1511L564 1515Z " fill-opacity="0" fill="#ffffff"
        stroke-dasharray="0" stroke-linejoin="miter" stroke-linecap="butt" stroke-opacity="1" stroke="#3d454d"
        stroke-miterlimit="50" stroke-width="2" clip-path="url(&quot;#SvgjsClipPath1034&quot;)"
        transform="matrix(1,0,0,1,-520,-1486)"></path>
  <path id="SvgjsPath1035" d="M548 1520L548 1516L564 1516L564 1520Z " fill="#ff6f26" fill-opacity="1"
        transform="matrix(1,0,0,1,-520,-1486)"></path>
  <path id="SvgjsPath1036" d="M548 1520L548 1516L564 1516L564 1520Z " fill-opacity="0" fill="#ffffff"
        stroke-dasharray="0" stroke-linejoin="miter" stroke-linecap="butt" stroke-opacity="1" stroke="#3d454d"
        stroke-miterlimit="50" stroke-width="2" clip-path="url(&quot;#SvgjsClipPath1038&quot;)"
        transform="matrix(1,0,0,1,-520,-1486)"></path>
</svg>
