<svg id="SvgjsSvg1488" xmlns="http://www.w3.org/2000/svg" version="1.1" xmlns:xlink="http://www.w3.org/1999/xlink"
     xmlns:svgjs="http://svgjs.com/svgjs" width="15" height="15" viewBox="0 0 15 15">
  <title>Shape</title>
  <desc>Created with Avocode.</desc>
  <defs id="SvgjsDefs1489"></defs>
  <path id="SvgjsPath1490"
        d="M627.5 732L627.5 730.5C627.5 729.67 626.83 729 626 729L623 729C622.17 729 621.5 729.67 621.5 730.5L621.5 732L618.5 732C617.67 732 617.01 732.67 617.01 733.5L617 741.75C617 742.58 617.67 743.25 618.5 743.25L630.5 743.25C631.33 743.25 632 742.58 632 741.75L632 733.5C632 732.67 631.33 732 630.5 732ZM623 732L623 730.5L626 730.5L626 732Z "
        fill="#00a653" fill-opacity="1" transform="matrix(1,0,0,1,-617,-729)"></path>
</svg>
