<?xml version="1.0" encoding="UTF-8" standalone="no"?>
<svg width="48px" height="48px" viewBox="0 0 48 48" version="1.1" xmlns="http://www.w3.org/2000/svg"
     xmlns:xlink="http://www.w3.org/1999/xlink">
  <!-- Generator: Sketch 41.1 (35376) - http://www.bohemiancoding.com/sketch -->
  <title>ic-025</title>
  <desc>Created with Sketch.</desc>
  <defs>
    <rect id="path-1" x="8" y="0" width="32" height="12"></rect>
    <mask id="mask-2" maskContentUnits="userSpaceOnUse" maskUnits="objectBoundingBox" x="0" y="0" width="32" height="12"
          fill="white">
      <use xlink:href="#path-1"></use>
    </mask>
    <rect id="path-3" x="8" y="36" width="32" height="12"></rect>
    <mask id="mask-4" maskContentUnits="userSpaceOnUse" maskUnits="objectBoundingBox" x="0" y="0" width="32" height="12"
          fill="white">
      <use xlink:href="#path-3"></use>
    </mask>
    <rect id="path-5" x="8" y="18" width="32" height="12"></rect>
    <mask id="mask-6" maskContentUnits="userSpaceOnUse" maskUnits="objectBoundingBox" x="0" y="0" width="32" height="12"
          fill="white">
      <use xlink:href="#path-5"></use>
    </mask>
  </defs>
  <g id="Desktop-Full-HD-1920" stroke="none" stroke-width="1" fill="none" fill-rule="evenodd">
    <g id="ic-025">
      <use id="Rectangle-Copy-7" stroke="#3D454D" mask="url(#mask-2)" stroke-width="2" fill="#FF6E26"
           xlink:href="#path-1"></use>
      <use id="Rectangle-Copy-8" stroke="#3D454D" mask="url(#mask-4)" stroke-width="2" fill="#FFFFFF"
           xlink:href="#path-3"></use>
      <use id="Rectangle-Copy-9" stroke="#3D454D" mask="url(#mask-6)" stroke-width="2" fill="#4CBF86"
           xlink:href="#path-5"></use>
      <rect id="Rectangle-15" fill="#3D454C" x="44" y="9" width="1" height="11"></rect>
      <rect id="Rectangle-15-Copy" fill="#3D454C" x="3" y="9" width="1" height="11"></rect>
      <rect id="Rectangle-14-Copy" fill="#3D454C" x="40" y="38" width="5" height="1"></rect>
      <rect id="Rectangle-14-Copy-7" fill="#3D454C" x="40" y="27" width="5" height="1"></rect>
      <rect id="Rectangle-14-Copy-6" fill="#3D454C" x="3" y="38" width="5" height="1"></rect>
      <rect id="Rectangle-14-Copy-5" fill="#3D454C" x="3" y="27" width="5" height="1"></rect>
      <rect id="Rectangle-15-Copy-3" fill="#3D454C" x="44" y="27" width="1" height="11"></rect>
      <rect id="Rectangle-15-Copy-2" fill="#3D454C" x="3" y="27" width="1" height="11"></rect>
      <rect id="Rectangle-14" fill="#3D454C" x="40" y="20" width="5" height="1"></rect>
      <rect id="Rectangle-14-Copy-2" fill="#3D454C" x="40" y="9" width="5" height="1"></rect>
      <rect id="Rectangle-14-Copy-4" fill="#3D454C" x="3" y="20" width="5" height="1"></rect>
      <rect id="Rectangle-14-Copy-3" fill="#3D454C" x="3" y="9" width="5" height="1"></rect>
      <polygon id="Rectangle-16" fill="#3D454C" points="48 13 44.5 17 41 13"></polygon>
      <polygon id="Rectangle-16-Copy" fill="#3D454C" points="48 31 44.5 35 41 31"></polygon>
      <polygon id="Rectangle-16-Copy-2" fill="#3D454C"
               transform="translate(3.500000, 33.000000) scale(1, -1) translate(-3.500000, -33.000000) "
               points="7 31 3.5 35 -5.96855898e-13 31"></polygon>
      <polygon id="Rectangle-16-Copy-3" fill="#3D454C"
               transform="translate(3.500000, 15.000000) scale(1, -1) translate(-3.500000, -15.000000) "
               points="7 13 3.5 17 -5.96855898e-13 13"></polygon>
    </g>
  </g>
</svg>
