<?xml version="1.0" encoding="UTF-8" standalone="no"?>
<svg width="48px" height="48px" viewBox="0 0 48 48" version="1.1" xmlns="http://www.w3.org/2000/svg" xmlns:xlink="http://www.w3.org/1999/xlink">
    <!-- Generator: Sketch 41.1 (35376) - http://www.bohemiancoding.com/sketch -->
    <title>ic-017</title>
    <desc>Created with Sketch.</desc>
    <defs>
        <rect id="path-1" x="0" y="0" width="48" height="48"></rect>
        <mask id="mask-2" maskContentUnits="userSpaceOnUse" maskUnits="objectBoundingBox" x="0" y="0" width="48" height="48" fill="white">
            <use xlink:href="#path-1"></use>
        </mask>
        <circle id="path-3" cx="24" cy="24" r="16"></circle>
        <mask id="mask-4" maskContentUnits="userSpaceOnUse" maskUnits="objectBoundingBox" x="0" y="0" width="32" height="32" fill="white">
            <use xlink:href="#path-3"></use>
        </mask>
        <circle id="path-5" cx="24" cy="24" r="8"></circle>
        <mask id="mask-6" maskContentUnits="userSpaceOnUse" maskUnits="objectBoundingBox" x="0" y="0" width="16" height="16" fill="white">
            <use xlink:href="#path-5"></use>
        </mask>
    </defs>
    <g id="Desktop-Full-HD-1920" stroke="none" stroke-width="1" fill="none" fill-rule="evenodd">
        <g id="003-Frontend-Desktop-Full-HD-1920-UI/UX-Design" transform="translate(-1008.000000, -1369.000000)">
            <g id="Main" transform="translate(0.000000, 906.000000)">
                <g id="Services" transform="translate(416.000000, 0.000000)">
                    <g id="List" transform="translate(0.000000, 262.000000)">
                        <g id="02-copy" transform="translate(592.000000, 201.000000)">
                            <g id="ic-017">
                                <use id="Rectangle-4" stroke="#3D454C" mask="url(#mask-2)" stroke-width="2" fill="#FFFFFF" xlink:href="#path-1"></use>
                                <use id="Oval-5" stroke="#3D454C" mask="url(#mask-4)" stroke-width="2" fill="#4CBF86" xlink:href="#path-3"></use>
                                <use id="Oval-5-Copy" stroke="#3D454C" mask="url(#mask-6)" stroke-width="2" fill="#FF6E26" xlink:href="#path-5"></use>
                                <g id="Group-3" transform="translate(8.000000, 7.000000)" fill="#3D454C">
                                    <rect id="Rectangle-10" x="0" y="0" width="1" height="4"></rect>
                                    <rect id="Rectangle-10-Copy" x="0" y="6" width="1" height="4"></rect>
                                    <rect id="Rectangle-10-Copy-2" x="0" y="12" width="1" height="4"></rect>
                                    <rect id="Rectangle-10-Copy-3" x="0" y="18" width="1" height="4"></rect>
                                    <rect id="Rectangle-10-Copy-4" x="0" y="24" width="1" height="4"></rect>
                                    <rect id="Rectangle-10-Copy-5" x="0" y="30" width="1" height="4"></rect>
                                </g>
                                <g id="Group-4" transform="translate(39.000000, 7.000000)" fill="#3D454C">
                                    <rect id="Rectangle-10-Copy-11" x="0" y="0" width="1" height="4"></rect>
                                    <rect id="Rectangle-10-Copy-10" x="0" y="6" width="1" height="4"></rect>
                                    <rect id="Rectangle-10-Copy-9" x="0" y="12" width="1" height="4"></rect>
                                    <rect id="Rectangle-10-Copy-8" x="0" y="18" width="1" height="4"></rect>
                                    <rect id="Rectangle-10-Copy-7" x="0" y="24" width="1" height="4"></rect>
                                    <rect id="Rectangle-10-Copy-6" x="0" y="30" width="1" height="4"></rect>
                                </g>
                                <g id="Group" transform="translate(24.000000, 8.500000) rotate(90.000000) translate(-24.000000, -8.500000) translate(23.500000, -8.500000)" fill="#3D454C">
                                    <rect id="Rectangle-10-Copy-17" x="0" y="0" width="1" height="4"></rect>
                                    <rect id="Rectangle-10-Copy-16" x="0" y="6" width="1" height="4"></rect>
                                    <rect id="Rectangle-10-Copy-15" x="0" y="12" width="1" height="4"></rect>
                                    <rect id="Rectangle-10-Copy-14" x="0" y="18" width="1" height="4"></rect>
                                    <rect id="Rectangle-10-Copy-13" x="0" y="24" width="1" height="4"></rect>
                                    <rect id="Rectangle-10-Copy-12" x="0" y="30" width="1" height="4"></rect>
                                </g>
                                <g id="Group-Copy" transform="translate(24.000000, 39.500000) rotate(90.000000) translate(-24.000000, -39.500000) translate(23.500000, 22.500000)" fill="#3D454C">
                                    <rect id="Rectangle-10-Copy-17" x="0" y="0" width="1" height="4"></rect>
                                    <rect id="Rectangle-10-Copy-16" x="0" y="6" width="1" height="4"></rect>
                                    <rect id="Rectangle-10-Copy-15" x="0" y="12" width="1" height="4"></rect>
                                    <rect id="Rectangle-10-Copy-14" x="0" y="18" width="1" height="4"></rect>
                                    <rect id="Rectangle-10-Copy-13" x="0" y="24" width="1" height="4"></rect>
                                    <rect id="Rectangle-10-Copy-12" x="0" y="30" width="1" height="4"></rect>
                                </g>
                            </g>
                        </g>
                    </g>
                </g>
            </g>
        </g>
    </g>
</svg>