<?xml version="1.0" encoding="UTF-8" standalone="no"?>
<svg width="48px" height="48px" viewBox="0 0 48 48" version="1.1" xmlns="http://www.w3.org/2000/svg"
     xmlns:xlink="http://www.w3.org/1999/xlink">
  <!-- Generator: Sketch 41.1 (35376) - http://www.bohemiancoding.com/sketch -->
  <title>ic-010</title>
  <desc>Created with Sketch.</desc>
  <defs>
    <path
      d="M15,29 C7.26776777,29 1,22.7322322 1,15 C1,7.26776777 7.26776777,1 15,1 C22.7287287,1 29,7.26776777 29,15 C29,22.7322322 22.7287287,29 15,29 Z"
      id="path-1"></path>
    <mask id="mask-2" maskContentUnits="userSpaceOnUse" maskUnits="objectBoundingBox" x="-1" y="-1" width="30"
          height="30">
      <rect x="0" y="0" width="30" height="30" fill="white"></rect>
      <use xlink:href="#path-1" fill="black"></use>
    </mask>
    <path
      d="M33,29 C25.2677678,29 19,22.7322322 19,15 C19,7.26776777 25.2677678,1 33,1 C40.7287287,1 47,7.26776777 47,15 C47,22.7322322 40.7287287,29 33,29 Z"
      id="path-3"></path>
    <mask id="mask-4" maskContentUnits="userSpaceOnUse" maskUnits="objectBoundingBox" x="-1" y="-1" width="30"
          height="30">
      <rect x="18" y="0" width="30" height="30" fill="white"></rect>
      <use xlink:href="#path-3" fill="black"></use>
    </mask>
    <path
      d="M23.999278,4.27621317 C27.0561995,6.84431625 29,10.6952004 29,15 C29,19.3047996 27.0561995,23.1556838 23.999278,25.7237868 C20.9427145,23.1556838 19,19.3047996 19,15 C19,10.6952004 20.9427145,6.84431625 23.999278,4.27621317 Z"
      id="path-5"></path>
    <mask id="mask-6" maskContentUnits="userSpaceOnUse" maskUnits="objectBoundingBox" x="-1" y="-1" width="12"
          height="23.4475737">
      <rect x="18" y="3.27621317" width="12" height="23.4475737" fill="white"></rect>
      <use xlink:href="#path-5" fill="black"></use>
    </mask>
    <path
      d="M24,47 C16.2677678,47 10,40.7322322 10,33 C10,25.2677678 16.2677678,19 24,19 C31.7287287,19 38,25.2677678 38,33 C38,40.7322322 31.7287287,47 24,47 Z"
      id="path-7"></path>
    <mask id="mask-8" maskContentUnits="userSpaceOnUse" maskUnits="objectBoundingBox" x="-1" y="-1" width="30"
          height="30">
      <rect x="9" y="18" width="30" height="30" fill="white"></rect>
      <use xlink:href="#path-7" fill="black"></use>
    </mask>
    <path
      d="M10.7887221,28.3555798 C12.1178457,28.7742488 13.5325495,29 15,29 C21.1013625,29 26.2944165,25.0938364 28.2108135,19.6446865 C26.8816764,19.2258469 25.4670965,19 24,19 C17.8957719,19 12.7042491,22.9062913 10.7887248,28.3555806 Z"
      id="path-9"></path>
    <mask id="mask-10" maskContentUnits="userSpaceOnUse" maskUnits="objectBoundingBox" x="-1" y="-1" width="19.4220913"
          height="12">
      <rect x="9.78872212" y="18" width="19.4220913" height="12" fill="white"></rect>
      <use xlink:href="#path-9" fill="black"></use>
    </mask>
    <path
      d="M19.7887248,19.6444194 C21.7042491,25.0937087 26.8957719,29 33,29 C34.4670965,29 35.8816764,28.7741531 37.2108135,28.3553135 C35.2944165,22.9061636 30.1013625,19 24,19 C22.5325504,19 21.1178476,19.2257509 19.7887248,19.6444194 Z"
      id="path-11"></path>
    <mask id="mask-12" maskContentUnits="userSpaceOnUse" maskUnits="objectBoundingBox" x="-1" y="-1" width="19.4220887"
          height="12">
      <rect x="18.7887248" y="18" width="19.4220887" height="12" fill="white"></rect>
      <use xlink:href="#path-11" fill="black"></use>
    </mask>
  </defs>
  <g id="Desktop-Full-HD-1920" stroke="none" stroke-width="1" fill="none" fill-rule="evenodd">
    <g id="002-Frontend-Desktop-Full-HD-1920-Mobile-Application-Development"
       transform="translate(-1008.000000, -1292.000000)">
      <g id="Main" transform="translate(0.000000, 906.000000)">
        <g id="Services" transform="translate(416.000000, 0.000000)">
          <g id="List" transform="translate(0.000000, 282.000000)">
            <g id="01-copy" transform="translate(592.000000, 104.000000)">
              <g id="ic-010">
                <rect id="placeholder" x="0" y="0" width="48" height="48"></rect>
                <use id="Fill-6-Copy" stroke="#3D454C" mask="url(#mask-2)" stroke-width="2" xlink:href="#path-1"></use>
                <use id="Fill-6-Copy-2" stroke="#3D454C" mask="url(#mask-4)" stroke-width="2"
                     xlink:href="#path-3"></use>
                <g id="Combined-Shape">
                  <use fill="#FF6E26" fill-rule="evenodd" xlink:href="#path-5"></use>
                  <use stroke="#3D454C" mask="url(#mask-6)" stroke-width="2" xlink:href="#path-5"></use>
                </g>
                <use id="Fill-6-Copy-3" stroke="#3D454C" mask="url(#mask-8)" stroke-width="2"
                     xlink:href="#path-7"></use>
                <g id="Combined-Shape">
                  <use fill="#4CBF86" fill-rule="evenodd" xlink:href="#path-9"></use>
                  <use stroke="#3D454C" mask="url(#mask-10)" stroke-width="2" xlink:href="#path-9"></use>
                </g>
                <g id="Combined-Shape">
                  <use fill="#FFFFFF" fill-rule="evenodd" xlink:href="#path-11"></use>
                  <use stroke="#3D454C" mask="url(#mask-12)" stroke-width="2" xlink:href="#path-11"></use>
                </g>
              </g>
            </g>
          </g>
        </g>
      </g>
    </g>
  </g>
</svg>
