<?xml version="1.0" encoding="UTF-8" standalone="no"?>
<svg width="48px" height="48px" viewBox="0 0 48 48" version="1.1" xmlns="http://www.w3.org/2000/svg" xmlns:xlink="http://www.w3.org/1999/xlink">
    <!-- Generator: Sketch 41.1 (35376) - http://www.bohemiancoding.com/sketch -->
    <title>ic-014</title>
    <desc>Created with Sketch.</desc>
    <defs>
        <polygon id="path-1" points="-7.28306304e-13 4 -7.28306304e-13 10 40 10 40 14 48 7 40 0 40 4"></polygon>
        <mask id="mask-2" maskContentUnits="userSpaceOnUse" maskUnits="objectBoundingBox" x="0" y="0" width="48" height="14" fill="white">
            <use xlink:href="#path-1"></use>
        </mask>
        <polygon id="path-3" points="-7.28306304e-13 21 -7.28306304e-13 27 40 27 40 31 48 24 40 17 40 21"></polygon>
        <mask id="mask-4" maskContentUnits="userSpaceOnUse" maskUnits="objectBoundingBox" x="0" y="0" width="48" height="14" fill="white">
            <use xlink:href="#path-3"></use>
        </mask>
        <polygon id="path-5" points="-7.28306304e-13 38 -7.28306304e-13 44 40 44 40 48 48 41 40 34 40 38"></polygon>
        <mask id="mask-6" maskContentUnits="userSpaceOnUse" maskUnits="objectBoundingBox" x="0" y="0" width="48" height="14" fill="white">
            <use xlink:href="#path-5"></use>
        </mask>
    </defs>
    <g id="Desktop-Full-HD-1920" stroke="none" stroke-width="1" fill="none" fill-rule="evenodd">
        <g id="002-Frontend-Desktop-Full-HD-1920-Mobile-Application-Development" transform="translate(-1008.000000, -1486.000000)" stroke-width="2" stroke="#3D454D">
            <g id="Main" transform="translate(0.000000, 906.000000)">
                <g id="Services" transform="translate(416.000000, 0.000000)">
                    <g id="List" transform="translate(0.000000, 282.000000)">
                        <g id="03-copy" transform="translate(592.000000, 298.000000)">
                            <g id="ic-014">
                                <use id="Combined-Shape-Copy-2" mask="url(#mask-2)" fill="#FF6E26" xlink:href="#path-1"></use>
                                <use id="Combined-Shape-Copy-3" mask="url(#mask-4)" fill="#4CBF86" xlink:href="#path-3"></use>
                                <use id="Combined-Shape-Copy-4" mask="url(#mask-6)" fill="#FFFFFF" xlink:href="#path-5"></use>
                            </g>
                        </g>
                    </g>
                </g>
            </g>
        </g>
    </g>
</svg>