<?xml version="1.0" encoding="UTF-8" standalone="no"?>
<svg width="48px" height="48px" viewBox="0 0 48 48" version="1.1" xmlns="http://www.w3.org/2000/svg"
     xmlns:xlink="http://www.w3.org/1999/xlink">
  <!-- Generator: Sketch 41.1 (35376) - http://www.bohemiancoding.com/sketch -->
  <title>ic-021</title>
  <desc>Created with Sketch.</desc>
  <defs>
    <path d="M25,37 L36,48 L36,36.5 L36,13 L0,13 L0,37 L25,37 Z" id="path-1"></path>
    <mask id="mask-2" maskContentUnits="userSpaceOnUse" maskUnits="objectBoundingBox" x="0" y="0" width="36" height="35"
          fill="white">
      <use xlink:href="#path-1"></use>
    </mask>
    <rect id="path-3" x="4" y="17" width="28" height="16"></rect>
    <mask id="mask-4" maskContentUnits="userSpaceOnUse" maskUnits="objectBoundingBox" x="0" y="0" width="28" height="16"
          fill="white">
      <use xlink:href="#path-3"></use>
    </mask>
    <path d="M37,24 L48,35 L48,23.5 L48,0 L12,0 L12,24 L37,24 Z" id="path-5"></path>
    <mask id="mask-6" maskContentUnits="userSpaceOnUse" maskUnits="objectBoundingBox" x="0" y="0" width="36" height="35"
          fill="white">
      <use xlink:href="#path-5"></use>
    </mask>
    <rect id="path-7" x="16" y="4" width="28" height="16"></rect>
    <mask id="mask-8" maskContentUnits="userSpaceOnUse" maskUnits="objectBoundingBox" x="0" y="0" width="28" height="16"
          fill="white">
      <use xlink:href="#path-7"></use>
    </mask>
  </defs>
  <g id="Desktop-Full-HD-1920" stroke="none" stroke-width="1" fill="none" fill-rule="evenodd">
    <g id="005-Frontend-Desktop-Full-HD-1920-About" transform="translate(-1008.000000, -1465.000000)">
      <g id="Main" transform="translate(0.000000, 906.000000)">
        <g id="Services" transform="translate(416.000000, 0.000000)">
          <g id="List" transform="translate(0.000000, 261.000000)">
            <g id="03-copy" transform="translate(592.000000, 298.000000)">
              <g id="ic-021">
                <use id="Combined-Shape-Copy-5" stroke="#3D454C" mask="url(#mask-2)" stroke-width="2" fill="#FFFFFF"
                     transform="translate(18.000000, 30.500000) scale(-1, 1) translate(-18.000000, -30.500000) "
                     xlink:href="#path-1"></use>
                <use id="Rectangle-13" stroke="#3D454C" mask="url(#mask-4)" stroke-width="2" fill="#FF6E26"
                     xlink:href="#path-3"></use>
                <rect id="Rectangle-12" fill="#3D454C" x="10" y="23" width="16" height="1"></rect>
                <rect id="Rectangle-12-Copy" fill="#3D454C" x="10" y="26" width="16" height="1"></rect>
                <use id="Combined-Shape" stroke="#3D454C" mask="url(#mask-6)" stroke-width="2" fill="#FFFFFF"
                     xlink:href="#path-5"></use>
                <use id="Rectangle-13" stroke="#3D454C" mask="url(#mask-8)" stroke-width="2" fill="#4CBF86"
                     xlink:href="#path-7"></use>
                <rect id="Rectangle-12" fill="#3D454C" x="22" y="10" width="16" height="1"></rect>
                <rect id="Rectangle-12-Copy" fill="#3D454C" x="22" y="13" width="16" height="1"></rect>
              </g>
            </g>
          </g>
        </g>
      </g>
    </g>
  </g>
</svg>
