<?xml version="1.0" encoding="UTF-8" standalone="no"?>
<svg width="48px" height="48px" viewBox="0 0 48 48" version="1.1" xmlns="http://www.w3.org/2000/svg" xmlns:xlink="http://www.w3.org/1999/xlink">
    <!-- Generator: Sketch 41.1 (35376) - http://www.bohemiancoding.com/sketch -->
    <title>ic-001</title>
    <desc>Created with Sketch.</desc>
    <defs>
        <rect id="path-1" x="0" y="0" width="48" height="48"></rect>
        <mask id="mask-2" maskContentUnits="userSpaceOnUse" maskUnits="objectBoundingBox" x="0" y="0" width="48" height="48" fill="white">
            <use xlink:href="#path-1"></use>
        </mask>
        <path d="M21,27 L21,21 L-3,21 L-3,45 L21,45 L21,39 C24.3137085,39 27,36.3137085 27,33 C27,29.6862915 24.3137085,27 21,27 Z" id="path-3"></path>
        <mask id="mask-4" maskContentUnits="userSpaceOnUse" maskUnits="objectBoundingBox" x="0" y="0" width="30" height="24" fill="white">
            <use xlink:href="#path-3"></use>
        </mask>
        <path d="M41,30.0829584 L41,24 L16,24 L16,48 L41,48 L41,41.9170416 C41.3252085,41.9716012 41.6592878,42 42,42 C45.3137085,42 48,39.3137085 48,36 C48,32.6862915 45.3137085,30 42,30 C41.6592878,30 41.3252085,30.0283988 41,30.0829584 Z" id="path-5"></path>
        <mask id="mask-6" maskContentUnits="userSpaceOnUse" maskUnits="objectBoundingBox" x="0" y="0" width="32" height="24" fill="white">
            <use xlink:href="#path-5"></use>
        </mask>
        <path d="M45,10.0224215 L45,3 L20,3 L20,28 L45,28 L45,20.9775785 C45.164681,20.9924187 45.3314552,21 45.5,21 C48.5375661,21 51,18.5375661 51,15.5 C51,12.4624339 48.5375661,10 45.5,10 C45.3314552,10 45.164681,10.0075813 45,10.0224215 Z" id="path-7"></path>
        <mask id="mask-8" maskContentUnits="userSpaceOnUse" maskUnits="objectBoundingBox" x="0" y="0" width="31" height="25" fill="white">
            <use xlink:href="#path-7"></use>
        </mask>
        <path d="M7.10001812,25 L0,25 L0,0 L24,0 L24,7.02242151 C24.164681,7.00758131 24.3314552,7 24.5,7 C27.5375661,7 30,9.46243388 30,12.5 C30,15.5375661 27.5375661,18 24.5,18 C24.3314552,18 24.164681,17.9924187 24,17.9775785 L24,25 L16.8999819,25 C16.9655697,24.6768901 17,24.3424658 17,24 C17,21.2385763 14.7614237,19 12,19 C9.23857625,19 7,21.2385763 7,24 C7,24.3424658 7.03443026,24.6768901 7.10001812,25 Z" id="path-9"></path>
        <mask id="mask-10" maskContentUnits="userSpaceOnUse" maskUnits="objectBoundingBox" x="0" y="0" width="30" height="25" fill="white">
            <use xlink:href="#path-9"></use>
        </mask>
    </defs>
    <g id="Desktop-Full-HD-1920" stroke="none" stroke-width="1" fill="none" fill-rule="evenodd">
        <g id="001-Frontend-Desktop-Full-HD-1920-Services-Software-Development" transform="translate(-520.000000, -1292.000000)" stroke-width="2" stroke="#3D454D">
            <g id="Main" transform="translate(0.000000, 906.000000)">
                <g id="Services" transform="translate(416.000000, 0.000000)">
                    <g id="List" transform="translate(0.000000, 282.000000)">
                        <g id="01" transform="translate(104.000000, 104.000000)">
                            <g id="ic-001">
                                <use id="Rectangle" mask="url(#mask-2)" fill="#FFFFFF" xlink:href="#path-1"></use>
                                <use id="Combined-Shape-Copy-5" mask="url(#mask-4)" fill="#4CBF86" transform="translate(12.000000, 33.000000) scale(1, -1) rotate(90.000000) translate(-12.000000, -33.000000) " xlink:href="#path-3"></use>
                                <use id="Combined-Shape-Copy-4" mask="url(#mask-6)" fill="#FFFFFF" transform="translate(32.000000, 36.000000) rotate(180.000000) translate(-32.000000, -36.000000) " xlink:href="#path-5"></use>
                                <use id="Combined-Shape-Copy-3" mask="url(#mask-8)" fill="#FF6E26" transform="translate(35.500000, 15.500000) rotate(90.000000) translate(-35.500000, -15.500000) " xlink:href="#path-7"></use>
                                <use id="Combined-Shape" mask="url(#mask-10)" fill="#FFFFFF" xlink:href="#path-9"></use>
                            </g>
                        </g>
                    </g>
                </g>
            </g>
        </g>
    </g>
</svg>