<?xml version="1.0" encoding="UTF-8" standalone="no"?>
<svg width="48px" height="48px" viewBox="0 0 48 48" version="1.1" xmlns="http://www.w3.org/2000/svg" xmlns:xlink="http://www.w3.org/1999/xlink">
    <!-- Generator: Sketch 41.1 (35376) - http://www.bohemiancoding.com/sketch -->
    <title>ic-026</title>
    <desc>Created with Sketch.</desc>
    <defs>
        <rect id="path-1" x="34.2781746" y="25.5710678" width="6" height="23.4142136"></rect>
        <mask id="mask-2" maskContentUnits="userSpaceOnUse" maskUnits="objectBoundingBox" x="0" y="0" width="6" height="23.4142136" fill="white">
            <use xlink:href="#path-1"></use>
        </mask>
        <rect id="path-3" x="40.7781746" y="41.263456" width="6" height="5.02943725"></rect>
        <mask id="mask-4" maskContentUnits="userSpaceOnUse" maskUnits="objectBoundingBox" x="0" y="0" width="6" height="5.02943725" fill="white">
            <use xlink:href="#path-3"></use>
        </mask>
        <rect id="path-5" x="34.7781746" y="35.263456" width="6" height="5.02943725"></rect>
        <mask id="mask-6" maskContentUnits="userSpaceOnUse" maskUnits="objectBoundingBox" x="0" y="0" width="6" height="5.02943725" fill="white">
            <use xlink:href="#path-5"></use>
        </mask>
        <path d="M18,36 C27.9411255,36 36,27.9411255 36,18 C36,8.0588745 27.9411255,0 18,0 C8.0588745,0 0,8.0588745 0,18 C0,27.9411255 8.0588745,36 18,36 Z M18,31 C25.1797017,31 31,25.1797017 31,18 C31,10.8202983 25.1797017,5 18,5 C10.8202983,5 5,10.8202983 5,18 C5,25.1797017 10.8202983,31 18,31 Z" id="path-7"></path>
        <mask id="mask-8" maskContentUnits="userSpaceOnUse" maskUnits="objectBoundingBox" x="0" y="0" width="36" height="36" fill="white">
            <use xlink:href="#path-7"></use>
        </mask>
    </defs>
    <g id="Desktop-Full-HD-1920" stroke="none" stroke-width="1" fill="none" fill-rule="evenodd">
        <g id="005-Frontend-Desktop-Full-HD-1920-About" transform="translate(-1008.000000, -4378.000000)">
            <g id="Main" transform="translate(0.000000, 906.000000)">
                <g id="Services-Copy" transform="translate(416.000000, 3087.000000)">
                    <g id="List" transform="translate(0.000000, 281.000000)">
                        <g id="02-copy-3" transform="translate(592.000000, 104.000000)">
                            <g id="ic">
                                <g id="ic-026">
                                    <use id="Rectangle-17" stroke="#3D454C" mask="url(#mask-2)" stroke-width="2" fill="#FFFFFF" transform="translate(37.278175, 37.278175) rotate(-45.000000) translate(-37.278175, -37.278175) " xlink:href="#path-1"></use>
                                    <use id="Rectangle-17-Copy" stroke="#3D454C" mask="url(#mask-4)" stroke-width="2" fill="#4CBF86" transform="translate(43.778175, 43.778175) rotate(-45.000000) translate(-43.778175, -43.778175) " xlink:href="#path-3"></use>
                                    <use id="Rectangle-17-Copy-2" stroke="#3D454C" mask="url(#mask-6)" stroke-width="2" fill="#FF6E26" transform="translate(37.778175, 37.778175) rotate(-45.000000) translate(-37.778175, -37.778175) " xlink:href="#path-5"></use>
                                    <use id="Combined-Shape" stroke="#3D454C" mask="url(#mask-8)" stroke-width="2" fill="#FFFFFF" xlink:href="#path-7"></use>
                                    <g id="Group-12" transform="translate(10.000000, 13.000000)" fill="#3D454C">
                                        <rect id="Rectangle-20" x="0" y="0" width="16" height="2"></rect>
                                        <rect id="Rectangle-20-Copy" x="0" y="4" width="16" height="2"></rect>
                                        <rect id="Rectangle-20-Copy-2" x="0" y="8" width="16" height="2"></rect>
                                        <rect id="Rectangle-21" x="28" y="0" width="10" height="1"></rect>
                                        <rect id="Rectangle-21-Copy" x="28" y="4" width="10" height="1"></rect>
                                        <rect id="Rectangle-21-Copy-2" x="28" y="8" width="10" height="1"></rect>
                                    </g>
                                </g>
                            </g>
                        </g>
                    </g>
                </g>
            </g>
        </g>
    </g>
</svg>