<svg id="SvgjsSvg1039" xmlns="http://www.w3.org/2000/svg" version="1.1" xmlns:xlink="http://www.w3.org/1999/xlink" xmlns:svgjs="http://svgjs.com/svgjs" width="48" height="48" viewBox="0 0 48 48"><title>Rectangle</title><desc>Created with Avocode.</desc><defs id="SvgjsDefs1040"><clipPath id="SvgjsClipPath1044"><path id="SvgjsPath1043" d="M1008 1437L1008 1389L1040 1389L1040 1437Z " fill="#ffffff"></path></clipPath><clipPath id="SvgjsClipPath1048"><path id="SvgjsPath1047" d="M1042 1437L1042 1389L1056 1389L1056 1437Z " fill="#ffffff"></path></clipPath><clipPath id="SvgjsClipPath1052"><path id="SvgjsPath1051" d="M1045 1433L1045 1397L1053 1397L1053 1433Z " fill="#ffffff"></path></clipPath><clipPath id="SvgjsClipPath1056"><path id="SvgjsPath1055" d="M1045 1403L1045 1393L1053 1393L1053 1403Z " fill="#ffffff"></path></clipPath><clipPath id="SvgjsClipPath1060"><path id="SvgjsPath1059" d="M1032 1397L1032 1393L1036 1393L1036 1397Z " fill="#ffffff"></path></clipPath><clipPath id="SvgjsClipPath1064"><path id="SvgjsPath1063" d="M1012 1397L1012 1393L1029 1393L1029 1397Z " fill="#ffffff"></path></clipPath><clipPath id="SvgjsClipPath1068"><path id="SvgjsPath1067" d="M1012 1403L1012 1399L1029 1399L1029 1403Z " fill="#ffffff"></path></clipPath><clipPath id="SvgjsClipPath1072"><path id="SvgjsPath1071" d="M1012 1409L1012 1405L1029 1405L1029 1409Z " fill="#ffffff"></path></clipPath><clipPath id="SvgjsClipPath1076"><path id="SvgjsPath1075" d="M1012 1415L1012 1411L1029 1411L1029 1415Z " fill="#ffffff"></path></clipPath><clipPath id="SvgjsClipPath1080"><path id="SvgjsPath1079" d="M1012 1421L1012 1417L1029 1417L1029 1421Z " fill="#ffffff"></path></clipPath><clipPath id="SvgjsClipPath1084"><path id="SvgjsPath1083" d="M1012 1427L1012 1423L1029 1423L1029 1427Z " fill="#ffffff"></path></clipPath><clipPath id="SvgjsClipPath1088"><path id="SvgjsPath1087" d="M1012 1433L1012 1429L1029 1429L1029 1433Z " fill="#ffffff"></path></clipPath><clipPath id="SvgjsClipPath1092"><path id="SvgjsPath1091" d="M1032 1403L1032 1399L1036 1399L1036 1403Z " fill="#ffffff"></path></clipPath><clipPath id="SvgjsClipPath1096"><path id="SvgjsPath1095" d="M1032 1409L1032 1405L1036 1405L1036 1409Z " fill="#ffffff"></path></clipPath><clipPath id="SvgjsClipPath1100"><path id="SvgjsPath1099" d="M1032 1415L1032 1411L1036 1411L1036 1415Z " fill="#ffffff"></path></clipPath><clipPath id="SvgjsClipPath1104"><path id="SvgjsPath1103" d="M1032 1421L1032 1417L1036 1417L1036 1421Z " fill="#ffffff"></path></clipPath><clipPath id="SvgjsClipPath1108"><path id="SvgjsPath1107" d="M1032 1433L1032 1429L1036 1429L1036 1433Z " fill="#ffffff"></path></clipPath><clipPath id="SvgjsClipPath1112"><path id="SvgjsPath1111" d="M1032 1427L1032 1423L1036 1423L1036 1427Z " fill="#ffffff"></path></clipPath></defs><path id="SvgjsPath1041" d="M1008 1437L1008 1389L1040 1389L1040 1437Z " fill="#ffffff" fill-opacity="1" transform="matrix(1,0,0,1,-1008,-1389)"></path><path id="SvgjsPath1042" d="M1008 1437L1008 1389L1040 1389L1040 1437Z " fill-opacity="0" fill="#ffffff" stroke-dasharray="0" stroke-linejoin="miter" stroke-linecap="butt" stroke-opacity="1" stroke="#3d454d" stroke-miterlimit="50" stroke-width="2" clip-path="url(&quot;#SvgjsClipPath1044&quot;)" transform="matrix(1,0,0,1,-1008,-1389)"></path><path id="SvgjsPath1045" d="M1042 1437L1042 1389L1056 1389L1056 1437Z " fill="#ffffff" fill-opacity="1" transform="matrix(1,0,0,1,-1008,-1389)"></path><path id="SvgjsPath1046" d="M1042 1437L1042 1389L1056 1389L1056 1437Z " fill-opacity="0" fill="#ffffff" stroke-dasharray="0" stroke-linejoin="miter" stroke-linecap="butt" stroke-opacity="1" stroke="#3d454d" stroke-miterlimit="50" stroke-width="2" clip-path="url(&quot;#SvgjsClipPath1048&quot;)" transform="matrix(1,0,0,1,-1008,-1389)"></path><path id="SvgjsPath1049" d="M1045 1433L1045 1397L1053 1397L1053 1433Z " fill="#4dbf86" fill-opacity="1" transform="matrix(1,0,0,1,-1008,-1389)"></path><path id="SvgjsPath1050" d="M1045 1433L1045 1397L1053 1397L1053 1433Z " fill-opacity="0" fill="#ffffff" stroke-dasharray="0" stroke-linejoin="miter" stroke-linecap="butt" stroke-opacity="1" stroke="#3d454d" stroke-miterlimit="50" stroke-width="2" clip-path="url(&quot;#SvgjsClipPath1052&quot;)" transform="matrix(1,0,0,1,-1008,-1389)"></path><path id="SvgjsPath1053" d="M1045 1403L1045 1393L1053 1393L1053 1403Z " fill="#ff6f26" fill-opacity="1" transform="matrix(1,0,0,1,-1008,-1389)"></path><path id="SvgjsPath1054" d="M1045 1403L1045 1393L1053 1393L1053 1403Z " fill-opacity="0" fill="#ffffff" stroke-dasharray="0" stroke-linejoin="miter" stroke-linecap="butt" stroke-opacity="1" stroke="#3d454d" stroke-miterlimit="50" stroke-width="2" clip-path="url(&quot;#SvgjsClipPath1056&quot;)" transform="matrix(1,0,0,1,-1008,-1389)"></path><path id="SvgjsPath1057" d="M1032 1397L1032 1393L1036 1393L1036 1397Z " fill="#4dbf86" fill-opacity="1" transform="matrix(1,0,0,1,-1008,-1389)"></path><path id="SvgjsPath1058" d="M1032 1397L1032 1393L1036 1393L1036 1397Z " fill-opacity="0" fill="#ffffff" stroke-dasharray="0" stroke-linejoin="miter" stroke-linecap="butt" stroke-opacity="1" stroke="#3d454d" stroke-miterlimit="50" stroke-width="2" clip-path="url(&quot;#SvgjsClipPath1060&quot;)" transform="matrix(1,0,0,1,-1008,-1389)"></path><path id="SvgjsPath1061" d="M1012 1397L1012 1393L1029 1393L1029 1397Z " fill="#ffffff" fill-opacity="1" transform="matrix(1,0,0,1,-1008,-1389)"></path><path id="SvgjsPath1062" d="M1012 1397L1012 1393L1029 1393L1029 1397Z " fill-opacity="0" fill="#ffffff" stroke-dasharray="0" stroke-linejoin="miter" stroke-linecap="butt" stroke-opacity="1" stroke="#3d454d" stroke-miterlimit="50" stroke-width="2" clip-path="url(&quot;#SvgjsClipPath1064&quot;)" transform="matrix(1,0,0,1,-1008,-1389)"></path><path id="SvgjsPath1065" d="M1012 1403L1012 1399L1029 1399L1029 1403Z " fill="#ffffff" fill-opacity="1" transform="matrix(1,0,0,1,-1008,-1389)"></path><path id="SvgjsPath1066" d="M1012 1403L1012 1399L1029 1399L1029 1403Z " fill-opacity="0" fill="#ffffff" stroke-dasharray="0" stroke-linejoin="miter" stroke-linecap="butt" stroke-opacity="1" stroke="#3d454d" stroke-miterlimit="50" stroke-width="2" clip-path="url(&quot;#SvgjsClipPath1068&quot;)" transform="matrix(1,0,0,1,-1008,-1389)"></path><path id="SvgjsPath1069" d="M1012 1409L1012 1405L1029 1405L1029 1409Z " fill="#ffffff" fill-opacity="1" transform="matrix(1,0,0,1,-1008,-1389)"></path><path id="SvgjsPath1070" d="M1012 1409L1012 1405L1029 1405L1029 1409Z " fill-opacity="0" fill="#ffffff" stroke-dasharray="0" stroke-linejoin="miter" stroke-linecap="butt" stroke-opacity="1" stroke="#3d454d" stroke-miterlimit="50" stroke-width="2" clip-path="url(&quot;#SvgjsClipPath1072&quot;)" transform="matrix(1,0,0,1,-1008,-1389)"></path><path id="SvgjsPath1073" d="M1012 1415L1012 1411L1029 1411L1029 1415Z " fill="#ffffff" fill-opacity="1" transform="matrix(1,0,0,1,-1008,-1389)"></path><path id="SvgjsPath1074" d="M1012 1415L1012 1411L1029 1411L1029 1415Z " fill-opacity="0" fill="#ffffff" stroke-dasharray="0" stroke-linejoin="miter" stroke-linecap="butt" stroke-opacity="1" stroke="#3d454d" stroke-miterlimit="50" stroke-width="2" clip-path="url(&quot;#SvgjsClipPath1076&quot;)" transform="matrix(1,0,0,1,-1008,-1389)"></path><path id="SvgjsPath1077" d="M1012 1421L1012 1417L1029 1417L1029 1421Z " fill="#ffffff" fill-opacity="1" transform="matrix(1,0,0,1,-1008,-1389)"></path><path id="SvgjsPath1078" d="M1012 1421L1012 1417L1029 1417L1029 1421Z " fill-opacity="0" fill="#ffffff" stroke-dasharray="0" stroke-linejoin="miter" stroke-linecap="butt" stroke-opacity="1" stroke="#3d454d" stroke-miterlimit="50" stroke-width="2" clip-path="url(&quot;#SvgjsClipPath1080&quot;)" transform="matrix(1,0,0,1,-1008,-1389)"></path><path id="SvgjsPath1081" d="M1012 1427L1012 1423L1029 1423L1029 1427Z " fill="#ffffff" fill-opacity="1" transform="matrix(1,0,0,1,-1008,-1389)"></path><path id="SvgjsPath1082" d="M1012 1427L1012 1423L1029 1423L1029 1427Z " fill-opacity="0" fill="#ffffff" stroke-dasharray="0" stroke-linejoin="miter" stroke-linecap="butt" stroke-opacity="1" stroke="#3d454d" stroke-miterlimit="50" stroke-width="2" clip-path="url(&quot;#SvgjsClipPath1084&quot;)" transform="matrix(1,0,0,1,-1008,-1389)"></path><path id="SvgjsPath1085" d="M1012 1433L1012 1429L1029 1429L1029 1433Z " fill="#ffffff" fill-opacity="1" transform="matrix(1,0,0,1,-1008,-1389)"></path><path id="SvgjsPath1086" d="M1012 1433L1012 1429L1029 1429L1029 1433Z " fill-opacity="0" fill="#ffffff" stroke-dasharray="0" stroke-linejoin="miter" stroke-linecap="butt" stroke-opacity="1" stroke="#3d454d" stroke-miterlimit="50" stroke-width="2" clip-path="url(&quot;#SvgjsClipPath1088&quot;)" transform="matrix(1,0,0,1,-1008,-1389)"></path><path id="SvgjsPath1089" d="M1032 1403L1032 1399L1036 1399L1036 1403Z " fill="#ff6f26" fill-opacity="1" transform="matrix(1,0,0,1,-1008,-1389)"></path><path id="SvgjsPath1090" d="M1032 1403L1032 1399L1036 1399L1036 1403Z " fill-opacity="0" fill="#ffffff" stroke-dasharray="0" stroke-linejoin="miter" stroke-linecap="butt" stroke-opacity="1" stroke="#3d454d" stroke-miterlimit="50" stroke-width="2" clip-path="url(&quot;#SvgjsClipPath1092&quot;)" transform="matrix(1,0,0,1,-1008,-1389)"></path><path id="SvgjsPath1093" d="M1032 1409L1032 1405L1036 1405L1036 1409Z " fill="#4dbf86" fill-opacity="1" transform="matrix(1,0,0,1,-1008,-1389)"></path><path id="SvgjsPath1094" d="M1032 1409L1032 1405L1036 1405L1036 1409Z " fill-opacity="0" fill="#ffffff" stroke-dasharray="0" stroke-linejoin="miter" stroke-linecap="butt" stroke-opacity="1" stroke="#3d454d" stroke-miterlimit="50" stroke-width="2" clip-path="url(&quot;#SvgjsClipPath1096&quot;)" transform="matrix(1,0,0,1,-1008,-1389)"></path><path id="SvgjsPath1097" d="M1032 1415L1032 1411L1036 1411L1036 1415Z " fill="#ff6f26" fill-opacity="1" transform="matrix(1,0,0,1,-1008,-1389)"></path><path id="SvgjsPath1098" d="M1032 1415L1032 1411L1036 1411L1036 1415Z " fill-opacity="0" fill="#ffffff" stroke-dasharray="0" stroke-linejoin="miter" stroke-linecap="butt" stroke-opacity="1" stroke="#3d454d" stroke-miterlimit="50" stroke-width="2" clip-path="url(&quot;#SvgjsClipPath1100&quot;)" transform="matrix(1,0,0,1,-1008,-1389)"></path><path id="SvgjsPath1101" d="M1032 1421L1032 1417L1036 1417L1036 1421Z " fill="#4dbf86" fill-opacity="1" transform="matrix(1,0,0,1,-1008,-1389)"></path><path id="SvgjsPath1102" d="M1032 1421L1032 1417L1036 1417L1036 1421Z " fill-opacity="0" fill="#ffffff" stroke-dasharray="0" stroke-linejoin="miter" stroke-linecap="butt" stroke-opacity="1" stroke="#3d454d" stroke-miterlimit="50" stroke-width="2" clip-path="url(&quot;#SvgjsClipPath1104&quot;)" transform="matrix(1,0,0,1,-1008,-1389)"></path><path id="SvgjsPath1105" d="M1032 1433L1032 1429L1036 1429L1036 1433Z " fill="#4dbf86" fill-opacity="1" transform="matrix(1,0,0,1,-1008,-1389)"></path><path id="SvgjsPath1106" d="M1032 1433L1032 1429L1036 1429L1036 1433Z " fill-opacity="0" fill="#ffffff" stroke-dasharray="0" stroke-linejoin="miter" stroke-linecap="butt" stroke-opacity="1" stroke="#3d454d" stroke-miterlimit="50" stroke-width="2" clip-path="url(&quot;#SvgjsClipPath1108&quot;)" transform="matrix(1,0,0,1,-1008,-1389)"></path><path id="SvgjsPath1109" d="M1032 1427L1032 1423L1036 1423L1036 1427Z " fill="#ff6f26" fill-opacity="1" transform="matrix(1,0,0,1,-1008,-1389)"></path><path id="SvgjsPath1110" d="M1032 1427L1032 1423L1036 1423L1036 1427Z " fill-opacity="0" fill="#ffffff" stroke-dasharray="0" stroke-linejoin="miter" stroke-linecap="butt" stroke-opacity="1" stroke="#3d454d" stroke-miterlimit="50" stroke-width="2" clip-path="url(&quot;#SvgjsClipPath1112&quot;)" transform="matrix(1,0,0,1,-1008,-1389)"></path></svg>