<svg id="SvgjsSvg1024" xmlns="http://www.w3.org/2000/svg" version="1.1" xmlns:xlink="http://www.w3.org/1999/xlink"
     xmlns:svgjs="http://svgjs.com/svgjs" width="48" height="48" viewBox="0 0 48 48">
  <title>ic</title>
  <desc>Created with Avocode.</desc>
  <defs id="SvgjsDefs1025">
    <clipPath id="SvgjsClipPath1029">
      <path id="SvgjsPath1028" d="M416 680L416 632L452 632L452 680Z " fill="#ffffff"></path>
    </clipPath>
    <clipPath id="SvgjsClipPath1033">
      <path id="SvgjsPath1032" d="M422 643L422 638L446 638L446 643Z " fill="#ffffff"></path>
    </clipPath>
    <clipPath id="SvgjsClipPath1037">
      <path id="SvgjsPath1036" d="M422 650L422 645L446 645L446 650Z " fill="#ffffff"></path>
    </clipPath>
    <clipPath id="SvgjsClipPath1041">
      <path id="SvgjsPath1040" d="M422 657L422 652L438 652L438 657Z " fill="#ffffff"></path>
    </clipPath>
    <clipPath id="SvgjsClipPath1045">
      <path id="SvgjsPath1044" d="M422 664L422 659L438 659L438 664Z " fill="#ffffff"></path>
    </clipPath>
    <clipPath id="SvgjsClipPath1049">
      <path id="SvgjsPath1048" d="M450 650L454 650L456 658L448 658Z " fill="#ffffff"></path>
    </clipPath>
    <clipPath id="SvgjsClipPath1053">
      <path id="SvgjsPath1052" d="M450 674L454 674L456 666L448 666Z " fill="#ffffff"></path>
    </clipPath>
    <clipPath id="SvgjsClipPath1057">
      <path id="SvgjsPath1056"
            d="M459.07107 652.10051L461.89950000000005 654.92894L457.65686000000005 662.00001L452.00001000000003 656.34316Z "
            fill="#ffffff"></path>
    </clipPath>
    <clipPath id="SvgjsClipPath1061">
      <path id="SvgjsPath1060"
            d="M442.10051 669.07107L444.92894 671.8995L452.00001000000003 667.6568599999999L446.34316 662.00001Z "
            fill="#ffffff"></path>
    </clipPath>
    <clipPath id="SvgjsClipPath1065">
      <path id="SvgjsPath1064" d="M464 660L464 664L456 666L456 658Z " fill="#ffffff"></path>
    </clipPath>
    <clipPath id="SvgjsClipPath1069">
      <path id="SvgjsPath1068" d="M440 660L440 664L448 666L448 658Z " fill="#ffffff"></path>
    </clipPath>
    <clipPath id="SvgjsClipPath1073">
      <path id="SvgjsPath1072"
            d="M461.89949 669.07107L459.07106 671.8995L451.99998999999997 667.6568599999999L457.65684 662.00001Z "
            fill="#ffffff"></path>
    </clipPath>
    <clipPath id="SvgjsClipPath1077">
      <path id="SvgjsPath1076"
            d="M444.92893 652.10051L442.10049999999995 654.92894L446.34313999999995 662.00001L451.99998999999997 656.34316Z "
            fill="#ffffff"></path>
    </clipPath>
    <clipPath id="SvgjsClipPath1081">
      <path id="SvgjsPath1080"
            d="M445 662C445 658.13401 448.13401 655 452 655C455.86599 655 459 658.13401 459 662C459 665.86599 455.86599 669 452 669C448.13401 669 445 665.86599 445 662Z "
            fill="#ffffff"></path>
    </clipPath>
    <clipPath id="SvgjsClipPath1085">
      <path id="SvgjsPath1084"
            d="M449 662C449 660.34315 450.34315 659 452 659C453.65685 659 455 660.34315 455 662C455 663.65685 453.65685 665 452 665C450.34315 665 449 663.65685 449 662Z "
            fill="#ffffff"></path>
    </clipPath>
  </defs>
  <path id="SvgjsPath1026" d="M416 680L416 632L452 632L452 680Z " fill="#ffffff" fill-opacity="1"
        transform="matrix(1,0,0,1,-416,-632)"></path>
  <path id="SvgjsPath1027" d="M416 680L416 632L452 632L452 680Z " fill-opacity="0" fill="#ffffff" stroke-dasharray="0"
        stroke-linejoin="miter" stroke-linecap="butt" stroke-opacity="1" stroke="#3d454d" stroke-miterlimit="50"
        stroke-width="2" clip-path="url(&quot;#SvgjsClipPath1029&quot;)" transform="matrix(1,0,0,1,-416,-632)"></path>
  <path id="SvgjsPath1030" d="M422 643L422 638L446 638L446 643Z " fill="#4dbf86" fill-opacity="1"
        transform="matrix(1,0,0,1,-416,-632)"></path>
  <path id="SvgjsPath1031" d="M422 643L422 638L446 638L446 643Z " fill-opacity="0" fill="#ffffff" stroke-dasharray="0"
        stroke-linejoin="miter" stroke-linecap="butt" stroke-opacity="1" stroke="#3d454d" stroke-miterlimit="50"
        stroke-width="2" clip-path="url(&quot;#SvgjsClipPath1033&quot;)" transform="matrix(1,0,0,1,-416,-632)"></path>
  <path id="SvgjsPath1034" d="M422 650L422 645L446 645L446 650Z " fill="#4dbf86" fill-opacity="1"
        transform="matrix(1,0,0,1,-416,-632)"></path>
  <path id="SvgjsPath1035" d="M422 650L422 645L446 645L446 650Z " fill-opacity="0" fill="#ffffff" stroke-dasharray="0"
        stroke-linejoin="miter" stroke-linecap="butt" stroke-opacity="1" stroke="#3d454d" stroke-miterlimit="50"
        stroke-width="2" clip-path="url(&quot;#SvgjsClipPath1037&quot;)" transform="matrix(1,0,0,1,-416,-632)"></path>
  <path id="SvgjsPath1038" d="M422 657L422 652L438 652L438 657Z " fill="#4dbf86" fill-opacity="1"
        transform="matrix(1,0,0,1,-416,-632)"></path>
  <path id="SvgjsPath1039" d="M422 657L422 652L438 652L438 657Z " fill-opacity="0" fill="#ffffff" stroke-dasharray="0"
        stroke-linejoin="miter" stroke-linecap="butt" stroke-opacity="1" stroke="#3d454d" stroke-miterlimit="50"
        stroke-width="2" clip-path="url(&quot;#SvgjsClipPath1041&quot;)" transform="matrix(1,0,0,1,-416,-632)"></path>
  <path id="SvgjsPath1042" d="M422 664L422 659L438 659L438 664Z " fill="#4dbf86" fill-opacity="1"
        transform="matrix(1,0,0,1,-416,-632)"></path>
  <path id="SvgjsPath1043" d="M422 664L422 659L438 659L438 664Z " fill-opacity="0" fill="#ffffff" stroke-dasharray="0"
        stroke-linejoin="miter" stroke-linecap="butt" stroke-opacity="1" stroke="#3d454d" stroke-miterlimit="50"
        stroke-width="2" clip-path="url(&quot;#SvgjsClipPath1045&quot;)" transform="matrix(1,0,0,1,-416,-632)"></path>
  <path id="SvgjsPath1046" d="M450 650L454 650L456 658L448 658Z " fill="#ff6f26" fill-opacity="1"
        transform="matrix(1,0,0,1,-416,-632)"></path>
  <path id="SvgjsPath1047" d="M450 650L454 650L456 658L448 658Z " fill-opacity="0" fill="#ffffff" stroke-dasharray="0"
        stroke-linejoin="miter" stroke-linecap="butt" stroke-opacity="1" stroke="#3d454d" stroke-miterlimit="50"
        stroke-width="2" clip-path="url(&quot;#SvgjsClipPath1049&quot;)" transform="matrix(1,0,0,1,-416,-632)"></path>
  <path id="SvgjsPath1050" d="M450 674L454 674L456 666L448 666Z " fill="#ff6f26" fill-opacity="1"
        transform="matrix(1,0,0,1,-416,-632)"></path>
  <path id="SvgjsPath1051" d="M450 674L454 674L456 666L448 666Z " fill-opacity="0" fill="#ffffff" stroke-dasharray="0"
        stroke-linejoin="miter" stroke-linecap="butt" stroke-opacity="1" stroke="#3d454d" stroke-miterlimit="50"
        stroke-width="2" clip-path="url(&quot;#SvgjsClipPath1053&quot;)" transform="matrix(1,0,0,1,-416,-632)"></path>
  <path id="SvgjsPath1054"
        d="M459.07107 652.10051L461.89950000000005 654.92894L457.65686000000005 662.00001L452.00001000000003 656.34316Z "
        fill="#ff6f26" fill-opacity="1" transform="matrix(1,0,0,1,-416,-632)"></path>
  <path id="SvgjsPath1055"
        d="M459.07107 652.10051L461.89950000000005 654.92894L457.65686000000005 662.00001L452.00001000000003 656.34316Z "
        fill-opacity="0" fill="#ffffff" stroke-dasharray="0" stroke-linejoin="miter" stroke-linecap="butt"
        stroke-opacity="1" stroke="#3d454d" stroke-miterlimit="50" stroke-width="2"
        clip-path="url(&quot;#SvgjsClipPath1057&quot;)" transform="matrix(1,0,0,1,-416,-632)"></path>
  <path id="SvgjsPath1058"
        d="M442.10051 669.07107L444.92894 671.8995L452.00001000000003 667.6568599999999L446.34316 662.00001Z "
        fill="#ff6f26" fill-opacity="1" transform="matrix(1,0,0,1,-416,-632)"></path>
  <path id="SvgjsPath1059"
        d="M442.10051 669.07107L444.92894 671.8995L452.00001000000003 667.6568599999999L446.34316 662.00001Z "
        fill-opacity="0" fill="#ffffff" stroke-dasharray="0" stroke-linejoin="miter" stroke-linecap="butt"
        stroke-opacity="1" stroke="#3d454d" stroke-miterlimit="50" stroke-width="2"
        clip-path="url(&quot;#SvgjsClipPath1061&quot;)" transform="matrix(1,0,0,1,-416,-632)"></path>
  <path id="SvgjsPath1062" d="M464 660L464 664L456 666L456 658Z " fill="#ff6619" fill-opacity="1"
        transform="matrix(1,0,0,1,-416,-632)"></path>
  <path id="SvgjsPath1063" d="M464 660L464 664L456 666L456 658Z " fill-opacity="0" fill="#ffffff" stroke-dasharray="0"
        stroke-linejoin="miter" stroke-linecap="butt" stroke-opacity="1" stroke="#3d454d" stroke-miterlimit="50"
        stroke-width="2" clip-path="url(&quot;#SvgjsClipPath1065&quot;)" transform="matrix(1,0,0,1,-416,-632)"></path>
  <path id="SvgjsPath1066" d="M440 660L440 664L448 666L448 658Z " fill="#ff6f26" fill-opacity="1"
        transform="matrix(1,0,0,1,-416,-632)"></path>
  <path id="SvgjsPath1067" d="M440 660L440 664L448 666L448 658Z " fill-opacity="0" fill="#ffffff" stroke-dasharray="0"
        stroke-linejoin="miter" stroke-linecap="butt" stroke-opacity="1" stroke="#3d454d" stroke-miterlimit="50"
        stroke-width="2" clip-path="url(&quot;#SvgjsClipPath1069&quot;)" transform="matrix(1,0,0,1,-416,-632)"></path>
  <path id="SvgjsPath1070"
        d="M461.89949 669.07107L459.07106 671.8995L451.99998999999997 667.6568599999999L457.65684 662.00001Z "
        fill="#ff6f26" fill-opacity="1" transform="matrix(1,0,0,1,-416,-632)"></path>
  <path id="SvgjsPath1071"
        d="M461.89949 669.07107L459.07106 671.8995L451.99998999999997 667.6568599999999L457.65684 662.00001Z "
        fill-opacity="0" fill="#ffffff" stroke-dasharray="0" stroke-linejoin="miter" stroke-linecap="butt"
        stroke-opacity="1" stroke="#3d454d" stroke-miterlimit="50" stroke-width="2"
        clip-path="url(&quot;#SvgjsClipPath1073&quot;)" transform="matrix(1,0,0,1,-416,-632)"></path>
  <path id="SvgjsPath1074"
        d="M444.92893 652.10051L442.10049999999995 654.92894L446.34313999999995 662.00001L451.99998999999997 656.34316Z "
        fill="#ff6f26" fill-opacity="1" transform="matrix(1,0,0,1,-416,-632)"></path>
  <path id="SvgjsPath1075"
        d="M444.92893 652.10051L442.10049999999995 654.92894L446.34313999999995 662.00001L451.99998999999997 656.34316Z "
        fill-opacity="0" fill="#ffffff" stroke-dasharray="0" stroke-linejoin="miter" stroke-linecap="butt"
        stroke-opacity="1" stroke="#3d454d" stroke-miterlimit="50" stroke-width="2"
        clip-path="url(&quot;#SvgjsClipPath1077&quot;)" transform="matrix(1,0,0,1,-416,-632)"></path>
  <path id="SvgjsPath1078"
        d="M445 662C445 658.13401 448.13401 655 452 655C455.86599 655 459 658.13401 459 662C459 665.86599 455.86599 669 452 669C448.13401 669 445 665.86599 445 662Z "
        fill="#ff6f26" fill-opacity="1" transform="matrix(1,0,0,1,-416,-632)"></path>
  <path id="SvgjsPath1079"
        d="M445 662C445 658.13401 448.13401 655 452 655C455.86599 655 459 658.13401 459 662C459 665.86599 455.86599 669 452 669C448.13401 669 445 665.86599 445 662Z "
        fill-opacity="0" fill="#ffffff" stroke-dasharray="0" stroke-linejoin="miter" stroke-linecap="butt"
        stroke-opacity="1" stroke="#3d454d" stroke-miterlimit="50" stroke-width="2"
        clip-path="url(&quot;#SvgjsClipPath1081&quot;)" transform="matrix(1,0,0,1,-416,-632)"></path>
  <path id="SvgjsPath1082"
        d="M449 662C449 660.34315 450.34315 659 452 659C453.65685 659 455 660.34315 455 662C455 663.65685 453.65685 665 452 665C450.34315 665 449 663.65685 449 662Z "
        fill="#ffffff" fill-opacity="1" transform="matrix(1,0,0,1,-416,-632)"></path>
  <path id="SvgjsPath1083"
        d="M449 662C449 660.34315 450.34315 659 452 659C453.65685 659 455 660.34315 455 662C455 663.65685 453.65685 665 452 665C450.34315 665 449 663.65685 449 662Z "
        fill-opacity="0" fill="#ffffff" stroke-dasharray="0" stroke-linejoin="miter" stroke-linecap="butt"
        stroke-opacity="1" stroke="#3d454d" stroke-miterlimit="50" stroke-width="2"
        clip-path="url(&quot;#SvgjsClipPath1085&quot;)" transform="matrix(1,0,0,1,-416,-632)"></path>
</svg>
