<?xml version="1.0" encoding="UTF-8" standalone="no"?>
<svg width="38px" height="48px" viewBox="0 0 38 48" version="1.1" xmlns="http://www.w3.org/2000/svg" xmlns:xlink="http://www.w3.org/1999/xlink">
    <!-- Generator: Sketch 41.1 (35376) - http://www.bohemiancoding.com/sketch -->
    <title>ic-009</title>
    <desc>Created with Sketch.</desc>
    <defs>
        <path d="M31.9529065,0 C29.7198598,0.0887858968 27.0146832,1.45210579 25.4108595,3.28231226 C23.974337,4.90424528 22.7158911,7.49618497 23.0561649,9.98329644 C25.5461183,10.1713787 28.0913662,8.74720868 29.6432982,6.9170022 C31.1952302,5.08458299 32.2384529,2.53800433 31.9529065,0 Z" id="path-1"></path>
        <mask id="mask-2" maskContentUnits="userSpaceOnUse" maskUnits="objectBoundingBox" x="0" y="0" width="9" height="10" fill="white">
            <use xlink:href="#path-1"></use>
        </mask>
        <path d="M41.7542566,15.8572019 C39.0059953,11.6724111 34.7373432,11.1046707 33.2166545,11.0374752 C29.5821937,10.6582557 26.1297388,13.2819939 24.2876352,13.2841715 C22.4467232,13.2869713 19.5977777,11.1146256 16.5864864,11.1783992 C12.624653,11.2434171 8.97857474,13.5924623 6.94106041,17.2969292 C2.83832871,24.7599928 5.91366467,35.799354 9.93001052,41.8419778 C11.8933522,44.7957831 14.2329191,48.1213417 17.3022974,47.9965944 C20.2575868,47.8721581 21.372262,45.996904 24.9420825,45.9919265 C28.5133923,45.9869491 29.5211278,47.9797955 32.6456143,47.9135332 C35.8255069,47.8506929 37.8362119,44.8912879 39.7775102,41.9209949 C42.02384,38.4837548 42.9445939,35.1578851 43,34.9861631 C42.9302956,34.9538097 36.7974966,32.5083265 36.7254091,25.1373457 C36.6613644,18.9702856 41.5347174,16.0009257 41.7542566,15.8572019 Z" id="path-3"></path>
        <mask id="mask-4" maskContentUnits="userSpaceOnUse" maskUnits="objectBoundingBox" x="0" y="0" width="38" height="37" fill="white">
            <use xlink:href="#path-3"></use>
        </mask>
    </defs>
    <g id="Desktop-Full-HD-1920" stroke="none" stroke-width="1" fill="none" fill-rule="evenodd">
        <g id="002-Frontend-Desktop-Full-HD-1920-Mobile-Application-Development" transform="translate(-525.000000, -1292.000000)">
            <g id="Main" transform="translate(0.000000, 906.000000)">
                <g id="Services" transform="translate(416.000000, 0.000000)">
                    <g id="List" transform="translate(0.000000, 282.000000)">
                        <g id="01" transform="translate(104.000000, 104.000000)">
                            <g id="ic-009">
                                <rect id="placeholder" x="0" y="0" width="48" height="48"></rect>
                                <use id="Fill-4" stroke="#3D454C" mask="url(#mask-2)" stroke-width="2" fill="#FF6E26" xlink:href="#path-1"></use>
                                <use id="Fill-1" stroke="#3D454C" mask="url(#mask-4)" stroke-width="2" fill="#4CBF86" xlink:href="#path-3"></use>
                                <circle id="Oval" stroke="#3D454C" fill="#FFFFFF" cx="17" cy="36" r="3"></circle>
                            </g>
                        </g>
                    </g>
                </g>
            </g>
        </g>
    </g>
</svg>