<?xml version="1.0" encoding="UTF-8" standalone="no"?>
<svg width="48px" height="48px" viewBox="0 0 48 48" version="1.1" xmlns="http://www.w3.org/2000/svg"
     xmlns:xlink="http://www.w3.org/1999/xlink">
  <!-- Generator: Sketch 41.1 (35376) - http://www.bohemiancoding.com/sketch -->
  <title>ic-022</title>
  <desc>Created with Sketch.</desc>
  <defs>
    <rect id="path-1" x="0" y="0" width="48" height="48"></rect>
    <mask id="mask-2" maskContentUnits="userSpaceOnUse" maskUnits="objectBoundingBox" x="0" y="0" width="48" height="48"
          fill="white">
      <use xlink:href="#path-1"></use>
    </mask>
    <polygon id="path-3" points="2 0 6 0 8 8 0 8"></polygon>
    <mask id="mask-4" maskContentUnits="userSpaceOnUse" maskUnits="objectBoundingBox" x="0" y="0" width="8" height="8"
          fill="white">
      <use xlink:href="#path-3"></use>
    </mask>
    <polygon id="path-5" points="2 16 6 16 8 24 0 24"></polygon>
    <mask id="mask-6" maskContentUnits="userSpaceOnUse" maskUnits="objectBoundingBox" x="0" y="0" width="8" height="8"
          fill="white">
      <use xlink:href="#path-5"></use>
    </mask>
    <polygon id="path-7" points="2 -7.38964445e-13 6 -7.38964445e-13 8 8 6.11066753e-13 8"></polygon>
    <mask id="mask-8" maskContentUnits="userSpaceOnUse" maskUnits="objectBoundingBox" x="0" y="0" width="8" height="8"
          fill="white">
      <use xlink:href="#path-7"></use>
    </mask>
    <polygon id="path-9" points="2 16 6 16 8 24 -6.76791956e-13 24"></polygon>
    <mask id="mask-10" maskContentUnits="userSpaceOnUse" maskUnits="objectBoundingBox" x="0" y="0" width="8" height="8"
          fill="white">
      <use xlink:href="#path-9"></use>
    </mask>
    <polygon id="path-11" points="2 0 6 0 8 8 1.77635684e-15 8"></polygon>
    <mask id="mask-12" maskContentUnits="userSpaceOnUse" maskUnits="objectBoundingBox" x="0" y="0" width="8" height="8"
          fill="white">
      <use xlink:href="#path-11"></use>
    </mask>
    <polygon id="path-13" points="2 16 6 16 8 24 0 24"></polygon>
    <mask id="mask-14" maskContentUnits="userSpaceOnUse" maskUnits="objectBoundingBox" x="0" y="0" width="8" height="8"
          fill="white">
      <use xlink:href="#path-13"></use>
    </mask>
    <polygon id="path-15" points="2 -1.37845291e-12 6 -1.37845291e-12 8 8 -1.32160949e-12 8"></polygon>
    <mask id="mask-16" maskContentUnits="userSpaceOnUse" maskUnits="objectBoundingBox" x="0" y="0" width="8" height="8"
          fill="white">
      <use xlink:href="#path-15"></use>
    </mask>
    <polygon id="path-17" points="2 16 6 16 8 24 -3.46389584e-14 24"></polygon>
    <mask id="mask-18" maskContentUnits="userSpaceOnUse" maskUnits="objectBoundingBox" x="0" y="0" width="8" height="8"
          fill="white">
      <use xlink:href="#path-17"></use>
    </mask>
    <circle id="path-19" cx="12" cy="12" r="7"></circle>
    <mask id="mask-20" maskContentUnits="userSpaceOnUse" maskUnits="objectBoundingBox" x="0" y="0" width="14"
          height="14" fill="white">
      <use xlink:href="#path-19"></use>
    </mask>
    <circle id="path-21" cx="12" cy="12" r="3"></circle>
    <mask id="mask-22" maskContentUnits="userSpaceOnUse" maskUnits="objectBoundingBox" x="0" y="0" width="6" height="6"
          fill="white">
      <use xlink:href="#path-21"></use>
    </mask>
    <rect id="path-23" x="0" y="0" width="40" height="7"></rect>
    <mask id="mask-24" maskContentUnits="userSpaceOnUse" maskUnits="objectBoundingBox" x="0" y="0" width="40" height="7"
          fill="white">
      <use xlink:href="#path-23"></use>
    </mask>
  </defs>
  <g id="Desktop-Full-HD-1920" stroke="none" stroke-width="1" fill="none" fill-rule="evenodd">
    <g id="005-Frontend-Desktop-Full-HD-1920-About" transform="translate(-1008.000000, -1562.000000)" stroke-width="2">
      <g id="Main" transform="translate(0.000000, 906.000000)">
        <g id="Services" transform="translate(416.000000, 0.000000)">
          <g id="List" transform="translate(0.000000, 261.000000)">
            <g id="03-copy-2" transform="translate(592.000000, 395.000000)">
              <g id="ic-01">
                <g id="ic-022">
                  <use id="Rectangle" stroke="#3D454D" mask="url(#mask-2)" fill="#FFFFFF" xlink:href="#path-1"></use>
                  <g id="Group-2" transform="translate(4.000000, 5.000000)" stroke="#3D454C">
                    <g id="ic-copy" transform="translate(8.000000, 13.000000)">
                      <g id="Group-5" transform="translate(8.000000, 0.000000)" fill="#FF6E26">
                        <use id="Rectangle-2" mask="url(#mask-4)" xlink:href="#path-3"></use>
                        <use id="Rectangle-2-Copy" mask="url(#mask-6)"
                             transform="translate(4.000000, 20.000000) scale(1, -1) translate(-4.000000, -20.000000) "
                             xlink:href="#path-5"></use>
                      </g>
                      <g id="Group-5-Copy"
                         transform="translate(12.000000, 12.000000) rotate(45.000000) translate(-12.000000, -12.000000) translate(8.000000, 0.000000)"
                         fill="#FF6E26">
                        <use id="Rectangle-2" mask="url(#mask-8)" xlink:href="#path-7"></use>
                        <use id="Rectangle-2-Copy" mask="url(#mask-10)"
                             transform="translate(4.000000, 20.000000) scale(1, -1) translate(-4.000000, -20.000000) "
                             xlink:href="#path-9"></use>
                      </g>
                      <g id="Group-4"
                         transform="translate(12.000000, 12.000000) rotate(90.000000) translate(-12.000000, -12.000000) translate(8.000000, 0.000000)">
                        <use id="Rectangle-2-Copy-3" mask="url(#mask-12)" fill="#FF6619" xlink:href="#path-11"></use>
                        <use id="Rectangle-2-Copy-2" mask="url(#mask-14)" fill="#FF6E26"
                             transform="translate(4.000000, 20.000000) scale(1, -1) translate(-4.000000, -20.000000) "
                             xlink:href="#path-13"></use>
                      </g>
                      <g id="Group-4-Copy"
                         transform="translate(12.000000, 12.000000) rotate(135.000000) translate(-12.000000, -12.000000) translate(8.000000, 0.000000)"
                         fill="#FF6E26">
                        <use id="Rectangle-2-Copy-3" mask="url(#mask-16)" xlink:href="#path-15"></use>
                        <use id="Rectangle-2-Copy-2" mask="url(#mask-18)"
                             transform="translate(4.000000, 20.000000) scale(1, -1) translate(-4.000000, -20.000000) "
                             xlink:href="#path-17"></use>
                      </g>
                      <use id="Oval-2" mask="url(#mask-20)" fill="#FF6E26" xlink:href="#path-19"></use>
                      <use id="Oval-2-Copy" mask="url(#mask-22)" fill="#FFFFFF" xlink:href="#path-21"></use>
                    </g>
                    <use id="Rectangle-8" mask="url(#mask-24)" fill="#4CBF86" xlink:href="#path-23"></use>
                  </g>
                </g>
              </g>
            </g>
          </g>
        </g>
      </g>
    </g>
  </g>
</svg>
