<?xml version="1.0" encoding="UTF-8" standalone="no"?>
<svg width="48px" height="48px" viewBox="0 0 48 48" version="1.1" xmlns="http://www.w3.org/2000/svg"
     xmlns:xlink="http://www.w3.org/1999/xlink">
  <!-- Generator: Sketch 41.1 (35376) - http://www.bohemiancoding.com/sketch -->
  <title>ic-019</title>
  <desc>Created with Sketch.</desc>
  <defs>
    <path d="M48,35 C48,25.0588745 39.9411255,17 30,17 C20.0588745,17 12,25.0588745 12,35 L48,35 Z" id="path-1"></path>
    <mask id="mask-2" maskContentUnits="userSpaceOnUse" maskUnits="objectBoundingBox" x="0" y="0" width="36" height="18"
          fill="white">
      <use xlink:href="#path-1"></use>
    </mask>
    <circle id="path-3" cx="30" cy="10" r="10"></circle>
    <mask id="mask-4" maskContentUnits="userSpaceOnUse" maskUnits="objectBoundingBox" x="0" y="0" width="20" height="20"
          fill="white">
      <use xlink:href="#path-3"></use>
    </mask>
    <path d="M36,48 C36,38.0588745 27.9411255,30 18,30 C8.0588745,30 0,38.0588745 0,48 L36,48 Z" id="path-5"></path>
    <mask id="mask-6" maskContentUnits="userSpaceOnUse" maskUnits="objectBoundingBox" x="0" y="0" width="36" height="18"
          fill="white">
      <use xlink:href="#path-5"></use>
    </mask>
    <circle id="path-7" cx="18" cy="23" r="10"></circle>
    <mask id="mask-8" maskContentUnits="userSpaceOnUse" maskUnits="objectBoundingBox" x="0" y="0" width="20" height="20"
          fill="white">
      <use xlink:href="#path-7"></use>
    </mask>
  </defs>
  <g id="Desktop-Full-HD-1920" stroke="none" stroke-width="1" fill="none" fill-rule="evenodd">
    <g id="005-Frontend-Desktop-Full-HD-1920-About" transform="translate(-520.000000, -1368.000000)" stroke-width="2"
       stroke="#3D454C">
      <g id="Main" transform="translate(0.000000, 906.000000)">
        <g id="Services" transform="translate(416.000000, 0.000000)">
          <g id="List" transform="translate(0.000000, 261.000000)">
            <g id="02" transform="translate(104.000000, 201.000000)">
              <g id="ic-019">
                <use id="Combined-Shape-Copy" mask="url(#mask-2)" fill="#FF6E26" xlink:href="#path-1"></use>
                <use id="Oval-4" mask="url(#mask-4)" fill="#FFFFFF" xlink:href="#path-3"></use>
                <use id="Combined-Shape" mask="url(#mask-6)" fill="#4CBF86" xlink:href="#path-5"></use>
                <use id="Oval-4" mask="url(#mask-8)" fill="#FFFFFF" xlink:href="#path-7"></use>
              </g>
            </g>
          </g>
        </g>
      </g>
    </g>
  </g>
</svg>
