<?xml version="1.0" encoding="UTF-8" standalone="no"?>
<svg width="48px" height="48px" viewBox="0 0 48 48" version="1.1" xmlns="http://www.w3.org/2000/svg"
     xmlns:xlink="http://www.w3.org/1999/xlink">
  <!-- Generator: Sketch 41.1 (35376) - http://www.bohemiancoding.com/sketch -->
  <title>ic-002</title>
  <desc>Created with Sketch.</desc>
  <defs>
    <rect id="path-1" x="0" y="5" width="48" height="32"></rect>
    <mask id="mask-2" maskContentUnits="userSpaceOnUse" maskUnits="objectBoundingBox" x="0" y="0" width="48" height="32"
          fill="white">
      <use xlink:href="#path-1"></use>
    </mask>
    <path d="M17,20 L17,0 L11,0 L11,20 L6,20 L14,28 L22,20 L17,20 Z" id="path-3"></path>
    <mask id="mask-4" maskContentUnits="userSpaceOnUse" maskUnits="objectBoundingBox" x="0" y="0" width="16" height="28"
          fill="white">
      <use xlink:href="#path-3"></use>
    </mask>
    <path d="M37,40 L37,20 L31,20 L31,40 L26,40 L34,48 L42,40 L37,40 Z" id="path-5"></path>
    <mask id="mask-6" maskContentUnits="userSpaceOnUse" maskUnits="objectBoundingBox" x="0" y="0" width="16" height="28"
          fill="white">
      <use xlink:href="#path-5"></use>
    </mask>
  </defs>
  <g id="Desktop-Full-HD-1920" stroke="none" stroke-width="1" fill="none" fill-rule="evenodd">
    <g id="001-Frontend-Desktop-Full-HD-1920-Services-Software-Development"
       transform="translate(-1008.000000, -1292.000000)">
      <g id="Main" transform="translate(0.000000, 906.000000)">
        <g id="Services" transform="translate(416.000000, 0.000000)">
          <g id="List" transform="translate(0.000000, 282.000000)">
            <g id="01-copy" transform="translate(592.000000, 104.000000)">
              <g id="ic-002">
                <g id="ic-01">
                  <use id="Rectangle" stroke="#3D454D" mask="url(#mask-2)" stroke-width="2" fill="#FFFFFF"
                       xlink:href="#path-1"></use>
                  <rect id="Rectangle-9" fill="#3D454C" x="1" y="11" width="47" height="4"></rect>
                  <use id="Combined-Shape-Copy" stroke="#3D454D" mask="url(#mask-4)" stroke-width="2" fill="#4CBF86"
                       xlink:href="#path-3"></use>
                  <use id="Combined-Shape-Copy-2" stroke="#3D454D" mask="url(#mask-6)" stroke-width="2" fill="#FF6E26"
                       xlink:href="#path-5"></use>
                </g>
              </g>
            </g>
          </g>
        </g>
      </g>
    </g>
  </g>
</svg>
