<svg id="SvgjsSvg1000" xmlns="http://www.w3.org/2000/svg" version="1.1" xmlns:xlink="http://www.w3.org/1999/xlink"
     xmlns:svgjs="http://svgjs.com/svgjs" width="63" height="67">
  <defs id="SvgjsDefs1001"></defs>
  <path id="SvgjsPath1007" d="M843 3844.37L854.25 3844.37L848.62 3831Z " fill="#030e1a" fill-opacity="1"
        transform="matrix(1,0,0,1,-817,-3811)"></path>
  <path id="SvgjsPath1008"
        d="M821 3824.67L825.39 3861.13L848.53 3873.86L871.8199999999999 3860.96L876.2099999999999 3824.5L848.5099999999999 3815ZM856.75 3850.15L840.42 3850.15L836.54 3859.85L829.3399999999999 3859.97L848.5799999999999 3817.1499999999996L867.8499999999999 3859.9999999999995L860.6199999999999 3859.8499999999995Z "
        fill="#030e1a" fill-opacity="1" transform="matrix(1,0,0,1,-817,-3811)"></path>
  <path id="SvgjsPath1009"
        d="M817 3822L821.93 3862.98L848.31 3877.46L874.8 3862.78L879.74 3821.8100000000004L848.28 3811.0000000000005ZM848.08 3874.67L824.0300000000001 3861.4500000000003L819.4700000000001 3823.7100000000005L848.0600000000002 3813.6400000000003L848.2300000000001 3813.6900000000005L876.8500000000001 3823.5100000000007L876.8000000000002 3823.9000000000005L872.2900000000002 3861.2500000000005Z "
        fill="#030e1a" fill-opacity="1" transform="matrix(1,0,0,1,-817,-3811)"></path>
</svg>
