<?xml version="1.0" encoding="UTF-8" standalone="no"?>
<svg width="32px" height="32px" viewBox="0 0 32 32" version="1.1" xmlns="http://www.w3.org/2000/svg" xmlns:xlink="http://www.w3.org/1999/xlink">
    <!-- Generator: Sketch 41.1 (35376) - http://www.bohemiancoding.com/sketch -->
    <title>Combined Shape</title>
    <desc>Created with Sketch.</desc>
    <defs></defs>
    <g id="Desktop-Full-HD-1920" stroke="none" stroke-width="1" fill="none" fill-rule="evenodd">
        <g id="001-Frontend-Desktop-Full-HD-1920-Services-Software-Development" transform="translate(-1288.000000, -5101.000000)" fill="#020E19">
            <g id="Main" transform="translate(0.000000, 906.000000)">
                <g id="Contacts" transform="translate(416.000000, 3635.000000)">
                    <g id="List" transform="translate(184.000000, 258.000000)">
                        <g id="FORM">
                            <g id="SOCIAL" transform="translate(592.000000, 302.000000)">
                                <path d="M112,32 C120.836556,32 128,24.836556 128,16 C128,7.163444 120.836556,0 112,0 C103.163444,0 96,7.163444 96,16 C96,24.836556 103.163444,32 112,32 Z M106.053642,8 L117.946358,8 C119.075926,8 120,8.92407422 120,10.0536423 L120,21.9465197 C120,23.0760878 119.075926,24.0001621 117.946358,24.0001621 L106.053642,24.0001621 C104.924074,24.0001621 104,23.0760878 104,21.9465197 L104,10.0536423 C104,8.92407422 104.924074,8 106.053642,8 Z M112.015234,12.8517948 C110.240499,12.8517948 108.80188,14.2458472 108.80188,15.9653189 C108.80188,17.6849526 110.240499,19.0790049 112.015234,19.0790049 C113.789968,19.0790049 115.228588,17.6849526 115.228588,15.9653189 C115.228588,14.2458472 113.789968,12.8517948 112.015234,12.8517948 Z M118.191557,14.7663885 L116.783405,14.7663885 C116.916619,15.2015234 116.988575,15.6621019 116.988575,16.1392108 C116.988575,18.8005834 114.761851,20.9579451 112.015234,20.9579451 C109.268617,20.9579451 107.042055,18.8005834 107.042055,16.1392108 C107.042055,15.6621019 107.113848,15.2015234 107.247225,14.7663885 L105.777652,14.7663885 L105.777652,21.524998 C105.777652,21.8748886 106.063852,22.1610891 106.413743,22.1610891 L117.555628,22.1610891 C117.905518,22.1610891 118.191557,21.8748886 118.191557,21.524998 L118.191557,14.7663885 Z M115.655295,9.77765173 C115.259217,9.77765173 114.935094,10.1017746 114.935094,10.4980147 L114.935094,12.2221862 C114.935094,12.6184264 115.259217,12.9425492 115.655295,12.9425492 L117.463901,12.9425492 C117.859979,12.9425492 118.184102,12.6184264 118.184102,12.2221862 L118.184102,10.4980147 C118.184102,10.1017746 117.859979,9.77765173 117.463901,9.77765173 L115.655295,9.77765173 Z" id="Combined-Shape"></path>
                            </g>
                        </g>
                    </g>
                </g>
            </g>
        </g>
    </g>
</svg>