<svg xmlns="http://www.w3.org/2000/svg" width="46" height="85"><path d="M43 67v.18h.32v.89h.22v-.89h.32V67zm2.24 0v1.07h-.2v-.84h-.01l-.31.84h-.15l-.31-.84h-.01v.84h-.21V67h.31l.29.76.29-.76zM14.8 45s-2.23 1.29 1.59 1.73c4.61.53 6.97.45 12.06-.51 0 0 1.34.84 3.2 1.57C20.25 52.67 5.84 47.5 14.8 45M14.14 39s-2.5 1.85 1.31 2.24c4.93.51 8.83.55 15.57-.74 0 0 .93.94 2.4 1.46-13.79 4.03-29.15.32-19.28-2.96M25.58 27.96c2.81 3.23-.74 6.15-.74 6.15s7.13-3.69 3.86-8.3c-3.06-4.3-5.41-6.44 7.3-13.81 0 0-19.95 4.98-10.42 15.96" fill="#030e1a"/><path d="M40.28 50.49s1.65 1.36-1.82 2.41c-6.58 1.99-27.4 2.6-33.18.08-2.08-.9 1.82-2.16 3.05-2.42 1.28-.28 2.01-.23 2.01-.23-2.32-1.63-14.95 3.2-6.42 4.58 23.25 3.77 42.39-1.7 36.36-4.42M16.23 32.01s-10.59 2.51-3.75 3.43c2.89.38 8.64.3 14.01-.15 4.38-.37 8.78-1.16 8.78-1.16s-1.55.66-2.66 1.43c-10.76 2.83-31.53 1.51-25.55-1.38 5.06-2.45 9.17-2.17 9.17-2.17M35.22 43.18c10.93-5.68 5.88-11.14 2.35-10.4-.87.18-1.25.33-1.25.33s.32-.5.93-.72c6.98-2.45 12.35 7.24-2.25 11.08 0 0 .17-.15.22-.29M28.47 0s6.05 6.06-5.74 15.37c-9.46 7.47-2.16 11.73-.01 16.59-5.52-4.98-9.57-9.36-6.85-13.45C19.86 12.52 30.91 9.62 28.47 0" fill="#030e1a"/><path d="M17.24 58.34c10.49.67 26.6-.38 26.98-5.34 0 0-.73 1.88-8.67 3.38-8.95 1.68-20 1.49-26.55.41 0 0 1.34 1.1 8.24 1.55M18.5 71.04c0-2.43-1.39-4.04-4.74-4.04-1.96 0-3.67.48-5.06 1.1l.4 1.69c1.1-.4 2.52-.78 3.91-.78 1.93 0 2.76.78 2.76 2.38v1.21h-.96C10.12 72.6 8 74.42 8 77.15c0 2.36 1.39 3.7 4.02 3.7 1.69 0 2.95-.7 4.12-1.71l.22 1.44h2.14zm-5.7 7.8c-1.34 0-2.07-.8-2.07-2.09 0-1.39.78-2.41 3.89-2.41h1.15v3.16c-.99.86-2.04 1.34-2.97 1.34zM27.51 80.34H24.1L20 67h2.98l2.54 8.2.56 2.46c1.29-3.56 2.2-7.18 2.66-10.66h2.89c-.78 4.39-2.17 9.22-4.12 13.34M43.5 71.04c0-2.43-1.39-4.04-4.74-4.04-1.96 0-3.67.48-5.06 1.1l.4 1.69c1.1-.4 2.52-.78 3.91-.78 1.93 0 2.76.78 2.76 2.38v1.21h-.96c-4.7 0-6.81 1.82-6.81 4.55 0 2.36 1.39 3.7 4.02 3.7 1.69 0 2.95-.7 4.12-1.71l.22 1.44h2.14zm-5.71 7.8c-1.33 0-2.06-.8-2.06-2.09 0-1.39.78-2.41 3.89-2.41h1.15v3.16c-.99.86-2.04 1.34-2.98 1.34zM4.76 82.35c-.78 1.14-2.03 2.04-3.41 2.55L0 83.31c1.05-.54 1.95-1.41 2.36-2.21.37-.72.51-1.65.51-3.87V62h2.91v15.02c0 2.97-.24 4.16-1.02 5.33M14.8 45s-2.23 1.29 1.59 1.73c4.61.53 6.97.45 12.06-.51 0 0 1.34.84 3.2 1.57C20.25 52.67 5.84 47.5 14.8 45M14.14 39s-2.5 1.85 1.31 2.24c4.93.51 8.83.55 15.57-.74 0 0 .93.94 2.4 1.46-13.79 4.03-29.15.32-19.28-2.96M25.58 27.96c2.81 3.23-.74 6.15-.74 6.15s7.13-3.69 3.86-8.3c-3.06-4.3-5.41-6.44 7.3-13.81 0 0-19.95 4.98-10.42 15.96" fill="#030e1a"/><path d="M40.28 50.49s1.65 1.36-1.82 2.41c-6.58 1.99-27.4 2.6-33.18.08-2.08-.9 1.82-2.16 3.05-2.42 1.28-.28 2.01-.23 2.01-.23-2.32-1.63-14.95 3.2-6.42 4.58 23.25 3.77 42.39-1.7 36.36-4.42M16.23 32.01s-10.59 2.51-3.75 3.43c2.89.38 8.64.3 14.01-.15 4.38-.37 8.78-1.16 8.78-1.16s-1.55.66-2.66 1.43c-10.76 2.83-31.53 1.51-25.55-1.38 5.06-2.45 9.17-2.17 9.17-2.17M35.22 43.18c10.93-5.68 5.88-11.14 2.35-10.4-.87.18-1.25.33-1.25.33s.32-.5.93-.72c6.98-2.45 12.35 7.24-2.25 11.08 0 0 .17-.15.22-.29M28.47 0s6.05 6.06-5.74 15.37c-9.46 7.47-2.16 11.73-.01 16.59-5.52-4.98-9.57-9.36-6.85-13.45C19.86 12.52 30.91 9.62 28.47 0" fill="#030e1a"/><path d="M17.24 58.34c10.49.67 26.6-.38 26.98-5.34 0 0-.73 1.88-8.67 3.38-8.95 1.68-20 1.49-26.55.41 0 0 1.34 1.1 8.24 1.55M18.5 71.04c0-2.43-1.39-4.04-4.74-4.04-1.96 0-3.67.48-5.06 1.1l.4 1.69c1.1-.4 2.52-.78 3.91-.78 1.93 0 2.76.78 2.76 2.38v1.21h-.96C10.12 72.6 8 74.42 8 77.15c0 2.36 1.39 3.7 4.02 3.7 1.69 0 2.95-.7 4.12-1.71l.22 1.44h2.14zm-5.7 7.8c-1.34 0-2.07-.8-2.07-2.09 0-1.39.78-2.41 3.89-2.41h1.15v3.16c-.99.86-2.04 1.34-2.97 1.34zM27.51 80.34H24.1L20 67h2.98l2.54 8.2.56 2.46c1.29-3.56 2.2-7.18 2.66-10.66h2.89c-.78 4.39-2.17 9.22-4.12 13.34M43.5 71.04c0-2.43-1.39-4.04-4.74-4.04-1.96 0-3.67.48-5.06 1.1l.4 1.69c1.1-.4 2.52-.78 3.91-.78 1.93 0 2.76.78 2.76 2.38v1.21h-.96c-4.7 0-6.81 1.82-6.81 4.55 0 2.36 1.39 3.7 4.02 3.7 1.69 0 2.95-.7 4.12-1.71l.22 1.44h2.14zm-5.71 7.8c-1.33 0-2.06-.8-2.06-2.09 0-1.39.78-2.41 3.89-2.41h1.15v3.16c-.99.86-2.04 1.34-2.98 1.34zM4.76 82.35c-.78 1.14-2.03 2.04-3.41 2.55L0 83.31c1.05-.54 1.95-1.41 2.36-2.21.37-.72.51-1.65.51-3.87V62h2.91v15.02c0 2.97-.24 4.16-1.02 5.33M43 67v.18h.32v.89h.22v-.89h.32V67zm2.24 0v1.07h-.2v-.84h-.01l-.31.84h-.15l-.31-.84h-.01v.84h-.21V67h.31l.29.76.29-.76zM14.8 45s-2.23 1.29 1.59 1.73c4.61.53 6.97.45 12.06-.51 0 0 1.34.84 3.2 1.57C20.25 52.67 5.84 47.5 14.8 45M14.14 39s-2.5 1.85 1.31 2.24c4.93.51 8.83.55 15.57-.74 0 0 .93.94 2.4 1.46-13.79 4.03-29.15.32-19.28-2.96M25.58 27.96c2.81 3.23-.74 6.15-.74 6.15s7.13-3.69 3.86-8.3c-3.06-4.3-5.41-6.44 7.3-13.81 0 0-19.95 4.98-10.42 15.96" fill="#030e1a"/><path d="M40.28 50.49s1.65 1.36-1.82 2.41c-6.58 1.99-27.4 2.6-33.18.08-2.08-.9 1.82-2.16 3.05-2.42 1.28-.28 2.01-.23 2.01-.23-2.32-1.63-14.95 3.2-6.42 4.58 23.25 3.77 42.39-1.7 36.36-4.42M16.23 32.01s-10.59 2.51-3.75 3.43c2.89.38 8.64.3 14.01-.15 4.38-.37 8.78-1.16 8.78-1.16s-1.55.66-2.66 1.43c-10.76 2.83-31.53 1.51-25.55-1.38 5.06-2.45 9.17-2.17 9.17-2.17M35.22 43.18c10.93-5.68 5.88-11.14 2.35-10.4-.87.18-1.25.33-1.25.33s.32-.5.93-.72c6.98-2.45 12.35 7.24-2.25 11.08 0 0 .17-.15.22-.29M28.47 0s6.05 6.06-5.74 15.37c-9.46 7.47-2.16 11.73-.01 16.59-5.52-4.98-9.57-9.36-6.85-13.45C19.86 12.52 30.91 9.62 28.47 0" fill="#030e1a"/><path d="M17.24 58.34c10.49.67 26.6-.38 26.98-5.34 0 0-.73 1.88-8.67 3.38-8.95 1.68-20 1.49-26.55.41 0 0 1.34 1.1 8.24 1.55M18.5 71.04c0-2.43-1.39-4.04-4.74-4.04-1.96 0-3.67.48-5.06 1.1l.4 1.69c1.1-.4 2.52-.78 3.91-.78 1.93 0 2.76.78 2.76 2.38v1.21h-.96C10.12 72.6 8 74.42 8 77.15c0 2.36 1.39 3.7 4.02 3.7 1.69 0 2.95-.7 4.12-1.71l.22 1.44h2.14zm-5.7 7.8c-1.34 0-2.07-.8-2.07-2.09 0-1.39.78-2.41 3.89-2.41h1.15v3.16c-.99.86-2.04 1.34-2.97 1.34zM27.51 80.34H24.1L20 67h2.98l2.54 8.2.56 2.46c1.29-3.56 2.2-7.18 2.66-10.66h2.89c-.78 4.39-2.17 9.22-4.12 13.34M43.5 71.04c0-2.43-1.39-4.04-4.74-4.04-1.96 0-3.67.48-5.06 1.1l.4 1.69c1.1-.4 2.52-.78 3.91-.78 1.93 0 2.76.78 2.76 2.38v1.21h-.96c-4.7 0-6.81 1.82-6.81 4.55 0 2.36 1.39 3.7 4.02 3.7 1.69 0 2.95-.7 4.12-1.71l.22 1.44h2.14zm-5.71 7.8c-1.33 0-2.06-.8-2.06-2.09 0-1.39.78-2.41 3.89-2.41h1.15v3.16c-.99.86-2.04 1.34-2.98 1.34zM4.76 82.35c-.78 1.14-2.03 2.04-3.41 2.55L0 83.31c1.05-.54 1.95-1.41 2.36-2.21.37-.72.51-1.65.51-3.87V62h2.91v15.02c0 2.97-.24 4.16-1.02 5.33" fill="#030e1a"/></svg>