<svg xmlns="http://www.w3.org/2000/svg" width="125" height="30">
  <path
    d="M119 3l5.2.03s-9.66 13.09-10.45 14.15c-.25.35-.64.72-.84 1.18-.5 1.16-1.01 3.71-1.01 3.71l-4.76.02s.74-2.65.71-4.06c-.02-1.24-.65-2.47-1.01-3.71-.35-1.25-.84-3.71-.84-3.71h4.89l.67 2.7L119 3"
    fill="#030e1a"/>
  <path
    d="M108.8 5.42c.96.57 1.55 3.76 1.55 3.76s-5.01.08-7.75.08h-2.35l-2.87 12.47H93s2.73-13.56 3.37-16.01c.21-.8 1.43-.66 3.49-.66h3.29c2.13 0 4.61-.27 5.65.36M87.57 9.95c-.51-.79-.98-.98-2.33-1.02-3.81-.12-3.73 2.7-3.73 2.7l6.53.04s.13-.8-.47-1.72zm4.09 5.23s-5.55-.09-8.59 0c-.95.03-2.08-.1-2.36.34-.4.62.14 1.57.6 1.97.53.46 1.55.51 1.92.56 2.47.31 7.64.08 7.64.08l-.9 3.96s-7.3.37-10.95-.5c-.72-.17-1.4-.52-1.85-1.01-.13-.14-.24-.32-.35-.48-.1-.13-.37-.54-.5-.87-.83-2.22.1-6.48 1.02-8.76.1-.27.23-.6.38-.89.17-.35.32-.76.46-.97.09-.14.21-.24.31-.38.11-.16.24-.32.36-.46.34-.39.72-.67 1.18-1.01 1.52-1.14 4.28-2.03 7.58-1.69 1.25.13 3.13.58 4.05 1.86.25.34.37 1.02.5 1.51.56 2.02-.5 6.74-.5 6.74zM72.52 5.03L76.77 5s-2.37 11.23-3.58 16.71H68.3c-3.41 0-6.45.42-7.75-2.02-1.25-2.38-.05-6.28.51-8.94.4-1.87 1.23-5.71 1.23-5.71l4.4-.04s-1.24 5.97-1.76 8.96c-.18 1.06-.56 2.07-.16 2.86.37.75.91.81 2.52.84.52.02 2.19 0 2.19 0l3.04-12.63M53.42 8.84c-.09-1.53-1.36-2.91-2.19-3.21-2.48-.87-4.8.35-5.73 1.35-1.19 1.3-1.59 2.81-2.02 4.89-.31 1.54-.57 3.18 0 4.38 1.02 2.13 4.18 1.67 7.58 1.69.51-1.36.93-2.88 1.35-4.39.45-1.58 1.1-3.29 1.01-4.71zm2.23 9.29c1.31.12 2.46-.02 2.54.08.08.13-.88 4.04-1.21 4.05-1.04.03-4.48.06-5.92.06-4.67 0-9.05.3-11.28-2.03-.91-.94-1.54-2.56-1.69-3.7-.25-1.91.06-4 .51-5.73.39-1.56.91-3.03 1.68-4.38C42.25 3.04 45.67.5 51.4 1.08c1.11.12 2.71.61 3.71 1.18.07.04.31.24.36.27 1.35.86 2.58 2.91 2.84 4.79.49 3.53-1.38 7.42-2.66 10.81zM37.58 5.02c-.28 1.29-.56 2.75-.86 4.02H32c.37-1.41.65-2.81 1.01-4.04 1.51 0 2.91.02 4.57.02M31.4 11h4.55c-.59 3.29-1.77 8.6-2.7 12.3-.57 2.31-.96 4-2.52 5.23-.14.1-.22.05-.34.16-.29.28-1.62.6-2.36.68-1.2.13-2.56.01-4.03-.02.39-1.41.82-3.1 1.17-4.36 3.59.43 3.68-2.97 4.38-6.24.4-1.89 1.62-6.99 1.85-7.75M21.28 19.72l-.1.26c-1.66 3.23-4.61 5.22-8.81 5.3-1.96.04-3.83-.46-5.05-1.01-2.64-1.18-4.86-3.38-6.07-5.73C-.48 15.18-.8 10.5 2.82 7c.05 0-.44.76-.39.76l-.1.32c-2.6 8.15 5.42 15.14 13.22 14.34 1.87-.19 4.26-1.22 5.73-2.7M21.58 8.84c-.3.7-2.06 2.02-2.84 2.19-3.07.65-5.03-.8-6.06-2.46-.16-.25-.44-.92-.49-1.09-.4-1.36-.22-3.42.98-4.48-.36 1.01-.41 2.19-.23 2.95.12.46.47 1.27.82 1.77.63.93 1.03 1.15 1.85 1.64.37.22.76.4.93.45.78.23 2.41.83 5.04-.97"
    fill="#030e1a"/>
  <path
    d="M16.15 15.61c1.96.01 4.01-.91 5.23-2.19-1.07 2.69-4.14 4.42-8.26 3.87-3.45-.46-6.74-3.93-7.08-7.41-.25-2.54.64-4.05 2.09-5.88-.5.96-.69 1.7-.74 2.17-.55 5.48 4.38 9.41 8.76 9.44M119 3l5.2.03s-9.66 13.09-10.45 14.15c-.25.35-.64.72-.84 1.18-.5 1.16-1.01 3.71-1.01 3.71l-4.76.02s.74-2.65.71-4.06c-.02-1.24-.65-2.47-1.01-3.71-.35-1.25-.84-3.71-.84-3.71h4.89l.67 2.7L119 3"
    fill="#030e1a"/>
  <path
    d="M108.8 5.42c.96.57 1.55 3.76 1.55 3.76s-5.01.08-7.75.08h-2.35l-2.87 12.47H93s2.73-13.56 3.37-16.01c.21-.8 1.43-.66 3.49-.66h3.29c2.13 0 4.61-.27 5.65.36M87.57 9.95c-.51-.79-.98-.98-2.33-1.02-3.81-.12-3.73 2.7-3.73 2.7l6.53.04s.13-.8-.47-1.72zm4.09 5.23s-5.55-.09-8.59 0c-.95.03-2.08-.1-2.36.34-.4.62.14 1.57.6 1.97.53.46 1.55.51 1.92.56 2.47.31 7.64.08 7.64.08l-.9 3.96s-7.3.37-10.95-.5c-.72-.17-1.4-.52-1.85-1.01-.13-.14-.24-.32-.35-.48-.1-.13-.37-.54-.5-.87-.83-2.22.1-6.48 1.02-8.76.1-.27.23-.6.38-.89.17-.35.32-.76.46-.97.09-.14.21-.24.31-.38.11-.16.24-.32.36-.46.34-.39.72-.67 1.18-1.01 1.52-1.14 4.28-2.03 7.58-1.69 1.25.13 3.13.58 4.05 1.86.25.34.37 1.02.5 1.51.56 2.02-.5 6.74-.5 6.74zM72.52 5.03L76.77 5s-2.37 11.23-3.58 16.71H68.3c-3.41 0-6.45.42-7.75-2.02-1.25-2.38-.05-6.28.51-8.94.4-1.87 1.23-5.71 1.23-5.71l4.4-.04s-1.24 5.97-1.76 8.96c-.18 1.06-.56 2.07-.16 2.86.37.75.91.81 2.52.84.52.02 2.19 0 2.19 0l3.04-12.63M53.42 8.84c-.09-1.53-1.36-2.91-2.19-3.21-2.48-.87-4.8.35-5.73 1.35-1.19 1.3-1.59 2.81-2.02 4.89-.31 1.54-.57 3.18 0 4.38 1.02 2.13 4.18 1.67 7.58 1.69.51-1.36.93-2.88 1.35-4.39.45-1.58 1.1-3.29 1.01-4.71zm2.23 9.29c1.31.12 2.46-.02 2.54.08.08.13-.88 4.04-1.21 4.05-1.04.03-4.48.06-5.92.06-4.67 0-9.05.3-11.28-2.03-.91-.94-1.54-2.56-1.69-3.7-.25-1.91.06-4 .51-5.73.39-1.56.91-3.03 1.68-4.38C42.25 3.04 45.67.5 51.4 1.08c1.11.12 2.71.61 3.71 1.18.07.04.31.24.36.27 1.35.86 2.58 2.91 2.84 4.79.49 3.53-1.38 7.42-2.66 10.81zM37.58 5.02c-.28 1.29-.56 2.75-.86 4.02H32c.37-1.41.65-2.81 1.01-4.04 1.51 0 2.91.02 4.57.02M31.4 11h4.55c-.59 3.29-1.77 8.6-2.7 12.3-.57 2.31-.96 4-2.52 5.23-.14.1-.22.05-.34.16-.29.28-1.62.6-2.36.68-1.2.13-2.56.01-4.03-.02.39-1.41.82-3.1 1.17-4.36 3.59.43 3.68-2.97 4.38-6.24.4-1.89 1.62-6.99 1.85-7.75M21.28 19.72l-.1.26c-1.66 3.23-4.61 5.22-8.81 5.3-1.96.04-3.83-.46-5.05-1.01-2.64-1.18-4.86-3.38-6.07-5.73C-.48 15.18-.8 10.5 2.82 7c.05 0-.44.76-.39.76l-.1.32c-2.6 8.15 5.42 15.14 13.22 14.34 1.87-.19 4.26-1.22 5.73-2.7M21.58 8.84c-.3.7-2.06 2.02-2.84 2.19-3.07.65-5.03-.8-6.06-2.46-.16-.25-.44-.92-.49-1.09-.4-1.36-.22-3.42.98-4.48-.36 1.01-.41 2.19-.23 2.95.12.46.47 1.27.82 1.77.63.93 1.03 1.15 1.85 1.64.37.22.76.4.93.45.78.23 2.41.83 5.04-.97"
    fill="#030e1a"/>
  <path
    d="M16.15 15.61c1.96.01 4.01-.91 5.23-2.19-1.07 2.69-4.14 4.42-8.26 3.87-3.45-.46-6.74-3.93-7.08-7.41-.25-2.54.64-4.05 2.09-5.88-.5.96-.69 1.7-.74 2.17-.55 5.48 4.38 9.41 8.76 9.44"
    fill="#030e1a"/>
</svg>
