<svg id="SvgjsSvg1000" xmlns="http://www.w3.org/2000/svg" version="1.1" xmlns:xlink="http://www.w3.org/1999/xlink"
     xmlns:svgjs="http://svgjs.com/svgjs" width="184" height="40" viewBox="0 0 184 40">
  <title>Logo</title>
  <desc>Created with Avocode.</desc>
  <defs id="SvgjsDefs1001">
    <linearGradient id="SvgjsLinearGradient1023" gradientUnits="userSpaceOnUse" x1="1403.7512933242783"
                    y1="4529.532985749881" x2="1425.9785704924284" y2="4496.822870005279">
      <stop id="SvgjsStop1024" stop-opacity="1" stop-color="#030e1a" offset="0"></stop>
      <stop id="SvgjsStop1025" stop-opacity="0.79" stop-color="#030d1a" offset="0.53"></stop>
      <stop id="SvgjsStop1026" stop-opacity="0" stop-color="#030d1a" offset="1"></stop>
      <stop id="SvgjsStop1027" stop-opacity="0" stop-color="#5cea8e" offset="1"></stop>
    </linearGradient>
  </defs>
  <path id="SvgjsPath1007"
        d="M1449.12 4512.03C1448.4599999999998 4512.48 1447.8999999999999 4513.05 1447.4599999999998 4513.75C1447.0199999999998 4514.45 1446.6899999999998 4515.21 1446.4599999999998 4516.04C1446.2399999999998 4516.87 1446.1299999999999 4517.66 1446.1299999999999 4518.41C1446.1299999999999 4518.9 1446.1999999999998 4519.36 1446.32 4519.8099999999995C1446.45 4520.249999999999 1446.6499999999999 4520.639999999999 1446.8999999999999 4520.98C1447.1599999999999 4521.32 1447.4899999999998 4521.599999999999 1447.8799999999999 4521.799999999999C1448.27 4521.999999999999 1448.7399999999998 4522.099999999999 1449.28 4522.099999999999C1450.1399999999999 4522.099999999999 1450.8999999999999 4521.87 1451.57 4521.41C1452.23 4520.95 1452.79 4520.38 1453.24 4519.68C1453.69 4518.9800000000005 1454.04 4518.21 1454.27 4517.38C1454.51 4516.54 1454.6299999999999 4515.75 1454.6299999999999 4515.01C1454.6299999999999 4514.51 1454.56 4514.04 1454.4299999999998 4513.6C1454.2999999999997 4513.160000000001 1454.11 4512.77 1453.84 4512.43C1453.58 4512.1 1453.25 4511.84 1452.85 4511.64C1452.4399999999998 4511.450000000001 1451.9699999999998 4511.35 1451.4299999999998 4511.35C1450.56 4511.35 1449.7899999999997 4511.58 1449.12 4512.030000000001ZM1456.17 4510.67C1457.23 4511.78 1457.76 4513.34 1457.76 4515.33C1457.76 4516.5599999999995 1457.54 4517.74 1457.11 4518.89C1456.6799999999998 4520.030000000001 1456.06 4521.05 1455.25 4521.950000000001C1454.46 4522.820000000001 1453.52 4523.450000000001 1452.43 4523.85C1451.3300000000002 4524.25 1450.16 4524.450000000001 1448.9 4524.450000000001C1447.97 4524.450000000001 1447.14 4524.290000000001 1446.41 4523.9800000000005C1445.68 4523.660000000001 1445.0700000000002 4523.2300000000005 1444.5700000000002 4522.67C1444.0700000000002 4522.12 1443.68 4521.46 1443.41 4520.7C1443.14 4519.95 1443 4519.13 1443 4518.24C1443 4517.05 1443.2 4515.889999999999 1443.6 4514.79C1444 4513.68 1444.59 4512.68 1445.36 4511.78C1446.99 4509.929999999999 1449.04 4509 1451.52 4509C1453.56 4509 1455.11 4509.56 1456.17 4510.67Z "
        fill="#030e1a" fill-opacity="1" transform="matrix(1,0,0,1,-1396,-4496)"></path>
  <path id="SvgjsPath1008"
        d="M1461.04 4514.84C1461.11 4514.51 1461.17 4514.21 1461.21 4513.93C1461.25 4513.650000000001 1461.29 4513.43 1461.32 4513.26L1464.1299999999999 4513.26L1463.9299999999998 4514.33L1463.9799999999998 4514.33C1464.3799999999999 4513.96 1464.8399999999997 4513.64 1465.37 4513.39C1465.8999999999999 4513.13 1466.4799999999998 4513 1467.11 4513C1468.1899999999998 4513 1469.07 4513.31 1469.7199999999998 4513.94C1470.3799999999999 4514.57 1470.7099999999998 4515.429999999999 1470.7099999999998 4516.53C1470.7099999999998 4516.94 1470.6699999999998 4517.36 1470.5799999999997 4517.78C1470.4999999999998 4518.2 1470.4199999999996 4518.58 1470.3499999999997 4518.929999999999L1469.1899999999996 4524.28L1466.3099999999995 4524.28L1467.3899999999994 4519.08C1467.4599999999994 4518.71 1467.5299999999995 4518.33 1467.5999999999995 4517.95C1467.6699999999994 4517.58 1467.7099999999994 4517.179999999999 1467.7099999999994 4516.7699999999995C1467.7099999999994 4516.3099999999995 1467.5599999999993 4515.94 1467.2699999999993 4515.65C1466.9799999999993 4515.37 1466.5999999999992 4515.23 1466.1399999999992 4515.23C1465.6399999999992 4515.23 1465.2199999999991 4515.33 1464.8699999999992 4515.549999999999C1464.5199999999993 4515.759999999999 1464.2199999999991 4516.029999999999 1463.989999999999 4516.369999999999C1463.749999999999 4516.709999999999 1463.559999999999 4517.079999999999 1463.4099999999992 4517.489999999999C1463.259999999999 4517.909999999999 1463.1399999999992 4518.319999999999 1463.0499999999993 4518.729999999999L1461.8699999999992 4524.279999999999L1458.9999999999993 4524.279999999999L1461.0399999999993 4514.839999999999Z "
        fill="#030e1a" fill-opacity="1" transform="matrix(1,0,0,1,-1396,-4496)"></path>
  <path id="SvgjsPath1009"
        d="M1475.17 4509L1480.13 4509L1481.14 4519.76L1481.18 4519.76L1487.0800000000002 4509L1492.0800000000002 4509L1488.88 4523.94L1485.71 4523.94L1488.54 4511.57L1488.49 4511.57L1481.72 4523.94L1478.84 4523.94L1477.6399999999999 4511.57L1477.6 4511.57L1474.85 4523.94L1472 4523.94Z "
        fill="#030e1a" fill-opacity="1" transform="matrix(1,0,0,1,-1396,-4496)"></path>
  <path id="SvgjsPath1010"
        d="M1496.41 4513L1497.43 4521.2L1497.48 4521.2L1501.8700000000001 4513L1505.0300000000002 4513L1497.5400000000002 4525.69C1497.3300000000002 4526.0599999999995 1497.0900000000001 4526.429999999999 1496.8200000000002 4526.799999999999C1496.5600000000002 4527.169999999999 1496.2600000000002 4527.499999999999 1495.91 4527.799999999999C1495.5700000000002 4528.089999999999 1495.17 4528.32 1494.72 4528.499999999999C1494.27 4528.679999999999 1493.75 4528.7699999999995 1493.14 4528.7699999999995C1492.44 4528.7699999999995 1491.73 4528.669999999999 1491 4528.469999999999L1491.64 4526.289999999999C1491.8200000000002 4526.359999999999 1492 4526.419999999999 1492.19 4526.469999999999C1492.38 4526.5199999999995 1492.6200000000001 4526.539999999999 1492.91 4526.539999999999C1493.3400000000001 4526.539999999999 1493.74 4526.409999999999 1494.1100000000001 4526.139999999999C1494.48 4525.869999999999 1494.92 4525.339999999999 1495.42 4524.549999999999L1493.47 4512.999999999999Z "
        fill="#030e1a" fill-opacity="1" transform="matrix(1,0,0,1,-1396,-4496)"></path>
  <path id="SvgjsPath1011"
        d="M1506 4509L1509 4509L1509.45 4520.45L1509.5 4520.45L1514.47 4509L1518.51 4509L1518.57 4520.45L1518.61 4520.45L1523.9099999999999 4509L1527.0199999999998 4509L1519.8799999999997 4523.94L1516.1199999999997 4523.94L1515.9699999999996 4512L1515.9299999999996 4512L1510.6499999999996 4523.94L1506.9399999999996 4523.94Z "
        fill="#030e1a" fill-opacity="1" transform="matrix(1,0,0,1,-1396,-4496)"></path>
  <path id="SvgjsPath1012"
        d="M1528.2 4522.15C1528.5 4522.339999999999 1528.8300000000002 4522.44 1529.2 4522.44C1529.73 4522.44 1530.18 4522.349999999999 1530.54 4522.179999999999C1530.9099999999999 4522.009999999999 1531.22 4521.7699999999995 1531.47 4521.469999999999C1531.72 4521.169999999999 1531.92 4520.829999999999 1532.07 4520.44C1532.22 4520.04 1532.35 4519.629999999999 1532.46 4519.179999999999L1531.46 4519.179999999999C1531.1100000000001 4519.179999999999 1530.72 4519.209999999999 1530.29 4519.249999999999C1529.85 4519.289999999999 1529.45 4519.389999999999 1529.08 4519.539999999999C1528.6999999999998 4519.689999999999 1528.3899999999999 4519.899999999999 1528.1299999999999 4520.169999999999C1527.87 4520.44 1527.7499999999998 4520.8099999999995 1527.7499999999998 4521.279999999999C1527.7499999999998 4521.669999999999 1527.8999999999999 4521.959999999999 1528.1999999999998 4522.149999999999ZM1531.97 4522.59C1531.47 4523.21 1530.95 4523.7 1530.42 4524.03C1529.88 4524.37 1529.21 4524.53 1528.41 4524.53C1527.41 4524.53 1526.5900000000001 4524.2699999999995 1525.95 4523.73C1525.32 4523.2 1525 4522.41 1525 4521.389999999999C1525 4520.469999999999 1525.23 4519.759999999999 1525.68 4519.24C1526.13 4518.719999999999 1526.69 4518.32 1527.3700000000001 4518.0599999999995C1528.0500000000002 4517.799999999999 1528.7900000000002 4517.629999999999 1529.5800000000002 4517.57C1530.3700000000001 4517.5 1531.1100000000001 4517.469999999999 1531.7800000000002 4517.469999999999L1532.7900000000002 4517.469999999999C1532.8300000000002 4517.32 1532.8500000000001 4517.159999999999 1532.8600000000001 4516.999999999999C1532.8700000000001 4516.839999999999 1532.8700000000001 4516.689999999999 1532.8700000000001 4516.529999999999C1532.8700000000001 4516.259999999998 1532.8000000000002 4516.029999999999 1532.67 4515.8499999999985C1532.53 4515.659999999999 1532.3600000000001 4515.509999999998 1532.14 4515.399999999999C1531.93 4515.279999999999 1531.69 4515.199999999999 1531.43 4515.159999999999C1531.18 4515.119999999999 1530.92 4515.0999999999985 1530.66 4515.0999999999985C1530.02 4515.0999999999985 1529.4 4515.169999999998 1528.8000000000002 4515.319999999999C1528.2000000000003 4515.469999999998 1527.6100000000001 4515.6799999999985 1527.0400000000002 4515.949999999999L1527.4500000000003 4513.659999999999C1528.0600000000002 4513.449999999999 1528.6800000000003 4513.289999999999 1529.3000000000002 4513.169999999999C1529.92 4513.0599999999995 1530.5600000000002 4512.999999999999 1531.2000000000003 4512.999999999999C1531.7600000000002 4512.999999999999 1532.2900000000002 4513.0599999999995 1532.8100000000002 4513.169999999999C1533.3200000000002 4513.289999999999 1533.7800000000002 4513.469999999999 1534.17 4513.739999999999C1534.5600000000002 4513.999999999999 1534.88 4514.3499999999985 1535.1200000000001 4514.789999999999C1535.3700000000001 4515.219999999999 1535.49 4515.759999999999 1535.49 4516.399999999999C1535.49 4516.6399999999985 1535.46 4516.959999999999 1535.4 4517.3499999999985C1535.3500000000001 4517.749999999998 1535.27 4518.169999999998 1535.19 4518.6399999999985C1535.1000000000001 4519.0999999999985 1535.01 4519.589999999998 1534.91 4520.109999999999C1534.8100000000002 4520.6399999999985 1534.71 4521.149999999999 1534.6100000000001 4521.6399999999985C1534.5100000000002 4522.1399999999985 1534.42 4522.619999999998 1534.3300000000002 4523.079999999998C1534.2400000000002 4523.529999999998 1534.18 4523.9299999999985 1534.14 4524.279999999998L1531.71 4524.279999999998L1532.01 4522.589999999998Z "
        fill="#030e1a" fill-opacity="1" transform="matrix(1,0,0,1,-1396,-4496)"></path>
  <path id="SvgjsPath1013"
        d="M1540.41 4513L1541.43 4521.2L1541.48 4521.2L1545.8700000000001 4513L1549.0300000000002 4513L1541.5400000000002 4525.69C1541.3300000000002 4526.0599999999995 1541.0900000000001 4526.429999999999 1540.8200000000002 4526.799999999999C1540.5600000000002 4527.169999999999 1540.2600000000002 4527.499999999999 1539.91 4527.799999999999C1539.5700000000002 4528.089999999999 1539.17 4528.32 1538.72 4528.499999999999C1538.27 4528.679999999999 1537.75 4528.7699999999995 1537.14 4528.7699999999995C1536.44 4528.7699999999995 1535.73 4528.669999999999 1535 4528.469999999999L1535.64 4526.289999999999C1535.8200000000002 4526.359999999999 1536 4526.419999999999 1536.19 4526.469999999999C1536.38 4526.5199999999995 1536.6200000000001 4526.539999999999 1536.91 4526.539999999999C1537.3400000000001 4526.539999999999 1537.74 4526.409999999999 1538.1100000000001 4526.139999999999C1538.48 4525.869999999999 1538.92 4525.339999999999 1539.42 4524.549999999999L1537.47 4512.999999999999Z "
        fill="#030e1a" fill-opacity="1" transform="matrix(1,0,0,1,-1396,-4496)"></path>
  <path id="SvgjsPath1014" d="M1549.41 4522L1551.42 4522L1551 4524L1549 4524Z " fill="#030e1a" fill-opacity="1"
        transform="matrix(1,0,0,1,-1396,-4496)"></path>
  <path id="SvgjsPath1015"
        d="M1558.79 4518.85C1558.4099999999999 4518.610000000001 1557.94 4518.4800000000005 1557.3899999999999 4518.4800000000005C1557.0099999999998 4518.4800000000005 1556.6699999999998 4518.56 1556.37 4518.7300000000005C1556.08 4518.89 1555.83 4519.1 1555.62 4519.370000000001C1555.4199999999998 4519.630000000001 1555.26 4519.9400000000005 1555.1599999999999 4520.27C1555.05 4520.610000000001 1554.9999999999998 4520.950000000001 1554.9999999999998 4521.290000000001C1554.9999999999998 4521.530000000001 1555.0299999999997 4521.760000000001 1555.0699999999997 4521.990000000001C1555.1199999999997 4522.22 1555.1999999999998 4522.43 1555.3199999999997 4522.610000000001C1555.4399999999996 4522.790000000001 1555.6099999999997 4522.93 1555.8199999999997 4523.040000000001C1556.0299999999997 4523.150000000001 1556.2999999999997 4523.210000000001 1556.6299999999997 4523.210000000001C1556.8699999999997 4523.210000000001 1557.1299999999997 4523.170000000001 1557.3999999999996 4523.110000000001C1557.6799999999996 4523.05 1557.9399999999996 4522.960000000001 1558.1899999999996 4522.830000000001L1557.9799999999996 4524.350000000001C1557.6799999999996 4524.490000000002 1557.3799999999997 4524.580000000001 1557.0699999999995 4524.620000000002C1556.7599999999995 4524.670000000002 1556.4499999999996 4524.690000000001 1556.1299999999994 4524.690000000001C1555.6499999999994 4524.690000000001 1555.2199999999993 4524.6100000000015 1554.8399999999995 4524.460000000002C1554.4499999999994 4524.310000000002 1554.1199999999994 4524.090000000002 1553.8499999999995 4523.8200000000015C1553.5799999999995 4523.540000000002 1553.3699999999994 4523.210000000002 1553.2199999999993 4522.8200000000015C1553.0699999999993 4522.430000000001 1552.9999999999993 4522.000000000002 1552.9999999999993 4521.520000000001C1552.9999999999993 4520.880000000001 1553.0999999999992 4520.290000000002 1553.3099999999993 4519.740000000002C1553.5099999999993 4519.190000000001 1553.7999999999993 4518.710000000002 1554.1799999999992 4518.300000000002C1554.5599999999993 4517.890000000002 1555.009999999999 4517.570000000002 1555.549999999999 4517.340000000002C1556.089999999999 4517.110000000002 1556.6899999999991 4517.000000000002 1557.349999999999 4517.000000000002C1557.709999999999 4517.000000000002 1558.049999999999 4517.030000000002 1558.379999999999 4517.090000000002C1558.709999999999 4517.140000000002 1559.009999999999 4517.210000000002 1559.259999999999 4517.290000000002L1558.789999999999 4518.850000000002Z "
        fill="#030e1a" fill-opacity="1" transform="matrix(1,0,0,1,-1396,-4496)"></path>
  <path id="SvgjsPath1016"
        d="M1564.73 4517.22C1565.14 4517.37 1565.5 4517.58 1565.79 4517.860000000001C1566.09 4518.130000000001 1566.32 4518.47 1566.49 4518.870000000001C1566.65 4519.27 1566.74 4519.720000000001 1566.74 4520.220000000001C1566.74 4520.870000000001 1566.63 4521.470000000001 1566.41 4522.010000000001C1566.2 4522.560000000001 1565.9 4523.030000000002 1565.51 4523.430000000001C1565.1299999999999 4523.8200000000015 1564.67 4524.130000000001 1564.1299999999999 4524.350000000001C1563.59 4524.580000000001 1562.9899999999998 4524.690000000001 1562.35 4524.690000000001C1561.3 4524.690000000001 1560.48 4524.390000000001 1559.8899999999999 4523.790000000002C1559.3 4523.190000000001 1558.9999999999998 4522.370000000002 1558.9999999999998 4521.340000000002C1558.9999999999998 4520.730000000002 1559.1099999999997 4520.160000000002 1559.3399999999997 4519.620000000002C1559.5599999999997 4519.090000000002 1559.8699999999997 4518.630000000002 1560.2599999999998 4518.250000000002C1560.6499999999999 4517.8600000000015 1561.1099999999997 4517.560000000002 1561.6399999999999 4517.340000000002C1562.1699999999998 4517.110000000002 1562.7399999999998 4517.000000000002 1563.36 4517.000000000002C1563.86 4517.000000000002 1564.31 4517.0700000000015 1564.7299999999998 4517.220000000002ZM1563.48 4522.92C1563.75 4522.7300000000005 1563.98 4522.49 1564.17 4522.1900000000005C1564.3500000000001 4521.900000000001 1564.5 4521.580000000001 1564.5900000000001 4521.2300000000005C1564.69 4520.88 1564.7300000000002 4520.55 1564.7300000000002 4520.240000000001C1564.7300000000002 4520.000000000001 1564.7100000000003 4519.77 1564.6600000000003 4519.56C1564.6100000000004 4519.35 1564.5400000000004 4519.160000000001 1564.4300000000003 4519C1564.3200000000004 4518.85 1564.1700000000003 4518.72 1563.9800000000002 4518.63C1563.8000000000002 4518.53 1563.5600000000002 4518.4800000000005 1563.2800000000002 4518.4800000000005C1562.89 4518.4800000000005 1562.5600000000002 4518.580000000001 1562.2800000000002 4518.76C1562.0000000000002 4518.95 1561.7600000000002 4519.1900000000005 1561.5700000000002 4519.4800000000005C1561.38 4519.780000000001 1561.2400000000002 4520.1 1561.14 4520.450000000001C1561.0500000000002 4520.800000000001 1561 4521.150000000001 1561 4521.4800000000005C1561 4521.7300000000005 1561.03 4521.96 1561.08 4522.160000000001C1561.1299999999999 4522.370000000001 1561.22 4522.550000000001 1561.34 4522.710000000001C1561.4599999999998 4522.860000000001 1561.61 4522.980000000001 1561.8 4523.070000000001C1561.99 4523.160000000001 1562.23 4523.210000000001 1562.5 4523.210000000001C1562.87 4523.210000000001 1563.2 4523.110000000001 1563.48 4522.920000000001Z "
        fill="#030e1a" fill-opacity="1" transform="matrix(1,0,0,1,-1396,-4496)"></path>
  <path id="SvgjsPath1017"
        d="M1569.34 4517.98C1569.37 4517.839999999999 1569.3999999999999 4517.7 1569.4299999999998 4517.5599999999995C1569.4599999999998 4517.41 1569.4799999999998 4517.289999999999 1569.4999999999998 4517.169999999999L1571.2899999999997 4517.169999999999L1571.1199999999997 4518.159999999999L1571.1499999999996 4518.159999999999C1571.3999999999996 4517.779999999999 1571.7299999999996 4517.489999999999 1572.1299999999997 4517.289999999999C1572.5199999999998 4517.099999999999 1572.9499999999996 4516.999999999999 1573.4099999999996 4516.999999999999C1573.6199999999997 4516.999999999999 1573.8399999999997 4517.029999999999 1574.0599999999997 4517.089999999999C1574.2699999999998 4517.15 1574.4599999999998 4517.239999999999 1574.6399999999996 4517.36C1574.8099999999997 4517.48 1574.9499999999996 4517.63 1575.0599999999997 4517.8099999999995C1575.1799999999996 4517.98 1575.2499999999998 4518.179999999999 1575.2799999999997 4518.4L1575.3099999999997 4518.4C1575.4299999999996 4518.16 1575.5899999999997 4517.95 1575.7699999999998 4517.78C1575.9599999999998 4517.599999999999 1576.1699999999998 4517.46 1576.3899999999996 4517.34C1576.6199999999997 4517.2300000000005 1576.8699999999997 4517.14 1577.1199999999997 4517.09C1577.3799999999997 4517.03 1577.6399999999996 4517 1577.8999999999996 4517C1578.1699999999996 4517 1578.4299999999996 4517.05 1578.6799999999996 4517.16C1578.9299999999996 4517.26 1579.1499999999996 4517.4 1579.3299999999997 4517.58C1579.5199999999998 4517.7699999999995 1579.6699999999996 4517.98 1579.7799999999997 4518.23C1579.8899999999996 4518.469999999999 1579.9399999999998 4518.74 1579.9399999999998 4519.009999999999C1579.9399999999998 4519.339999999999 1579.8999999999999 4519.679999999999 1579.83 4520.03C1579.76 4520.38 1579.6899999999998 4520.7 1579.61 4521.009999999999L1578.84 4524.5199999999995L1576.9199999999998 4524.5199999999995L1577.6999999999998 4520.94C1577.7399999999998 4520.719999999999 1577.7999999999997 4520.46 1577.85 4520.15C1577.9099999999999 4519.849999999999 1577.9399999999998 4519.589999999999 1577.9399999999998 4519.37C1577.9399999999998 4519.09 1577.85 4518.88 1577.6699999999998 4518.72C1577.4999999999998 4518.56 1577.2899999999997 4518.4800000000005 1577.0399999999997 4518.4800000000005C1576.6999999999998 4518.4800000000005 1576.4299999999998 4518.570000000001 1576.2199999999998 4518.740000000001C1575.9999999999998 4518.910000000001 1575.8199999999997 4519.130000000001 1575.6799999999998 4519.380000000001C1575.5399999999997 4519.640000000001 1575.4199999999998 4519.910000000001 1575.34 4520.210000000001C1575.26 4520.500000000001 1575.1899999999998 4520.780000000001 1575.1399999999999 4521.020000000001L1574.3799999999999 4524.520000000001L1572.4599999999998 4524.520000000001L1573.2299999999998 4520.940000000001C1573.2799999999997 4520.720000000001 1573.3299999999997 4520.460000000002 1573.3899999999999 4520.1500000000015C1573.4499999999998 4519.850000000001 1573.4799999999998 4519.590000000001 1573.4799999999998 4519.370000000002C1573.4799999999998 4519.090000000002 1573.3899999999999 4518.880000000002 1573.2099999999998 4518.720000000002C1573.0399999999997 4518.560000000002 1572.8199999999997 4518.480000000002 1572.5799999999997 4518.480000000002C1572.2499999999998 4518.480000000002 1571.9799999999998 4518.570000000002 1571.7699999999998 4518.7400000000025C1571.5499999999997 4518.910000000003 1571.3699999999997 4519.130000000003 1571.2299999999998 4519.380000000003C1571.0899999999997 4519.640000000003 1570.9699999999998 4519.910000000003 1570.8899999999999 4520.210000000003C1570.8 4520.500000000003 1570.7299999999998 4520.7800000000025 1570.6699999999998 4521.020000000003L1569.9199999999998 4524.520000000003L1567.9999999999998 4524.520000000003L1569.3399999999997 4517.980000000003Z "
        fill="#030e1a" fill-opacity="1" transform="matrix(1,0,0,1,-1396,-4496)"></path>
  <path id="SvgjsPath1018"
        d="M1426.28 4500C1429.18 4500.59 1432.18 4500.91 1435.26 4500.91C1435.26 4515.7 1427.32 4528.66 1415.46 4535.74C1413.53 4534.59 1411.71 4533.29 1410 4531.84C1419.72 4524.56 1426.08 4513.02 1426.28 4500Z "
        fill="#030e1a" fill-opacity="1" transform="matrix(1,0,0,1,-1396,-4496)"></path>
  <path id="SvgjsPath1019"
        d="M1403.09 4523.53C1398.62 4517.0199999999995 1396.01 4509.139999999999 1396 4500.639999999999C1403.11 4500.639999999999 1409.84 4498.969999999999 1415.81 4495.999999999999C1418.6 4497.389999999999 1421.57 4498.499999999999 1424.6599999999999 4499.279999999999C1421.1499999999999 4510.039999999999 1413.2499999999998 4518.829999999999 1403.09 4523.529999999999Z "
        fill="#030e1a" fill-opacity="1" transform="matrix(1,0,0,1,-1396,-4496)"></path>
  <path id="SvgjsPath1020"
        d="M1399.93 4524.59C1399.6100000000001 4524.09 1399.3 4523.58 1399 4523.07C1410.39 4519.13 1419.49 4510.25 1423.73 4499C1423.93 4499.05 1424.13 4499.11 1424.33 4499.16C1420.5 4510.9 1411.4499999999998 4520.29 1399.9299999999998 4524.59Z "
        fill="#030e1a" fill-opacity="1" transform="matrix(1,0,0,1,-1396,-4496)"></path>
  <path id="SvgjsPath1021"
        d="M1409.24 4534.4C1408.82 4534.0599999999995 1408.41 4533.71 1408 4533.36C1419.11 4526.32 1426.57 4514.04 1426.88 4500C1426.89 4500.31 1426.9 4500.62 1426.9 4500.93C1426.9 4514.820000000001 1419.9 4527.09 1409.24 4534.400000000001Z "
        fill="#030e1a" fill-opacity="1" transform="matrix(1,0,0,1,-1396,-4496)"></path>
  <path id="SvgjsPath1022"
        d="M1404.11 4529.4C1403.7299999999998 4528.969999999999 1403.36 4528.53 1403 4528.08C1404.78 4527.25 1406.5 4526.3 1408.13 4525.24C1408.47 4525.63 1408.8200000000002 4526.01 1409.17 4526.389999999999C1407.5700000000002 4527.509999999999 1405.88 4528.5199999999995 1404.1100000000001 4529.4ZM1410.68 4525.29C1410.3400000000001 4524.92 1410 4524.56 1409.68 4524.18C1410.8200000000002 4523.360000000001 1411.92 4522.47 1412.97 4521.530000000001C1413.28 4521.880000000001 1413.59 4522.210000000001 1413.9 4522.540000000001C1412.88 4523.510000000001 1411.8100000000002 4524.430000000001 1410.68 4525.290000000001ZM1415.03 4521.43C1414.72 4521.110000000001 1414.42 4520.79 1414.1299999999999 4520.46C1414.9999999999998 4519.63 1415.83 4518.76 1416.62 4517.85C1416.8799999999999 4518.150000000001 1417.1499999999999 4518.450000000001 1417.4299999999998 4518.75C1416.6699999999998 4519.68 1415.87 4520.57 1415.0299999999997 4521.43ZM1418.27 4517.68C1422.73 4511.84 1425.6399999999999 4504.76 1426.3799999999999 4497.05L1426.34 4497.04L1426.1699999999998 4497C1425.11 4504.44 1422.0199999999998 4511.24 1417.4899999999998 4516.81C1417.7499999999998 4517.110000000001 1417.9999999999998 4517.400000000001 1418.2699999999998 4517.68Z "
        fill="url(#SvgjsLinearGradient1023)" transform="matrix(1,0,0,1,-1396,-4496)"></path>
</svg>
