<svg xmlns="http://www.w3.org/2000/svg" width="137" height="46">
  <path
    d="M13.97 11.06s-3.79-1.62-4.33-1.62c-3.27 0-4.21 1.91-4.21 4.65 0 2.64 1.39 4.57 4.05 4.57 3.18 0 5.4-2.25 5.4-2.25L17 19.13s-1.83 3.97-7.76 3.97C2.79 23.1 0 19.34 0 14.09S3.03 5 9.3 5c5.14 0 6.65 2.66 6.65 2.66zM67.06 22.98h-5.12v-9.85h-.18l-3.66 9.85h-5.14l-3.69-9.85h-.15v9.85H44V6h6.95l4.46 11.91h.21L60.11 6h6.95zM75.96 10v4.38h.89c1.64 0 2.77-.49 2.77-2.19 0-1.75-1.28-2.19-2.77-2.19zM71 6h6.79c4.62 0 7.28 1.91 7.28 5.98 0 4.44-3.86 6.24-7.15 6.24h-1.96v4.76H71zM94.37 9.79l-2.01 6.84h4.05l-1.93-6.84zM98.05 6l5.91 16.98H98.5l-.99-2.85h-6.19l-.94 2.85H85L90.9 6zM110.96 10v4.38h.92c2.16 0 2.76-.75 2.76-2.19 0-1.49-.75-2.19-2.76-2.19zm6.22 6.89l3.83 6.09h-6.11l-2.87-5.02h-1.07v5.02H106V6h6.81c4.68 0 7.29 2.17 7.29 5.98 0 2.38-1.25 3.97-2.92 4.91zM136.95 22.98H124V6h12.66v4.2h-7.33v2.2h6.32v4.05h-6.32v2.32h7.62zM12 28h5.33v6.45l.94-.5L22.84 28h5.95l-6.48 7.99 7.08 8.99h-6.24l-4.83-6.19-.99.52v5.67H12zM59.76 43.98h-5.64l-6.55-10.06h-.11l.14 2.04v8.02H43V27h5.56l6.61 10.21h.1l-.13-1.56V27h4.62zM75.32 38.86v-.45h-2.55v-4.07h7.07v10.19h-3.73l-.58-1.1c-.94.96-2.27 1.67-4.12 1.67-5.62 0-8.41-3.53-8.41-9.01 0-5.36 3.52-9.09 9.45-9.09 4.7 0 6.71 2.25 6.71 2.25l-1.51 3.52s-4.52-1.33-4.75-1.33c-3.48 0-4.47 1.91-4.47 4.68 0 3.08 1.83 4.54 4.13 4.54 2.16 0 2.66-1.23 2.76-1.8M23.16 12.37c0-3.98 3.23-7.21 7.21-7.21s7.21 3.23 7.21 7.21c0 3.99-3.23 7.22-7.21 7.22s-7.21-3.23-7.21-7.22zm-5.16 0c0 6.84 5.54 12.38 12.37 12.38 6.83 0 12.37-5.54 12.37-12.38C42.74 5.54 37.2 0 30.37 0 23.54 0 18 5.54 18 12.37zM35.89 28.58l3.4 13.53c.41 1.63-.8 3.3-2.71 3.74-1.91.44-3.78-.52-4.19-2.15-.03-.12-.06-.26-.07-.39l-1.31-13.89c-.11-1.17.9-2.24 2.26-2.4 1.26-.15 2.37.54 2.62 1.56M81 43.43c0-.84.57-1.43 1.36-1.43.79 0 1.34.59 1.34 1.43 0 .82-.52 1.43-1.36 1.43-.8 0-1.34-.61-1.34-1.43M85.09 36.22c0-1.13-.02-2.06-.09-2.97h1.77l.11 1.81h.05c.54-1.04 1.81-2.06 3.62-2.06 1.52 0 3.88.91 3.88 4.67v6.56h-1.99V37.9c0-1.77-.66-3.24-2.54-3.24-1.32 0-2.34.93-2.68 2.04-.09.25-.13.59-.13.93v6.6h-2zM100.35 42.98c1.9 0 3.33-1.79 3.33-4.27 0-1.85-.93-4.21-3.28-4.21-2.36 0-3.38 2.17-3.38 4.26 0 2.4 1.38 4.22 3.33 4.22zm-.09 1.49c-2.97 0-5.26-2.17-5.26-5.64 0-3.68 2.4-5.83 5.44-5.83 3.15 0 5.28 2.29 5.28 5.65 0 4.06-2.81 5.82-5.46 5.82z"
    fill="#030e1a"/>
</svg>
