<svg xmlns="http://www.w3.org/2000/svg" width="167" height="48">
  <path
    d="M67 6c.8 0 1.59.09 2.36.28.77.18 1.6.49 2.49.94v2.59c-.87-.5-1.67-.87-2.41-1.09a7.8 7.8 0 0 0-2.32-.34c-1.01 0-1.92.21-2.73.63-.81.42-1.44 1.01-1.89 1.77-.45.77-.67 1.61-.67 2.55 0 .95.22 1.81.67 2.56.44.76 1.07 1.34 1.88 1.75.81.42 1.73.62 2.74.62.78 0 1.52-.11 2.23-.33.7-.23 1.59-.63 2.67-1.22v2.6c-.92.48-1.77.82-2.54 1.03-.77.2-1.67.3-2.69.3-1.5 0-2.83-.3-4.01-.9a6.652 6.652 0 0 1-2.77-2.59 7.094 7.094 0 0 1-1.01-3.7c0-1.44.35-2.73 1.04-3.87a6.906 6.906 0 0 1 2.86-2.65C64.11 6.31 65.48 6 67 6zM84.22 8.14c.82.76 1.23 1.76 1.23 2.98 0 .83-.2 1.56-.61 2.17-.41.62-1.01 1.11-1.82 1.47.45.25.84.59 1.19 1.02.34.44.77 1.17 1.28 2.2.86 1.77 1.49 2.99 1.9 3.66h-3c-.21-.32-.49-.83-.84-1.54-.77-1.56-1.34-2.61-1.7-3.15-.35-.54-.7-.92-1.03-1.15-.34-.23-.72-.34-1.15-.34h-.98v6.18H76V7h5.02c1.31 0 2.37.38 3.2 1.14zm-2.15 4.55c.4-.37.6-.88.6-1.52 0-.67-.2-1.17-.6-1.5-.4-.33-.96-.5-1.7-.5h-1.68v4.08h1.72c.7 0 1.26-.19 1.66-.56zM98.61 7v2.21h-6.74v3.85h6.46v2.21h-6.46v4.16h6.89v2.21H89V7zM111.11 7.93a6.72 6.72 0 0 1 2.74 2.62c.65 1.13.98 2.39.98 3.8 0 1.43-.33 2.7-.98 3.81-.66 1.11-1.59 1.96-2.79 2.57-1.21.61-2.59.91-4.15.91H101V7h6.08c1.51 0 2.85.31 4.03.93zm-.59 10.09c.94-.94 1.41-2.17 1.41-3.69 0-1.58-.47-2.83-1.42-3.74-.94-.92-2.22-1.38-3.82-1.38h-2.88v10.22h2.98c1.55 0 2.79-.47 3.73-1.41zM119.44 7v14.64H117V7zM135.02 7v2.21h-5.12v12.43h-2.78V9.21H122V7h13.02zM147.65 6.91c1.16.61 2.09 1.49 2.78 2.64a7.3 7.3 0 0 1 1.03 3.78c0 1.33-.34 2.57-1.01 3.71a6.953 6.953 0 0 1-2.77 2.66c-1.17.63-2.49.94-3.96.94-1.45 0-2.77-.32-3.96-.96-1.18-.64-2.11-1.52-2.77-2.64-.66-1.12-.99-2.36-.99-3.71 0-1.31.33-2.54.99-3.69a6.923 6.923 0 0 1 2.74-2.68c1.16-.64 2.5-.96 4.01-.96 1.45 0 2.75.3 3.91.91zm-8.22 8.97c.42.76 1.01 1.34 1.76 1.76.75.42 1.6.62 2.55.62 1.44 0 2.62-.46 3.54-1.38.93-.92 1.39-2.1 1.39-3.55 0-.95-.21-1.8-.63-2.56-.41-.76-1-1.35-1.76-1.77-.76-.41-1.61-.62-2.56-.62s-1.8.21-2.56.63a4.3 4.3 0 0 0-1.75 1.76c-.41.75-.61 1.6-.61 2.56 0 .94.21 1.8.63 2.55zM163.22 8.14c.82.76 1.23 1.76 1.23 2.98 0 .83-.2 1.56-.61 2.17-.41.62-1.01 1.11-1.82 1.47.45.25.84.59 1.19 1.02.34.44.77 1.17 1.28 2.2.86 1.77 1.49 2.99 1.9 3.66h-3c-.21-.32-.49-.83-.84-1.54-.77-1.56-1.34-2.61-1.7-3.15-.35-.54-.7-.92-1.03-1.15-.34-.23-.72-.34-1.15-.34h-.98v6.18H155V7h5.02c1.31 0 2.37.38 3.2 1.14zm-2.15 4.55c.4-.37.6-.88.6-1.52 0-.67-.2-1.17-.6-1.5-.4-.33-.96-.5-1.7-.5h-1.68v4.08h1.72c.7 0 1.26-.19 1.66-.56zM67.21 27c1.79 0 3.57.39 5.33 1.18v2.52c-1.76-.88-3.5-1.32-5.2-1.32-1.07 0-2.01.21-2.83.62-.83.42-1.47 1.02-1.92 1.8-.46.78-.69 1.65-.69 2.61 0 1.46.5 2.63 1.49 3.52.99.89 2.29 1.33 3.9 1.33.45 0 .87-.03 1.28-.11.4-.07.89-.22 1.45-.43v-2.37h-2.4v-2.16h5.21v5.89c-.71.49-1.57.87-2.58 1.15-1 .28-2.04.41-3.12.41-1.54 0-2.92-.31-4.17-.93-1.25-.62-2.22-1.48-2.91-2.6-.7-1.12-1.05-2.37-1.05-3.74 0-1.4.35-2.66 1.06-3.79.7-1.13 1.68-2.01 2.94-2.64 1.26-.63 2.66-.94 4.21-.94zM78.76 27v8.41c0 .87.13 1.55.39 2.06.25.51.67.93 1.25 1.27.57.33 1.25.49 2.02.49.84 0 1.56-.15 2.14-.47.59-.31 1.02-.74 1.29-1.28.28-.54.41-1.29.41-2.25V27h2.76v8.59c0 1.95-.58 3.44-1.73 4.49-1.15 1.04-2.77 1.56-4.87 1.56-1.32 0-2.47-.23-3.44-.71-.97-.48-1.7-1.16-2.21-2.06-.51-.91-.77-1.96-.77-3.18V27h2.76zM105.46 41.64h-3l-1.53-3.56H94.4l-1.42 3.56H90L96.06 27h2.91zm-5.45-5.71l-2.49-5.8-2.26 5.8zM115.22 28.14c.82.76 1.23 1.76 1.23 2.98 0 .83-.2 1.56-.61 2.17-.41.62-1.01 1.11-1.82 1.47.45.25.84.59 1.19 1.02.34.44.77 1.17 1.28 2.2.86 1.77 1.49 2.99 1.9 3.66h-3c-.21-.32-.49-.83-.84-1.54-.77-1.56-1.34-2.61-1.7-3.15-.35-.54-.7-.92-1.03-1.15-.34-.23-.72-.34-1.15-.34h-.98v6.18H107V27h5.02c1.31 0 2.37.38 3.2 1.14zm-2.15 4.55c.4-.37.6-.88.6-1.52 0-.67-.2-1.17-.6-1.5-.4-.33-.96-.5-1.7-.5h-1.68v4.08h1.72c.7 0 1.26-.19 1.66-.56zM130.11 27.93a6.72 6.72 0 0 1 2.74 2.62c.65 1.13.98 2.39.98 3.8 0 1.43-.33 2.7-.98 3.81-.66 1.11-1.59 1.96-2.79 2.57-1.21.61-2.59.91-4.15.91H120V27h6.08c1.51 0 2.85.31 4.03.93zm-.59 10.09c.94-.94 1.41-2.17 1.41-3.69 0-1.58-.47-2.83-1.42-3.74-.94-.92-2.22-1.38-3.82-1.38h-2.88v10.22h2.98c1.55 0 2.79-.47 3.73-1.41zM40.48 30.96c0 .41-.17.81-.46 1.1-3.14 3.18-12.18 12.31-15.33 15.48-.29.3-.69.46-1.1.46-.41 0-.8-.16-1.09-.46-3.15-3.17-12.19-12.3-15.34-15.48a1.583 1.583 0 0 1 0-2.21c3.15-3.17 12.19-12.3 15.34-15.48a1.56 1.56 0 0 1 2.19 0c1.21 1.23 3.16 3.2 4.38 4.43a1.583 1.583 0 0 1 0 2.21l-8.76 8.84c-.61.61-.61 1.6 0 2.21.67.68 1.52 1.54 2.19 2.21.6.62 1.58.62 2.19 0 .67-.67 1.52-1.53 2.19-2.21.6-.61.6-1.6 0-2.21a1.56 1.56 0 0 1-.45-1.1c0-.42.16-.82.45-1.11 1.22-1.23 3.17-3.19 4.38-4.42.29-.3.69-.46 1.1-.46.41 0 .8.16 1.09.46 1.69 1.7 4.89 4.93 6.57 6.63.29.3.46.69.46 1.11zM23.59 0S8.68 3.92 2.32 5.6A3.125 3.125 0 0 0 .06 9.23c.84 4.3 2.41 12.35 3.25 16.64a1.55 1.55 0 0 0 2.62.8C9.67 22.9 17.56 14.93 21.4 11.06c.58-.59 1.37-.92 2.19-.92.82 0 1.61.33 2.19.92 3.84 3.87 11.74 11.84 15.48 15.61.4.41 1 .56 1.54.39.55-.16.96-.62 1.07-1.19.84-4.29 2.42-12.34 3.26-16.64.31-1.62-.67-3.21-2.26-3.63C38.51 3.92 23.59 0 23.59 0z"
    fill="#030e1a"/>
</svg>
