<svg xmlns="http://www.w3.org/2000/svg" width="180" height="54"><path d="M66.32 14.24v10.72h-3.73V14.24H59V11h11.09v3.24h-3.77M75.73 14.05v2.55h5.97v2.59h-5.97v2.72h6.5v3.05H72V11h10.1v3.05h-6.37M91.11 13.79h-.04l-1.7 6.05h3.47zm-2.54 8.77l-.69 2.4H84L88.2 11h5.67l4.26 13.96h-3.81l-.73-2.4zM102.36 14.26l.37 10.7H99V11h5.91l2.67 8.77h.14l2.53-8.77h6.07v13.96h-3.73l.37-10.7h-.13l-3.55 10.7h-3.23l-3.58-10.7h-.11M66.32 31.24v10.72h-3.73V31.24H59V28h11.09v3.24h-3.77M75.73 31.05v2.55h5.97v2.59h-5.97v2.72h6.5v3.05H72V28h10.1v3.05h-6.37M97.97 28l-3.86 6.78 4.16 7.18h-4.34l-2.78-5.38-2.76 5.38H84l4.2-7.18L84.26 28h4.37l2.52 5.12L93.68 28h4.29" fill="#030e1a"/><path d="M105.32 31.24v10.72h-3.73V31.24H98V28h11.08v3.24h-3.76M114.73 38.91h2.82c.42 0 .75-.04 1-.12.24-.08.43-.22.54-.43.12-.2.18-.49.18-.87 0-.55-.12-.91-.35-1.07-.22-.17-.66-.25-1.29-.25h-2.9zm0-5.33h2.69c.46 0 .8-.03 1.02-.1.22-.07.38-.2.47-.39.09-.18.13-.47.13-.85 0-.44-.08-.75-.23-.92-.15-.18-.47-.27-.94-.27h-3.14zM111 28h7.35c1.02 0 1.84.09 2.47.27.63.18 1.11.54 1.45 1.06.33.52.5 1.27.5 2.24 0 .65-.05 1.19-.17 1.62-.12.42-.33.77-.66 1.05-.32.27-.77.46-1.37.55v.15c.66.04 1.16.2 1.52.46.36.27.6.61.72 1.04.12.43.19.98.19 1.63 0 1.1-.17 1.93-.51 2.49-.34.57-.82.94-1.46 1.13-.64.18-1.51.27-2.6.27H111zM132.08 38.8c.36-.1.62-.31.78-.63.17-.33.25-.83.25-1.51v-3.15c0-.52-.05-.93-.14-1.23-.09-.3-.24-.52-.44-.67-.2-.15-.46-.25-.78-.3-.32-.05-.74-.07-1.28-.07-.7 0-1.23.05-1.58.15-.35.09-.61.3-.77.62-.17.32-.26.82-.27 1.5v3.15c.01.68.1 1.19.27 1.51.16.32.42.53.77.63.35.1.88.15 1.58.15.72 0 1.25-.05 1.61-.15zm-4.31 3.17c-.76-.14-1.43-.39-1.99-.76-.57-.37-1.01-.89-1.32-1.57-.31-.68-.46-1.54-.46-2.57v-3.95c0-1.04.16-1.9.47-2.58.31-.68.75-1.2 1.31-1.57.56-.36 1.23-.61 1.99-.76.77-.14 1.67-.21 2.7-.21 1.04 0 1.95.07 2.71.21.77.15 1.44.4 2 .76.56.37 1 .89 1.31 1.57.31.68.46 1.54.46 2.58v3.95c0 1.03-.15 1.89-.46 2.57-.31.68-.74 1.2-1.31 1.57-.56.37-1.23.62-2 .76-.76.15-1.67.22-2.71.22-1.03 0-1.93-.07-2.7-.22zM147.08 38.8c.36-.1.62-.31.78-.63.17-.33.25-.83.25-1.51v-3.15c0-.52-.05-.93-.14-1.23-.09-.3-.24-.52-.44-.67-.2-.15-.46-.25-.78-.3-.31-.05-.74-.07-1.27-.07-.71 0-1.24.05-1.59.15-.35.09-.61.3-.77.62-.16.32-.26.82-.27 1.5v3.15c.01.68.1 1.19.27 1.51.16.32.42.53.77.63.35.1.88.15 1.59.15.71 0 1.24-.05 1.6-.15zm-4.31 3.17c-.76-.14-1.43-.39-1.99-.76-.57-.37-1.01-.89-1.31-1.57-.32-.68-.47-1.54-.47-2.57v-3.95c0-1.04.16-1.9.47-2.58.31-.68.75-1.2 1.31-1.57.56-.36 1.23-.61 1.99-.76.77-.14 1.67-.21 2.71-.21 1.03 0 1.94.07 2.7.21.77.15 1.44.4 2 .76.56.37 1 .89 1.31 1.57.31.68.46 1.54.46 2.58v3.95c0 1.03-.15 1.89-.46 2.57-.31.68-.74 1.2-1.31 1.57-.56.37-1.23.62-2 .76-.76.15-1.67.22-2.7.22-1.04 0-1.94-.07-2.71-.22zM157.73 28v5.25h1.12l3.61-5.25h4.51l-4.92 6.85 5.33 7.11h-4.63l-3.9-5.47h-1.12v5.47H154V28h3.73M168 37.53h3.58c0 .48.07.83.21 1.06.13.23.36.37.68.44.32.07.81.1 1.46.1.64 0 1.11-.02 1.43-.08.32-.05.55-.17.69-.35.14-.18.22-.47.22-.85 0-.42-.05-.7-.13-.86-.08-.16-.24-.27-.47-.31-.24-.05-.69-.09-1.37-.14l-.81-.05c-1.15-.09-2-.17-2.56-.26s-1.06-.26-1.52-.53c-.45-.26-.79-.67-1.03-1.22-.24-.54-.36-1.28-.36-2.22 0-1.21.23-2.12.69-2.74.45-.62 1.1-1.03 1.92-1.22.83-.2 1.93-.3 3.3-.3 1.34 0 2.41.1 3.21.29.8.2 1.41.58 1.83 1.15.42.57.64 1.39.64 2.47v.58h-3.59c0-.47-.06-.8-.2-1a.904.904 0 0 0-.6-.37c-.26-.04-.69-.07-1.29-.07-.64 0-1.12.05-1.44.13-.31.09-.51.21-.61.38-.09.16-.13.39-.13.68 0 .36.06.62.17.79.11.16.26.27.45.32.18.05.49.09.91.13l1.55.1c1.09.08 1.96.19 2.61.33.64.15 1.15.36 1.53.64.38.28.64.67.8 1.15.15.48.23 1.11.23 1.91 0 1.02-.08 1.82-.23 2.4-.15.57-.43 1.02-.83 1.34-.41.32-1 .53-1.78.66-.78.12-1.85.18-3.23.18-1.08 0-1.98-.06-2.69-.16-.7-.1-1.3-.31-1.78-.63-.49-.31-.85-.78-1.09-1.4-.25-.62-.37-1.45-.37-2.47M43.86 51.83c0 1.02-9.37 1.84-20.93 1.84S2 52.85 2 51.83C2 50.82 11.37 50 22.93 50s20.93.82 20.93 1.83M14.79 14L12 26.98h9.67l-1.11-2c-.9-1.64-1.22-6.04-.68-9.41l.25-1.57zm4.59 11.63h-5.7l2.21-10.28h2.65c-.55 3.43-.3 8.22.84 10.28z" fill="#030e1a"/><path d="M46.68 17.05c.8 1.39 1.73 2.49 1.73 2.49l-3.68.43c.65-.87 1.34-1.88 1.95-2.92zm6.56 1.31c-.72-4.61-3.98-7.1-5.76-8.14-.15-.11-.31-.21-.49-.3-.47-.22-.96-.42-1.47-.6l1.84-2.98.76.28c.8-1.73 1-3.43-.4-4.5-1.66-1.28-5.24-1.63-6.91-.18-1.32 1.15-2.33 2.88-2.9 4.54-4.49-1.73-7.94-.18-7.94-.18l-1.06 1.91c-4.1.72-9.27 2.02-10.13 4.04-.29.65-.51 1.52-.66 2.49-.55 3.43-.31 8.22.83 10.28.23.4.48.7.78.87 2.2 1.22 5.03-.86 5.03-.86l-.01-.01-.85-3.54-1.84-.12 1.65-6.21 8.31.03-3.36 9.84h-1.84l-.56 1.66s-.26.45-.58 1.13c-4.99 6.39-6.87 13.67-6.87 13.67l-1.63.25-8.34 7.34L7 53.11l7.56.51.78-2.1-1.96-.98-.98-1.23 10.55-5.87 7.92-8.52c3.77-.42 7.87-1.82 8.02-1.87l-3.79 6.43-.01.02-2.73 1.25.64 2.89 1.61 5.18s1.34-.32 1.48-.36c.13-.05.36-3.72.36-3.72s.29-1.81 1.22-3.26l.91-1.07h.01c.15-.13.25-.25.31-.37l5.88-6.87c.69-.81 2.77-4.16 2.36-5.22a3.003 3.003 0 0 0-2.39-1.91l-7.31.36c.89-1.11 1.84-2.04 2.97-2.73 5.2-.07 13.53-.86 12.83-5.31z" fill="#030e1a"/><path d="M20 22.81l1.63.11-1.46 3.66h9.14l4.28-12.54h-1.88L23.4 14h-1.05zm11.7-7.42l-3.36 9.84h-6.17l1.4-3.54-1.83-.12 1.65-6.21zM2.36 4L0 14.46h14.92L17.28 4zm11.48 9.1H1.7l1.74-7.75h12.15zM3.41 17L2 23.24h8.31L11.72 17zm5.82 4.88H3.7l.79-3.53h5.53zM66.32 14.24v10.72h-3.73V14.24H59V11h11.09v3.24h-3.77M75.73 14.05v2.55h5.97v2.59h-5.97v2.72h6.5v3.05H72V11h10.1v3.05h-6.37M91.11 13.79h-.04l-1.7 6.05h3.47zm-2.54 8.77l-.69 2.4H84L88.2 11h5.67l4.26 13.96h-3.81l-.73-2.4zM102.36 14.26l.37 10.7H99V11h5.91l2.67 8.77h.14l2.53-8.77h6.07v13.96h-3.73l.37-10.7h-.13l-3.55 10.7h-3.23l-3.58-10.7h-.11M66.32 31.24v10.72h-3.73V31.24H59V28h11.09v3.24h-3.77M75.73 31.05v2.55h5.97v2.59h-5.97v2.72h6.5v3.05H72V28h10.1v3.05h-6.37M97.97 28l-3.86 6.78 4.16 7.18h-4.34l-2.78-5.38-2.76 5.38H84l4.2-7.18L84.26 28h4.37l2.52 5.12L93.68 28h4.29" fill="#030e1a"/><path d="M105.32 31.24v10.72h-3.73V31.24H98V28h11.08v3.24h-3.76M114.73 38.91h2.82c.42 0 .75-.04 1-.12.24-.08.43-.22.54-.43.12-.2.18-.49.18-.87 0-.55-.12-.91-.35-1.07-.22-.17-.66-.25-1.29-.25h-2.9zm0-5.33h2.69c.46 0 .8-.03 1.02-.1.22-.07.38-.2.47-.39.09-.18.13-.47.13-.85 0-.44-.08-.75-.23-.92-.15-.18-.47-.27-.94-.27h-3.14zM111 28h7.35c1.02 0 1.84.09 2.47.27.63.18 1.11.54 1.45 1.06.33.52.5 1.27.5 2.24 0 .65-.05 1.19-.17 1.62-.12.42-.33.77-.66 1.05-.32.27-.77.46-1.37.55v.15c.66.04 1.16.2 1.52.46.36.27.6.61.72 1.04.12.43.19.98.19 1.63 0 1.1-.17 1.93-.51 2.49-.34.57-.82.94-1.46 1.13-.64.18-1.51.27-2.6.27H111zM132.08 38.8c.36-.1.62-.31.78-.63.17-.33.25-.83.25-1.51v-3.15c0-.52-.05-.93-.14-1.23-.09-.3-.24-.52-.44-.67-.2-.15-.46-.25-.78-.3-.32-.05-.74-.07-1.28-.07-.7 0-1.23.05-1.58.15-.35.09-.61.3-.77.62-.17.32-.26.82-.27 1.5v3.15c.01.68.1 1.19.27 1.51.16.32.42.53.77.63.35.1.88.15 1.58.15.72 0 1.25-.05 1.61-.15zm-4.31 3.17c-.76-.14-1.43-.39-1.99-.76-.57-.37-1.01-.89-1.32-1.57-.31-.68-.46-1.54-.46-2.57v-3.95c0-1.04.16-1.9.47-2.58.31-.68.75-1.2 1.31-1.57.56-.36 1.23-.61 1.99-.76.77-.14 1.67-.21 2.7-.21 1.04 0 1.95.07 2.71.21.77.15 1.44.4 2 .76.56.37 1 .89 1.31 1.57.31.68.46 1.54.46 2.58v3.95c0 1.03-.15 1.89-.46 2.57-.31.68-.74 1.2-1.31 1.57-.56.37-1.23.62-2 .76-.76.15-1.67.22-2.71.22-1.03 0-1.93-.07-2.7-.22zM147.08 38.8c.36-.1.62-.31.78-.63.17-.33.25-.83.25-1.51v-3.15c0-.52-.05-.93-.14-1.23-.09-.3-.24-.52-.44-.67-.2-.15-.46-.25-.78-.3-.31-.05-.74-.07-1.27-.07-.71 0-1.24.05-1.59.15-.35.09-.61.3-.77.62-.16.32-.26.82-.27 1.5v3.15c.01.68.1 1.19.27 1.51.16.32.42.53.77.63.35.1.88.15 1.59.15.71 0 1.24-.05 1.6-.15zm-4.31 3.17c-.76-.14-1.43-.39-1.99-.76-.57-.37-1.01-.89-1.31-1.57-.32-.68-.47-1.54-.47-2.57v-3.95c0-1.04.16-1.9.47-2.58.31-.68.75-1.2 1.31-1.57.56-.36 1.23-.61 1.99-.76.77-.14 1.67-.21 2.71-.21 1.03 0 1.94.07 2.7.21.77.15 1.44.4 2 .76.56.37 1 .89 1.31 1.57.31.68.46 1.54.46 2.58v3.95c0 1.03-.15 1.89-.46 2.57-.31.68-.74 1.2-1.31 1.57-.56.37-1.23.62-2 .76-.76.15-1.67.22-2.7.22-1.04 0-1.94-.07-2.71-.22zM157.73 28v5.25h1.12l3.61-5.25h4.51l-4.92 6.85 5.33 7.11h-4.63l-3.9-5.47h-1.12v5.47H154V28h3.73M168 37.53h3.58c0 .48.07.83.21 1.06.13.23.36.37.68.44.32.07.81.1 1.46.1.64 0 1.11-.02 1.43-.08.32-.05.55-.17.69-.35.14-.18.22-.47.22-.85 0-.42-.05-.7-.13-.86-.08-.16-.24-.27-.47-.31-.24-.05-.69-.09-1.37-.14l-.81-.05c-1.15-.09-2-.17-2.56-.26s-1.06-.26-1.52-.53c-.45-.26-.79-.67-1.03-1.22-.24-.54-.36-1.28-.36-2.22 0-1.21.23-2.12.69-2.74.45-.62 1.1-1.03 1.92-1.22.83-.2 1.93-.3 3.3-.3 1.34 0 2.41.1 3.21.29.8.2 1.41.58 1.83 1.15.42.57.64 1.39.64 2.47v.58h-3.59c0-.47-.06-.8-.2-1a.904.904 0 0 0-.6-.37c-.26-.04-.69-.07-1.29-.07-.64 0-1.12.05-1.44.13-.31.09-.51.21-.61.38-.09.16-.13.39-.13.68 0 .36.06.62.17.79.11.16.26.27.45.32.18.05.49.09.91.13l1.55.1c1.09.08 1.96.19 2.61.33.64.15 1.15.36 1.53.64.38.28.64.67.8 1.15.15.48.23 1.11.23 1.91 0 1.02-.08 1.82-.23 2.4-.15.57-.43 1.02-.83 1.34-.41.32-1 .53-1.78.66-.78.12-1.85.18-3.23.18-1.08 0-1.98-.06-2.69-.16-.7-.1-1.3-.31-1.78-.63-.49-.31-.85-.78-1.09-1.4-.25-.62-.37-1.45-.37-2.47M43.86 51.83c0 1.02-9.37 1.84-20.93 1.84S2 52.85 2 51.83C2 50.82 11.37 50 22.93 50s20.93.82 20.93 1.83M14.79 14L12 26.98h9.67l-1.11-2c-.9-1.64-1.22-6.04-.68-9.41l.25-1.57zm4.59 11.63h-5.7l2.21-10.28h2.65c-.55 3.43-.3 8.22.84 10.28z" fill="#030e1a"/><path d="M46.68 17.05c.8 1.39 1.73 2.49 1.73 2.49l-3.68.43c.65-.87 1.34-1.88 1.95-2.92zm6.56 1.31c-.72-4.61-3.98-7.1-5.76-8.14-.15-.11-.31-.21-.49-.3-.47-.22-.96-.42-1.47-.6l1.84-2.98.76.28c.8-1.73 1-3.43-.4-4.5-1.66-1.28-5.24-1.63-6.91-.18-1.32 1.15-2.33 2.88-2.9 4.54-4.49-1.73-7.94-.18-7.94-.18l-1.06 1.91c-4.1.72-9.27 2.02-10.13 4.04-.29.65-.51 1.52-.66 2.49-.55 3.43-.31 8.22.83 10.28.23.4.48.7.78.87 2.2 1.22 5.03-.86 5.03-.86l-.01-.01-.85-3.54-1.84-.12 1.65-6.21 8.31.03-3.36 9.84h-1.84l-.56 1.66s-.26.45-.58 1.13c-4.99 6.39-6.87 13.67-6.87 13.67l-1.63.25-8.34 7.34L7 53.11l7.56.51.78-2.1-1.96-.98-.98-1.23 10.55-5.87 7.92-8.52c3.77-.42 7.87-1.82 8.02-1.87l-3.79 6.43-.01.02-2.73 1.25.64 2.89 1.61 5.18s1.34-.32 1.48-.36c.13-.05.36-3.72.36-3.72s.29-1.81 1.22-3.26l.91-1.07h.01c.15-.13.25-.25.31-.37l5.88-6.87c.69-.81 2.77-4.16 2.36-5.22a3.003 3.003 0 0 0-2.39-1.91l-7.31.36c.89-1.11 1.84-2.04 2.97-2.73 5.2-.07 13.53-.86 12.83-5.31z" fill="#030e1a"/><path d="M20 22.81l1.63.11-1.46 3.66h9.14l4.28-12.54h-1.88L23.4 14h-1.05zm11.7-7.42l-3.36 9.84h-6.17l1.4-3.54-1.83-.12 1.65-6.21zM2.36 4L0 14.46h14.92L17.28 4zm11.48 9.1H1.7l1.74-7.75h12.15zM3.41 17L2 23.24h8.31L11.72 17zm5.82 4.88H3.7l.79-3.53h5.53z" fill="#030e1a"/></svg>