<svg xmlns="http://www.w3.org/2000/svg" width="115" height="16"><path d="M113.27 1.61v-.34h.23c.11 0 .18.07.18.17 0 .11-.07.17-.18.17zm.26-.61H113v1.3h.27v-.42h.16l.33.42h.35l-.37-.47a.44.44 0 0 0-.21-.83z" fill="#fff"/><path d="M112.27 1.4c0-.62.5-1.13 1.13-1.13.62 0 1.12.51 1.12 1.13 0 .62-.5 1.13-1.12 1.13-.63 0-1.13-.51-1.13-1.13zm-.27 0a1.396 1.396 0 0 0 2.79 0 1.396 1.396 0 0 0-2.79 0zM58 15.54h1.68c.68 0 1.24-.56 1.24-1.25V0h-1.67C58.56 0 58 .56 58 1.25zM81.99 11.92L67.25.26c-.21-.17-.47-.26-.73-.26h-1.33C64.53 0 64 .53 64 1.19v14.35h1.67c.69 0 1.25-.57 1.25-1.26V3.62l14.74 11.66c.21.17.47.26.74.26h1.33c.65 0 1.18-.53 1.18-1.19V1.25c0-.69-.56-1.25-1.25-1.25h-1.67zM41.96 11.18L32.95.42c-.22-.26-.56-.42-.91-.42h-1.85C29.53 0 29 .53 29 1.19v14.35h1.67c.69 0 1.25-.57 1.25-1.26V3.75l9.13 10.89c.48.57 1.35.57 1.82 0L52 3.75v11.79h1.67c.69 0 1.25-.57 1.25-1.26V1.19c0-.66-.53-1.19-1.18-1.19h-1.86c-.35 0-.68.16-.91.42zM0 15.54h1.68c.68 0 1.24-.56 1.24-1.25V0H1.25C.56 0 0 .56 0 1.25zM6.98 0C6.44 0 6 .44 6 .98v1.94h8.81v12.62h1.68c.69 0 1.24-.56 1.24-1.25V2.92h7.84c.54 0 .97-.43.97-.97V0zM88.98 0c-.54 0-.98.44-.98.98v1.94h8.81v12.62h1.68c.69 0 1.24-.56 1.24-1.25V2.92h7.84c.54 0 .97-.43.97-.97V0z" fill="#fff"/><path d="M113.27 1.61v-.34h.23c.11 0 .18.07.18.17 0 .11-.07.17-.18.17zm.26-.61H113v1.3h.27v-.42h.16l.33.42h.35l-.37-.47a.44.44 0 0 0-.21-.83z" fill="#fff"/><path d="M112.27 1.4c0-.62.5-1.13 1.13-1.13.62 0 1.12.51 1.12 1.13 0 .62-.5 1.13-1.12 1.13-.63 0-1.13-.51-1.13-1.13zm-.27 0a1.396 1.396 0 0 0 2.79 0 1.396 1.396 0 0 0-2.79 0zM58 15.54h1.68c.68 0 1.24-.56 1.24-1.25V0h-1.67C58.56 0 58 .56 58 1.25zM81.99 11.92L67.25.26c-.21-.17-.47-.26-.73-.26h-1.33C64.53 0 64 .53 64 1.19v14.35h1.67c.69 0 1.25-.57 1.25-1.26V3.62l14.74 11.66c.21.17.47.26.74.26h1.33c.65 0 1.18-.53 1.18-1.19V1.25c0-.69-.56-1.25-1.25-1.25h-1.67zM41.96 11.18L32.95.42c-.22-.26-.56-.42-.91-.42h-1.85C29.53 0 29 .53 29 1.19v14.35h1.67c.69 0 1.25-.57 1.25-1.26V3.75l9.13 10.89c.48.57 1.35.57 1.82 0L52 3.75v11.79h1.67c.69 0 1.25-.57 1.25-1.26V1.19c0-.66-.53-1.19-1.18-1.19h-1.86c-.35 0-.68.16-.91.42zM0 15.54h1.68c.68 0 1.24-.56 1.24-1.25V0H1.25C.56 0 0 .56 0 1.25zM6.98 0C6.44 0 6 .44 6 .98v1.94h8.81v12.62h1.68c.69 0 1.24-.56 1.24-1.25V2.92h7.84c.54 0 .97-.43.97-.97V0zM88.98 0c-.54 0-.98.44-.98.98v1.94h8.81v12.62h1.68c.69 0 1.24-.56 1.24-1.25V2.92h7.84c.54 0 .97-.43.97-.97V0z" fill="#fff"/></svg>