<svg xmlns="http://www.w3.org/2000/svg" width="192" height="27"><path d="M35.9 15.87h2.78c2.48 0 4.08-1.56 4.08-4.06 0-2.5-1.6-4.06-4.08-4.06H35.9zM38.68 5c3.88 0 7.01 2.8 7.01 6.81 0 4.06-3.13 6.84-7.01 6.84h-5.33c-.23 0-.35-.13-.35-.35V5.35c0-.23.12-.35.35-.35zM57.09 10.68c-.2-1.75-1.98-2.95-3.95-2.95-2.03 0-3.73 1.23-4.13 2.95zm2.13 5.86c.13.13.1.28-.03.4-1.8 1.53-3.93 2.11-5.93 2.11-4.28 0-7.26-2.98-7.26-7.01C46 7.95 49.05 5 53.14 5c4.05 0 6.91 2.95 6.91 7.04v1c0 .22-.1.35-.3.35H49.03c.48 1.73 2.03 2.93 4.23 2.93 1.7 0 3.06-.35 4.36-1.43.12-.12.27-.12.4.03zM64.9 14.37c1.08 1.18 2.26 1.7 3.94 1.7 2.37 0 4.15-1.65 4.15-4.28 0-2.6-1.78-4.25-4.15-4.25-1.78 0-2.86.52-3.94 1.62zM64.55 1c.23 0 .36.12.36.35v4.78c1.17-.97 2.42-1.35 3.93-1.35 4.08 0 7.03 2.81 7.03 7.01 0 4.21-3.03 7.04-7.03 7.04-1.53 0-3.01-.43-4.04-1.43l-.17.02-.2.91c-.05.2-.18.3-.38.3h-1.7c-.22 0-.35-.13-.35-.35V1.35c0-.23.13-.35.35-.35zM78.21 2.35c.02-.22.14-.35.34-.35h1.91c.17 0 .35.13.35.35V5h3.7c.23 0 .35.13.35.36v2c0 .22-.12.35-.35.35h-3.7v6.48c0 1.28.67 1.93 1.75 1.93.68 0 1.28-.12 1.8-.4.28-.12.43-.02.5.15l.68 1.6c.1.23.05.38-.18.51-.92.59-1.87.87-3.15.87-3.01 0-4.31-1.9-4.31-4.58V7.71h-1.55c-.22 0-.35-.13-.35-.35V5.53c0-.17.1-.3.3-.33l1.63-.14zM93.58 13.06c2.21 0 3.43-1.37 3.43-3.28 0-1.88-1.22-3.28-3.43-3.28h-4.93v6.56zm0-8.06c2.91 0 5.09 2.08 5.09 4.78 0 2.01-1.13 3.63-2.91 4.36l2.33 4.16c.1.2-.05.35-.22.35h-1.21c-.17 0-.32-.1-.44-.3l-2.01-3.81c-.2.02-.43.02-.63.02h-4.93v3.76c0 .23-.1.33-.32.33h-1c-.23 0-.33-.1-.33-.33V5.33c0-.23.1-.33.33-.33zM111.32 11.29c-.28-2.73-2.28-4.79-5.21-4.79-2.98 0-5.16 1.98-5.43 4.79zm1.65.75v.45c0 .2-.1.3-.3.3H100.7c.28 2.7 2.33 4.75 5.53 4.75 1.93 0 3.26-.6 4.66-1.62.18-.13.33-.1.45.05l.5.67c.15.18.13.35-.07.5-1.5 1.21-3.31 1.91-5.54 1.91-4.3 0-7.23-2.98-7.23-7.01C99 7.96 102.03 5 106.11 5c3.96 0 6.86 2.96 6.86 7.04zM115.95 4.18c0-2.68 2.03-4.18 4.39-4.18 1.27 0 2.42.28 3.4.83.17.1.23.25.15.42l-.4.75c-.07.18-.2.2-.37.13a6.27 6.27 0 0 0-2.78-.65c-1.63 0-2.73.97-2.73 2.7v1.1h4.4c.23 0 .33.1.33.33v.83c0 .22-.1.35-.33.35h-4.4V18.6c0 .23-.11.33-.33.33h-1c-.23 0-.33-.1-.33-.33V6.79l-1.62-.16c-.23 0-.33-.1-.33-.32v-.7c0-.23.1-.33.33-.33h1.62zM134.32 11.29c-.28-2.73-2.28-4.79-5.21-4.79-2.98 0-5.16 1.98-5.43 4.79zm1.65.75v.45c0 .2-.1.3-.3.3H123.7c.28 2.7 2.33 4.75 5.54 4.75 1.92 0 3.25-.6 4.65-1.62.18-.13.33-.1.45.05l.5.67c.15.18.13.35-.07.5-1.5 1.21-3.31 1.91-5.53 1.91-4.31 0-7.24-2.98-7.24-7.01 0-4.08 3.03-7.04 7.11-7.04 3.96 0 6.86 2.96 6.86 7.04zM138.15 5.2c.23 0 .33.13.33.35l.05 1.43h.12c1.2-1.33 2.68-1.98 4.46-1.98 2.53 0 4.55 1.25 5.38 3.76.05.17 0 .27-.15.32l-1.03.38c-.17.05-.27 0-.32-.18-.63-1.88-2.01-2.73-3.88-2.73-1.9 0-3.28.75-4.46 2.26v9.71c0 .23-.12.33-.35.33h-.98c-.22 0-.32-.1-.32-.33V5.55c0-.22.1-.35.32-.35zM151.15 5.2c.23 0 .33.13.33.35l.05 1.43h.12c1.2-1.33 2.68-1.98 4.46-1.98 2.53 0 4.55 1.25 5.38 3.76.05.17 0 .27-.15.32l-1.03.38c-.17.05-.27 0-.32-.18-.63-1.88-2-2.73-3.88-2.73-1.9 0-3.28.75-4.46 2.26v9.71c0 .23-.12.33-.35.33h-.97c-.23 0-.33-.1-.33-.33V5.55c0-.22.1-.35.33-.35zM172.41 11.44l-5.93.85c-1.7.27-2.83 1.12-2.83 2.55 0 1.9 1.75 2.7 3.43 2.7 2.21 0 4.13-.92 5.33-2.62zm.26 5.25c-1.48 1.51-3.33 2.36-5.54 2.36-3.4 0-5.13-1.9-5.13-4.21 0-2.35 1.9-3.71 4.28-4.03l6.13-.8v-.63c0-1.83-1.62-2.88-3.75-2.88-1.78 0-3.43.45-4.81 1.53-.1.08-.27.1-.35-.02l-.57-.81c-.08-.12-.08-.25.05-.34 1.6-1.31 3.68-1.86 5.68-1.86 2.88 0 5.41 1.45 5.41 4.38v5.04c0 1.17.25 2.3.75 3.38l.17.37c.08.13.08.3-.1.38l-.8.35c-.17.07-.4.05-.47-.13l-.83-2.08zM177.33 1c.22 0 .32.1.32.32v17.43c0 .23-.1.33-.32.33h-1c-.23 0-.33-.1-.33-.33V1.32c0-.22.1-.32.33-.32zM3.55 13.31h9.94c3.04 0 5-1.9 5-4.97s-1.96-4.97-5-4.97H3.55zM13.49 0c4.76 0 8.59 3.43 8.59 8.34 0 4.97-3.83 8.37-8.59 8.37H.43c-.28 0-.43-.15-.43-.43V.43C0 .15.15 0 .43 0zM19.47 19.64c-.1-.19-.25-.35-.44-.47a1.16 1.16 0 0 0-.62-.17H.57a.578.578 0 0 0-.57.58v6.73c0 .27.15.42.43.42h2.7c.27 0 .43-.15.43-.42v-4.02h13c.13 0 .28 0 .5-.03l2.05 4.17c.12.21.31.3.55.3h3c.25 0 .4-.21.28-.42l-1.32-2.53zM190.98 7.01c.15.15.15.31.02.46l-.64.75c-.1.12-.33.12-.46.02-1.32-1.16-2.91-1.72-4.73-1.72-2.55 0-3.89.77-3.89 2.18 0 1.5 1.52 1.88 4.24 2.22 3.58.49 6.15 1.31 6.15 4.27 0 2.8-2.8 4.24-6.22 4.24-2.65 0-4.6-.72-6.35-2.27-.13-.12-.13-.28 0-.46l.61-.85c.16-.18.31-.18.47-.02 1.51 1.44 3.26 2.05 5.29 2.05 2.96 0 4.53-1.08 4.53-2.69 0-1.83-1.88-2.32-4.71-2.65-2.88-.34-5.68-.98-5.68-3.84 0-2.23 2.21-3.7 5.61-3.7 2.08 0 4.11.54 5.76 2.01" fill="#030e1a"/><path d="M35.9 15.87h2.78c2.48 0 4.08-1.56 4.08-4.06 0-2.5-1.6-4.06-4.08-4.06H35.9zM38.68 5c3.88 0 7.01 2.8 7.01 6.81 0 4.06-3.13 6.84-7.01 6.84h-5.33c-.23 0-.35-.13-.35-.35V5.35c0-.23.12-.35.35-.35zM57.09 10.68c-.2-1.75-1.98-2.95-3.95-2.95-2.03 0-3.73 1.23-4.13 2.95zm2.13 5.86c.13.13.1.28-.03.4-1.8 1.53-3.93 2.11-5.93 2.11-4.28 0-7.26-2.98-7.26-7.01C46 7.95 49.05 5 53.14 5c4.05 0 6.91 2.95 6.91 7.04v1c0 .22-.1.35-.3.35H49.03c.48 1.73 2.03 2.93 4.23 2.93 1.7 0 3.06-.35 4.36-1.43.12-.12.27-.12.4.03zM64.9 14.37c1.08 1.18 2.26 1.7 3.94 1.7 2.37 0 4.15-1.65 4.15-4.28 0-2.6-1.78-4.25-4.15-4.25-1.78 0-2.86.52-3.94 1.62zM64.55 1c.23 0 .36.12.36.35v4.78c1.17-.97 2.42-1.35 3.93-1.35 4.08 0 7.03 2.81 7.03 7.01 0 4.21-3.03 7.04-7.03 7.04-1.53 0-3.01-.43-4.04-1.43l-.17.02-.2.91c-.05.2-.18.3-.38.3h-1.7c-.22 0-.35-.13-.35-.35V1.35c0-.23.13-.35.35-.35zM78.21 2.35c.02-.22.14-.35.34-.35h1.91c.17 0 .35.13.35.35V5h3.7c.23 0 .35.13.35.36v2c0 .22-.12.35-.35.35h-3.7v6.48c0 1.28.67 1.93 1.75 1.93.68 0 1.28-.12 1.8-.4.28-.12.43-.02.5.15l.68 1.6c.1.23.05.38-.18.51-.92.59-1.87.87-3.15.87-3.01 0-4.31-1.9-4.31-4.58V7.71h-1.55c-.22 0-.35-.13-.35-.35V5.53c0-.17.1-.3.3-.33l1.63-.14zM93.58 13.06c2.21 0 3.43-1.37 3.43-3.28 0-1.88-1.22-3.28-3.43-3.28h-4.93v6.56zm0-8.06c2.91 0 5.09 2.08 5.09 4.78 0 2.01-1.13 3.63-2.91 4.36l2.33 4.16c.1.2-.05.35-.22.35h-1.21c-.17 0-.32-.1-.44-.3l-2.01-3.81c-.2.02-.43.02-.63.02h-4.93v3.76c0 .23-.1.33-.32.33h-1c-.23 0-.33-.1-.33-.33V5.33c0-.23.1-.33.33-.33zM111.32 11.29c-.28-2.73-2.28-4.79-5.21-4.79-2.98 0-5.16 1.98-5.43 4.79zm1.65.75v.45c0 .2-.1.3-.3.3H100.7c.28 2.7 2.33 4.75 5.53 4.75 1.93 0 3.26-.6 4.66-1.62.18-.13.33-.1.45.05l.5.67c.15.18.13.35-.07.5-1.5 1.21-3.31 1.91-5.54 1.91-4.3 0-7.23-2.98-7.23-7.01C99 7.96 102.03 5 106.11 5c3.96 0 6.86 2.96 6.86 7.04zM115.95 4.18c0-2.68 2.03-4.18 4.39-4.18 1.27 0 2.42.28 3.4.83.17.1.23.25.15.42l-.4.75c-.07.18-.2.2-.37.13a6.27 6.27 0 0 0-2.78-.65c-1.63 0-2.73.97-2.73 2.7v1.1h4.4c.23 0 .33.1.33.33v.83c0 .22-.1.35-.33.35h-4.4V18.6c0 .23-.11.33-.33.33h-1c-.23 0-.33-.1-.33-.33V6.79l-1.62-.16c-.23 0-.33-.1-.33-.32v-.7c0-.23.1-.33.33-.33h1.62zM134.32 11.29c-.28-2.73-2.28-4.79-5.21-4.79-2.98 0-5.16 1.98-5.43 4.79zm1.65.75v.45c0 .2-.1.3-.3.3H123.7c.28 2.7 2.33 4.75 5.54 4.75 1.92 0 3.25-.6 4.65-1.62.18-.13.33-.1.45.05l.5.67c.15.18.13.35-.07.5-1.5 1.21-3.31 1.91-5.53 1.91-4.31 0-7.24-2.98-7.24-7.01 0-4.08 3.03-7.04 7.11-7.04 3.96 0 6.86 2.96 6.86 7.04zM138.15 5.2c.23 0 .33.13.33.35l.05 1.43h.12c1.2-1.33 2.68-1.98 4.46-1.98 2.53 0 4.55 1.25 5.38 3.76.05.17 0 .27-.15.32l-1.03.38c-.17.05-.27 0-.32-.18-.63-1.88-2.01-2.73-3.88-2.73-1.9 0-3.28.75-4.46 2.26v9.71c0 .23-.12.33-.35.33h-.98c-.22 0-.32-.1-.32-.33V5.55c0-.22.1-.35.32-.35zM151.15 5.2c.23 0 .33.13.33.35l.05 1.43h.12c1.2-1.33 2.68-1.98 4.46-1.98 2.53 0 4.55 1.25 5.38 3.76.05.17 0 .27-.15.32l-1.03.38c-.17.05-.27 0-.32-.18-.63-1.88-2-2.73-3.88-2.73-1.9 0-3.28.75-4.46 2.26v9.71c0 .23-.12.33-.35.33h-.97c-.23 0-.33-.1-.33-.33V5.55c0-.22.1-.35.33-.35zM172.41 11.44l-5.93.85c-1.7.27-2.83 1.12-2.83 2.55 0 1.9 1.75 2.7 3.43 2.7 2.21 0 4.13-.92 5.33-2.62zm.26 5.25c-1.48 1.51-3.33 2.36-5.54 2.36-3.4 0-5.13-1.9-5.13-4.21 0-2.35 1.9-3.71 4.28-4.03l6.13-.8v-.63c0-1.83-1.62-2.88-3.75-2.88-1.78 0-3.43.45-4.81 1.53-.1.08-.27.1-.35-.02l-.57-.81c-.08-.12-.08-.25.05-.34 1.6-1.31 3.68-1.86 5.68-1.86 2.88 0 5.41 1.45 5.41 4.38v5.04c0 1.17.25 2.3.75 3.38l.17.37c.08.13.08.3-.1.38l-.8.35c-.17.07-.4.05-.47-.13l-.83-2.08zM177.33 1c.22 0 .32.1.32.32v17.43c0 .23-.1.33-.32.33h-1c-.23 0-.33-.1-.33-.33V1.32c0-.22.1-.32.33-.32zM3.55 13.31h9.94c3.04 0 5-1.9 5-4.97s-1.96-4.97-5-4.97H3.55zM13.49 0c4.76 0 8.59 3.43 8.59 8.34 0 4.97-3.83 8.37-8.59 8.37H.43c-.28 0-.43-.15-.43-.43V.43C0 .15.15 0 .43 0zM19.47 19.64c-.1-.19-.25-.35-.44-.47a1.16 1.16 0 0 0-.62-.17H.57a.578.578 0 0 0-.57.58v6.73c0 .27.15.42.43.42h2.7c.27 0 .43-.15.43-.42v-4.02h13c.13 0 .28 0 .5-.03l2.05 4.17c.12.21.31.3.55.3h3c.25 0 .4-.21.28-.42l-1.32-2.53zM190.98 7.01c.15.15.15.31.02.46l-.64.75c-.1.12-.33.12-.46.02-1.32-1.16-2.91-1.72-4.73-1.72-2.55 0-3.89.77-3.89 2.18 0 1.5 1.52 1.88 4.24 2.22 3.58.49 6.15 1.31 6.15 4.27 0 2.8-2.8 4.24-6.22 4.24-2.65 0-4.6-.72-6.35-2.27-.13-.12-.13-.28 0-.46l.61-.85c.16-.18.31-.18.47-.02 1.51 1.44 3.26 2.05 5.29 2.05 2.96 0 4.53-1.08 4.53-2.69 0-1.83-1.88-2.32-4.71-2.65-2.88-.34-5.68-.98-5.68-3.84 0-2.23 2.21-3.7 5.61-3.7 2.08 0 4.11.54 5.76 2.01" fill="#030e1a"/></svg>