<svg xmlns="http://www.w3.org/2000/svg" width="80" height="71">
  <path d="M13.44 48L11 54.9h4.87L13.49 48zM35.29 51c-2.51 0-3.23 1.95-3.29 3.07h6.44c-.36-2.01-1.23-3.07-3.15-3.07"
        fill="#051b30"/>
  <path
    d="M26.78 42.77h-3.96v18.4l-6.88-18.4h-4.49L3.89 62.68h4.43l2.6-7.35c5.06 0 7.92 7.35 7.92 7.35h7.94zm38.84 13.67c.28-4.44-2.1-8.57-7.01-8.57-2.63 0-4.76 1.2-6.04 3.1v-2.96c-.25-.08-.58-.14-.86-.14-1.93 0-3.88 1.26-4.6 3.07h-.06v-2.67h-3.77v14.41h3.96v-6.49c0-2.54 1.01-4.64 3.91-4.64.33 0 .7.03 1.03.08-.6 1.12-.93 2.43-.93 3.86 0 4.46 2.82 7.59 7.36 7.59 3.27 0 5.64-1.45 6.75-4.86h-3.48c-.25.89-1.53 1.87-3.13 1.87-2.2 0-3.43-1.14-3.54-3.65zm-23.41 0c.28-4.44-2.09-8.57-7-8.57-4.38 0-7.36 3.29-7.36 7.62 0 4.46 2.82 7.59 7.36 7.59 3.26 0 5.63-1.45 6.75-4.86h-3.49c-.25.89-1.53 1.87-3.12 1.87-2.2 0-3.43-1.14-3.54-3.65zM48.4.03c12.12 0 21.94 9.82 21.94 21.93v48.39H0V0z"
    fill="#030e1a"/>
  <path d="M58.29 51c-2.51 0-3.23 1.95-3.29 3.07h6.44c-.36-2.01-1.22-3.07-3.15-3.07" fill="#051b30"/>
  <path d="M73 66.45h1.33v3.53h.52v-3.53h1.33V66H73z" fill="#030e1a"/>
  <path d="M79.24 66l-1.26 3.34L76.72 66H76v3.98h.5v-3.31h.01l1.24 3.31h.46l1.24-3.31h.01v3.31h.5V66z" fill="#030e1a"/>
</svg>
