<svg xmlns="http://www.w3.org/2000/svg" width="128" height="16"><path d="M7.88 15.92h9.17c4.35 0 7.88-3.53 7.88-7.88S21.4.16 17.05.16H7.88C3.53.16 0 3.69 0 8.04s3.53 7.88 7.88 7.88zm44.96-5.56l1.79 2.78h8.2l1.68 2.78h3.58L58.5.95C58.1.36 57.41 0 56.66 0c-.76 0-1.46.37-1.87.97l-9.55 14.95h3.58l7.84-12.45 4.27 6.89zm21.57 5.56h9.36l1.78-2.78H74.62c-2.83 0-5.11-2.28-5.11-5.1s2.28-5.11 5.11-5.11l8.9.01L85.3.16H74.41c-4.35 0-7.88 3.53-7.88 7.88s3.53 7.88 7.88 7.88zM45.14 5.49c0-2.95-2.39-5.33-5.33-5.33H26.54v15.76h3.03V2.93H39.6a2.554 2.554 0 0 1 0 5.11h-8.55l9.05 7.88h4.4l-6.08-5.11 1.39.01c2.94 0 5.33-2.39 5.33-5.33zM89.96.16h-3.03v14.25c0 .39.16.77.44 1.05.3.3.69.46 1.11.46h13.82l1.79-2.78H89.96zM16.84 13.14H8.09a5.104 5.104 0 0 1 0-10.21l8.75.01c2.82 0 5.1 2.28 5.1 5.1s-2.28 5.1-5.1 5.1zm94.65 0h10.93l-1.78 2.78h-9.35c-4.35 0-7.89-3.53-7.89-7.88s3.54-7.88 7.89-7.88h10.89l-1.79 2.78-8.9-.01c-2.33 0-4.3 1.58-4.91 3.72h14.75l-1.79 2.78h-12.95c.6 2.14 2.57 3.71 4.9 3.71zM127.54 1.77c0-.98-.79-1.77-1.77-1.77S124 .79 124 1.77s.79 1.77 1.77 1.77 1.77-.79 1.77-1.77zm-1.77-1.4c.77 0 1.39.63 1.39 1.4 0 .77-.62 1.39-1.39 1.39-.77 0-1.39-.62-1.39-1.39 0-.77.62-1.4 1.39-1.4zm-.17.35h-.49v1.99h.38v-.76h.27l.41.76h.44l-.46-.83c.06-.02.07-.03.09-.05.18-.11.23-.26.25-.34.01-.07.02-.14.02-.16 0-.12-.04-.44-.39-.56-.13-.05-.24-.05-.52-.05zm.14.9h-.25v-.57h.11c.19 0 .28 0 .37.03.09.05.15.14.15.24 0 .07-.02.12-.05.17-.08.12-.21.13-.33.13z" fill="#030e1a"/><path d="M7.88 15.92h9.17c4.35 0 7.88-3.53 7.88-7.88S21.4.16 17.05.16H7.88C3.53.16 0 3.69 0 8.04s3.53 7.88 7.88 7.88zm44.96-5.56l1.79 2.78h8.2l1.68 2.78h3.58L58.5.95C58.1.36 57.41 0 56.66 0c-.76 0-1.46.37-1.87.97l-9.55 14.95h3.58l7.84-12.45 4.27 6.89zm21.57 5.56h9.36l1.78-2.78H74.62c-2.83 0-5.11-2.28-5.11-5.1s2.28-5.11 5.11-5.11l8.9.01L85.3.16H74.41c-4.35 0-7.88 3.53-7.88 7.88s3.53 7.88 7.88 7.88zM45.14 5.49c0-2.95-2.39-5.33-5.33-5.33H26.54v15.76h3.03V2.93H39.6a2.554 2.554 0 0 1 0 5.11h-8.55l9.05 7.88h4.4l-6.08-5.11 1.39.01c2.94 0 5.33-2.39 5.33-5.33zM89.96.16h-3.03v14.25c0 .39.16.77.44 1.05.3.3.69.46 1.11.46h13.82l1.79-2.78H89.96zM16.84 13.14H8.09a5.104 5.104 0 0 1 0-10.21l8.75.01c2.82 0 5.1 2.28 5.1 5.1s-2.28 5.1-5.1 5.1zm94.65 0h10.93l-1.78 2.78h-9.35c-4.35 0-7.89-3.53-7.89-7.88s3.54-7.88 7.89-7.88h10.89l-1.79 2.78-8.9-.01c-2.33 0-4.3 1.58-4.91 3.72h14.75l-1.79 2.78h-12.95c.6 2.14 2.57 3.71 4.9 3.71zM127.54 1.77c0-.98-.79-1.77-1.77-1.77S124 .79 124 1.77s.79 1.77 1.77 1.77 1.77-.79 1.77-1.77zm-1.77-1.4c.77 0 1.39.63 1.39 1.4 0 .77-.62 1.39-1.39 1.39-.77 0-1.39-.62-1.39-1.39 0-.77.62-1.4 1.39-1.4zm-.17.35h-.49v1.99h.38v-.76h.27l.41.76h.44l-.46-.83c.06-.02.07-.03.09-.05.18-.11.23-.26.25-.34.01-.07.02-.14.02-.16 0-.12-.04-.44-.39-.56-.13-.05-.24-.05-.52-.05zm.14.9h-.25v-.57h.11c.19 0 .28 0 .37.03.09.05.15.14.15.24 0 .07-.02.12-.05.17-.08.12-.21.13-.33.13z" fill="#030e1a"/></svg>