<svg xmlns="http://www.w3.org/2000/svg" width="84" height="43"><path d="M70.63 22.64c-.51.93-1.19 1.77-2.02 2.54-.99.93-2.09 1.59-3.31 1.98-1.21.4-2.76.59-4.63.59h-4.26l-1.18 6.07h-4.97l4.44-22.81h9.55c2.88 0 4.97.75 6.29 2.26 1.32 1.51 1.72 3.62 1.19 6.32-.22 1.11-.58 2.13-1.1 3.05zm-44.11 4.52c-1.21.4-2.76.59-4.64.59h-4.25l-1.18 6.07h-4.97l4.43-22.81h9.56c2.87 0 4.97.75 6.29 2.26 1.32 1.51 1.71 3.62 1.19 6.32a10.45 10.45 0 0 1-1.1 3.05c-.52.93-1.19 1.77-2.02 2.54-1 .93-2.1 1.59-3.31 1.98zm17.81.59l1.96-10.09c.22-1.15.14-1.93-.24-2.35-.39-.42-1.22-.62-2.48-.62h-3.94l-2.54 13.06h-4.93L36.6 4.94h4.93l-1.18 6.07h4.39c2.76 0 4.67.48 5.72 1.44 1.05.97 1.36 2.53.94 4.69l-2.06 10.61zM0 21.07c0 11.64 18.62 21.07 41.58 21.07 22.96 0 41.58-9.43 41.58-21.07S64.54 0 41.58 0C18.62 0 0 9.43 0 21.07z" fill="#030e1a"/><path d="M62.26 15h-3.4L57 24.55h3.02c2.01 0 3.5-.38 4.48-1.14.98-.75 1.64-2.01 1.98-3.78.33-1.69.18-2.89-.45-3.58-.62-.7-1.88-1.05-3.77-1.05M23.26 15h-3.4L18 24.55h3.02c2.01 0 3.5-.38 4.48-1.14.98-.75 1.64-2.01 1.98-3.78.33-1.69.18-2.89-.45-3.58-.62-.7-1.88-1.05-3.77-1.05" fill="#030e1a"/><path d="M70.63 22.64c-.51.93-1.19 1.77-2.02 2.54-.99.93-2.09 1.59-3.31 1.98-1.21.4-2.76.59-4.63.59h-4.26l-1.18 6.07h-4.97l4.44-22.81h9.55c2.88 0 4.97.75 6.29 2.26 1.32 1.51 1.72 3.62 1.19 6.32-.22 1.11-.58 2.13-1.1 3.05zm-44.11 4.52c-1.21.4-2.76.59-4.64.59h-4.25l-1.18 6.07h-4.97l4.43-22.81h9.56c2.87 0 4.97.75 6.29 2.26 1.32 1.51 1.71 3.62 1.19 6.32a10.45 10.45 0 0 1-1.1 3.05c-.52.93-1.19 1.77-2.02 2.54-1 .93-2.1 1.59-3.31 1.98zm17.81.59l1.96-10.09c.22-1.15.14-1.93-.24-2.35-.39-.42-1.22-.62-2.48-.62h-3.94l-2.54 13.06h-4.93L36.6 4.94h4.93l-1.18 6.07h4.39c2.76 0 4.67.48 5.72 1.44 1.05.97 1.36 2.53.94 4.69l-2.06 10.61zM0 21.07c0 11.64 18.62 21.07 41.58 21.07 22.96 0 41.58-9.43 41.58-21.07S64.54 0 41.58 0C18.62 0 0 9.43 0 21.07z" fill="#030e1a"/><path d="M62.26 15h-3.4L57 24.55h3.02c2.01 0 3.5-.38 4.48-1.14.98-.75 1.64-2.01 1.98-3.78.33-1.69.18-2.89-.45-3.58-.62-.7-1.88-1.05-3.77-1.05M23.26 15h-3.4L18 24.55h3.02c2.01 0 3.5-.38 4.48-1.14.98-.75 1.64-2.01 1.98-3.78.33-1.69.18-2.89-.45-3.58-.62-.7-1.88-1.05-3.77-1.05" fill="#030e1a"/><path d="M70.63 22.64c-.51.93-1.19 1.77-2.02 2.54-.99.93-2.09 1.59-3.31 1.98-1.21.4-2.76.59-4.63.59h-4.26l-1.18 6.07h-4.97l4.44-22.81h9.55c2.88 0 4.97.75 6.29 2.26 1.32 1.51 1.72 3.62 1.19 6.32-.22 1.11-.58 2.13-1.1 3.05zm-44.11 4.52c-1.21.4-2.76.59-4.64.59h-4.25l-1.18 6.07h-4.97l4.43-22.81h9.56c2.87 0 4.97.75 6.29 2.26 1.32 1.51 1.71 3.62 1.19 6.32a10.45 10.45 0 0 1-1.1 3.05c-.52.93-1.19 1.77-2.02 2.54-1 .93-2.1 1.59-3.31 1.98zm17.81.59l1.96-10.09c.22-1.15.14-1.93-.24-2.35-.39-.42-1.22-.62-2.48-.62h-3.94l-2.54 13.06h-4.93L36.6 4.94h4.93l-1.18 6.07h4.39c2.76 0 4.67.48 5.72 1.44 1.05.97 1.36 2.53.94 4.69l-2.06 10.61zM0 21.07c0 11.64 18.62 21.07 41.58 21.07 22.96 0 41.58-9.43 41.58-21.07S64.54 0 41.58 0C18.62 0 0 9.43 0 21.07z" fill="#030e1a"/><path d="M62.26 15h-3.4L57 24.55h3.02c2.01 0 3.5-.38 4.48-1.14.98-.75 1.64-2.01 1.98-3.78.33-1.69.18-2.89-.45-3.58-.62-.7-1.88-1.05-3.77-1.05M23.26 15h-3.4L18 24.55h3.02c2.01 0 3.5-.38 4.48-1.14.98-.75 1.64-2.01 1.98-3.78.33-1.69.18-2.89-.45-3.58-.62-.7-1.88-1.05-3.77-1.05" fill="#030e1a"/></svg>