<svg xmlns="http://www.w3.org/2000/svg" width="151" height="37"><path d="M58.99 24.99c-1.23 1.74-2.93 2.64-5.11 2.69-1.64.05-3.33-.46-5.07-1.54v9.98L46 35.11V12.97c.46-.57 1.06-1.06 1.78-1.47 1.67-.97 3.71-1.48 6.1-1.5l.04.04c2.19-.03 3.88.87 5.06 2.69 1.11 1.68 1.66 3.82 1.66 6.44 0 2.33-.55 4.27-1.65 5.82zm-5.52-13.1c-1.04-.05-2.06.11-3.05.5-.79.28-1.33.56-1.61.85v10.97c1.68 1.06 3.17 1.54 4.47 1.47 2.75-.18 4.13-2.42 4.13-6.7 0-4.6-1.32-6.96-3.94-7.09zM78.14 25.71c0 3.14-.31 5.31-.94 6.52-.63 1.2-1.83 2.17-3.6 2.88-1.44.57-3 .88-4.67.93l-.46-1.77c1.7-.23 2.89-.47 3.58-.7 1.37-.46 2.3-1.17 2.82-2.11.41-.78.61-2.25.61-4.43v-.74c-1.92.88-3.94 1.31-6.05 1.31-1.38 0-2.6-.43-3.66-1.31-1.18-.95-1.77-2.15-1.77-3.62V10.96l2.81-.96v11.79c0 1.26.41 2.23 1.22 2.91.82.68 1.87 1 3.16.98 1.29-.03 2.67-.53 4.14-1.5V10.42h2.81zM88.9 26.8c-.34.03-.64.04-.93.04-1.59 0-2.83-.38-3.72-1.14-.88-.76-1.32-1.81-1.32-3.15V11.47H81V9.7h1.93V5l2.81-1v5.7h3.16v1.77h-3.16v11.01c0 1.05.28 1.8.85 2.24.48.36 1.26.56 2.31.62zM105.72 26.85h-2.82V15.99c0-1.11-.26-2.06-.77-2.86-.59-.89-1.42-1.34-2.48-1.34-1.29 0-2.9.68-4.84 2.04v13.02H92V.89L94.81 0v11.82c1.8-1.3 3.77-1.96 5.9-1.96 1.49 0 2.7.5 3.62 1.5.93 1 1.39 2.25 1.39 3.74zM122.52 24.83c-1.41 1.87-3.36 2.81-5.85 2.81-2.47 0-4.39-.94-5.78-2.81-1.26-1.67-1.89-3.76-1.89-6.28 0-2.36.68-4.35 2.04-5.97 1.44-1.72 3.33-2.58 5.67-2.58 2.33 0 4.23.86 5.7 2.58 1.36 1.62 2.04 3.61 2.04 5.97 0 2.52-.64 4.61-1.93 6.28zm-2.15-10.68c-.8-1.4-2.03-2.15-3.7-2.22-3.09.18-4.63 2.39-4.63 6.62 0 1.94.32 3.57.97 4.87.83 1.66 2.06 2.48 3.71 2.45 3.1-.03 4.65-2.47 4.65-7.34 0-1.76-.34-3.22-1-4.38zM140.6 27.29h-2.81V15.82c0-1.26-.38-2.24-1.14-2.95-.75-.71-1.76-1.05-3.02-1.02-1.34.02-2.61.46-3.82 1.31v14.13H127V12.81c1.62-1.18 3.11-1.95 4.47-2.31 1.28-.33 2.42-.5 3.39-.5.67 0 1.3.06 1.89.19 1.1.26 2 .73 2.7 1.43.77.77 1.15 1.69 1.15 2.77zM15.35 5.21c0 .89-.71 1.61-1.59 1.61-.87 0-1.58-.72-1.58-1.61 0-.89.71-1.61 1.58-1.61.88 0 1.59.72 1.59 1.61zM14.3 1.35c-3.59.63-4.24 1.95-4.24 4.4v3.22h8.47v1.08H6.89c-2.47 0-4.62 1.48-5.29 4.29-.78 3.23-.82 5.24 0 8.61.6 2.51 2.04 4.29 4.5 4.29h2.91v-3.87c0-2.79 2.42-5.26 5.29-5.26h8.46c2.35 0 4.23-1.93 4.23-4.3V5.75c0-2.3-1.94-4.02-4.23-4.4C21.3 1.1 19.79.99 18.34 1c-1.44.01-2.83.13-4.04.35z" fill="#030e1a"/><path d="M24.81 32.03c0 .89-.71 1.62-1.59 1.62-.87 0-1.58-.73-1.58-1.62 0-.89.71-1.61 1.58-1.61.88 0 1.59.72 1.59 1.61zM27.98 10v3.76c0 2.92-2.47 5.37-5.29 5.37h-8.46c-2.31 0-4.23 1.98-4.23 4.3v8.07c0 2.29 2 3.64 4.23 4.3 2.68.79 5.25.93 8.46 0 2.13-.62 4.24-1.86 4.24-4.3v-3.23h-8.46v-1.08h12.69c2.46 0 3.38-1.71 4.23-4.29.89-2.65.85-5.2 0-8.61-.6-2.45-1.77-4.29-4.23-4.29zM147.69 7.46V4.64l.91 2.82h.47l.96-2.81v2.81h.46V4h-.61l-1.04 2.97-.89-2.97h-.68v3.46zm-2.52-3.09H144V4h2.83v.37h-1.17v3.09h-.49zM58.99 24.99c-1.23 1.74-2.93 2.64-5.11 2.69-1.64.05-3.33-.46-5.07-1.54v9.98L46 35.11V12.97c.46-.57 1.06-1.06 1.78-1.47 1.67-.97 3.71-1.48 6.1-1.5l.04.04c2.19-.03 3.88.87 5.06 2.69 1.11 1.68 1.66 3.82 1.66 6.44 0 2.33-.55 4.27-1.65 5.82zm-5.52-13.1c-1.04-.05-2.06.11-3.05.5-.79.28-1.33.56-1.61.85v10.97c1.68 1.06 3.17 1.54 4.47 1.47 2.75-.18 4.13-2.42 4.13-6.7 0-4.6-1.32-6.96-3.94-7.09zM78.14 25.71c0 3.14-.31 5.31-.94 6.52-.63 1.2-1.83 2.17-3.6 2.88-1.44.57-3 .88-4.67.93l-.46-1.77c1.7-.23 2.89-.47 3.58-.7 1.37-.46 2.3-1.17 2.82-2.11.41-.78.61-2.25.61-4.43v-.74c-1.92.88-3.94 1.31-6.05 1.31-1.38 0-2.6-.43-3.66-1.31-1.18-.95-1.77-2.15-1.77-3.62V10.96l2.81-.96v11.79c0 1.26.41 2.23 1.22 2.91.82.68 1.87 1 3.16.98 1.29-.03 2.67-.53 4.14-1.5V10.42h2.81zM88.9 26.8c-.34.03-.64.04-.93.04-1.59 0-2.83-.38-3.72-1.14-.88-.76-1.32-1.81-1.32-3.15V11.47H81V9.7h1.93V5l2.81-1v5.7h3.16v1.77h-3.16v11.01c0 1.05.28 1.8.85 2.24.48.36 1.26.56 2.31.62zM105.72 26.85h-2.82V15.99c0-1.11-.26-2.06-.77-2.86-.59-.89-1.42-1.34-2.48-1.34-1.29 0-2.9.68-4.84 2.04v13.02H92V.89L94.81 0v11.82c1.8-1.3 3.77-1.96 5.9-1.96 1.49 0 2.7.5 3.62 1.5.93 1 1.39 2.25 1.39 3.74zM122.52 24.83c-1.41 1.87-3.36 2.81-5.85 2.81-2.47 0-4.39-.94-5.78-2.81-1.26-1.67-1.89-3.76-1.89-6.28 0-2.36.68-4.35 2.04-5.97 1.44-1.72 3.33-2.58 5.67-2.58 2.33 0 4.23.86 5.7 2.58 1.36 1.62 2.04 3.61 2.04 5.97 0 2.52-.64 4.61-1.93 6.28zm-2.15-10.68c-.8-1.4-2.03-2.15-3.7-2.22-3.09.18-4.63 2.39-4.63 6.62 0 1.94.32 3.57.97 4.87.83 1.66 2.06 2.48 3.71 2.45 3.1-.03 4.65-2.47 4.65-7.34 0-1.76-.34-3.22-1-4.38zM140.6 27.29h-2.81V15.82c0-1.26-.38-2.24-1.14-2.95-.75-.71-1.76-1.05-3.02-1.02-1.34.02-2.61.46-3.82 1.31v14.13H127V12.81c1.62-1.18 3.11-1.95 4.47-2.31 1.28-.33 2.42-.5 3.39-.5.67 0 1.3.06 1.89.19 1.1.26 2 .73 2.7 1.43.77.77 1.15 1.69 1.15 2.77z" fill="#030e1a"/><path d="M15.35 5.21c0 .89-.71 1.61-1.59 1.61-.87 0-1.58-.72-1.58-1.61 0-.89.71-1.61 1.58-1.61.88 0 1.59.72 1.59 1.61zM14.3 1.35c-3.59.63-4.24 1.95-4.24 4.4v3.22h8.47v1.08H6.89c-2.47 0-4.62 1.48-5.29 4.29-.78 3.23-.82 5.24 0 8.61.6 2.51 2.04 4.29 4.5 4.29h2.91v-3.87c0-2.79 2.42-5.26 5.29-5.26h8.46c2.35 0 4.23-1.93 4.23-4.3V5.75c0-2.3-1.94-4.02-4.23-4.4C21.3 1.1 19.79.99 18.34 1c-1.44.01-2.83.13-4.04.35z" fill="#030e1a"/><path d="M24.81 32.03c0 .89-.71 1.62-1.59 1.62-.87 0-1.58-.73-1.58-1.62 0-.89.71-1.61 1.58-1.61.88 0 1.59.72 1.59 1.61zM27.98 10v3.76c0 2.92-2.47 5.37-5.29 5.37h-8.46c-2.31 0-4.23 1.98-4.23 4.3v8.07c0 2.29 2 3.64 4.23 4.3 2.68.79 5.25.93 8.46 0 2.13-.62 4.24-1.86 4.24-4.3v-3.23h-8.46v-1.08h12.69c2.46 0 3.38-1.71 4.23-4.29.89-2.65.85-5.2 0-8.61-.6-2.45-1.77-4.29-4.23-4.29zM147.69 7.46V4.64l.91 2.82h.47l.96-2.81v2.81h.46V4h-.61l-1.04 2.97-.89-2.97h-.68v3.46zm-2.52-3.09H144V4h2.83v.37h-1.17v3.09h-.49z" fill="#030e1a"/></svg>