<?xml version="1.0" encoding="UTF-8" standalone="no"?>
<svg width="32px" height="32px" viewBox="0 0 32 32" version="1.1" xmlns="http://www.w3.org/2000/svg" xmlns:xlink="http://www.w3.org/1999/xlink">
    <!-- Generator: Sketch 41.1 (35376) - http://www.bohemiancoding.com/sketch -->
    <title>Combined Shape</title>
    <desc>Created with Sketch.</desc>
    <defs></defs>
    <g id="Desktop-Full-HD-1920" stroke="none" stroke-width="1" fill="none" fill-rule="evenodd">
        <g id="001-Frontend-Desktop-Full-HD-1920-Services-Software-Development" transform="translate(-1240.000000, -5101.000000)" fill="#020E19">
            <g id="Main" transform="translate(0.000000, 906.000000)">
                <g id="Contacts" transform="translate(416.000000, 3635.000000)">
                    <g id="List" transform="translate(184.000000, 258.000000)">
                        <g id="FORM">
                            <g id="SOCIAL" transform="translate(592.000000, 302.000000)">
                                <g id="twitter-bird-light-bgs" transform="translate(48.000000, 0.000000)">
                                    <path d="M16,32 C24.836556,32 32,24.836556 32,16 C32,7.163444 24.836556,0 16,0 C7.163444,0 0,7.163444 0,16 C0,24.836556 7.163444,32 16,32 Z M24,11.5392 C23.41136,11.80032 22.77864,11.9768 22.11472,12.05608 C22.79232,11.64984 23.31288,11.00656 23.558,10.24 C22.92368,10.61624 22.2212,10.88936 21.47344,11.03656 C20.87472,10.39856 20.0216,10 19.07744,10 C17.26464,10 15.7948,11.46968 15.7948,13.28248 C15.7948,13.53976 15.82384,13.79032 15.87984,14.03056 C13.15168,13.89368 10.73288,12.5868 9.11392,10.6008 C8.83136,11.0856 8.66944,11.64952 8.66944,12.25112 C8.66944,13.39 9.24896,14.39472 10.12976,14.98336 C9.59168,14.96632 9.08552,14.81864 8.64296,14.5728 C8.64264,14.58648 8.64264,14.60016 8.64264,14.61408 C8.64264,16.20448 9.77416,17.5312 11.27584,17.8328 C11.0004,17.90784 10.7104,17.948 10.41104,17.948 C10.19952,17.948 9.99384,17.92736 9.79344,17.88904 C10.21112,19.19312 11.42336,20.14224 12.85984,20.16864 C11.7364,21.04912 10.32104,21.57392 8.78304,21.57392 C8.51808,21.57392 8.2568,21.55832 8,21.528 C9.45272,22.45936 11.17816,23.00288 13.03192,23.00288 C19.06976,23.00288 22.3716,18.00096 22.3716,13.66312 C22.3716,13.5208 22.36832,13.37928 22.362,13.23848 C23.00344,12.7756 23.55992,12.19752 24,11.5392 Z" id="Combined-Shape"></path>
                                </g>
                            </g>
                        </g>
                    </g>
                </g>
            </g>
        </g>
    </g>
</svg>