<svg id="SvgjsSvg1000" xmlns="http://www.w3.org/2000/svg" version="1.1" xmlns:xlink="http://www.w3.org/1999/xlink" xmlns:svgjs="http://svgjs.com/svgjs" width="55" height="54" viewBox="0 0 55 54"><title>Page 1</title><desc>Created with Avocode.</desc><defs id="SvgjsDefs1001"></defs><path id="SvgjsPath1007" d="M1294 3855L1323.15 3855L1323.15 3879.42L1323.15 3880.61C1313.5 3879.03 1303.65 3877.85 1294 3876.4700000000003Z " fill="#030e1a" fill-opacity="1" transform="matrix(1,0,0,1,-1269,-3827)"></path><path id="SvgjsPath1008" d="M1294 3831.33C1303.65 3829.7599999999998 1313.5 3828.38 1323.15 3827L1323.15 3827.39L1323.15 3852.6099999999997C1313.5 3852.6099999999997 1303.65 3852.7999999999997 1294 3852.7999999999997Z " fill="#030e1a" fill-opacity="1" transform="matrix(1,0,0,1,-1269,-3827)"></path><path id="SvgjsPath1009" d="M1269 3834.95C1276.29 3833.77 1283.58 3832.79 1291.06 3832L1291.06 3853.08C1283.58 3853.08 1276.29 3853.27 1269 3853.27Z " fill="#030e1a" fill-opacity="1" transform="matrix(1,0,0,1,-1269,-3827)"></path><path id="SvgjsPath1010" d="M1269 3855C1276.29 3855 1283.58 3855.2 1291.06 3855L1291.06 3876.27C1283.58 3875.29 1276.29 3874.3 1269 3873.32Z " fill="#030e1a" fill-opacity="1" transform="matrix(1,0,0,1,-1269,-3827)"></path></svg>